<svg width="24" height="25" viewBox="0 0 24 25" fill="none" xmlns="http://www.w3.org/2000/svg">
<g clip-path="url(#clip0)">
<path d="M22.478 24.5001H16.4839C16.0624 24.5001 15.7073 24.3518 15.4185 24.0552C15.1298 23.7587 14.9854 23.4074 14.9854 23.0016V17.0074C14.9854 16.586 14.8371 16.2308 14.5405 15.9421C14.2439 15.6533 13.8927 15.5089 13.4868 15.5089H10.4898C10.0683 15.5089 9.71317 15.6533 9.42439 15.9421C9.13561 16.2308 8.99122 16.586 8.99122 17.0074V23.0016C8.99122 23.4074 8.84293 23.7587 8.54634 24.0552C8.24976 24.3518 7.89854 24.5001 7.49268 24.5001H1.47512C1.1161 24.5001 0.780488 24.3479 0.468293 24.0435C0.156098 23.7391 0 23.3996 0 23.025C0 22.744 0.0702439 22.4865 0.210732 22.2523L10.162 8.29715L6.20488 2.77129C5.98634 2.41226 5.93171 2.03372 6.04098 1.63567C6.15024 1.23762 6.38439 0.937136 6.74341 0.734208C7.10244 0.531281 7.48098 0.480549 7.87902 0.582013C8.27707 0.683476 8.57756 0.913721 8.78049 1.27275L11.9883 5.74495L15.1727 1.24933C15.3756 0.905916 15.68 0.679574 16.0859 0.570305C16.4917 0.461037 16.8702 0.507866 17.2215 0.710794C17.5727 0.913721 17.8029 1.21421 17.9122 1.61226C18.0215 2.01031 17.9746 2.38885 17.7717 2.74787L13.8146 8.29715L23.7659 22.2757C23.9063 22.5255 23.9766 22.7674 23.9766 23.0016C23.9766 23.3762 23.8244 23.7196 23.52 24.0318C23.2156 24.344 22.8683 24.5001 22.478 24.5001Z" fill="black"/>
</g>
<defs>
<clipPath id="clip0">
<rect width="23.9766" height="24" fill="white" transform="translate(0 0.5)"/>
</clipPath>
</defs>
</svg>
