<svg width="24" height="25" viewBox="0 0 24 25" fill="none" xmlns="http://www.w3.org/2000/svg">
<path d="M12.5628 12.0309C12.7203 12.0536 12.8805 12.0128 13.008 11.9175C13.1354 11.8222 13.2198 11.6802 13.2426 11.5227C13.2654 11.3651 13.2246 11.205 13.1293 11.0775C13.034 10.95 12.8919 10.8656 12.7344 10.8429C11.4432 10.6569 9.90961 11.7093 9.90961 13.4385C9.90961 13.5976 9.97282 13.7502 10.0853 13.8627C10.1979 13.9752 10.3505 14.0385 10.5096 14.0385C10.6687 14.0385 10.8213 13.9752 10.9339 13.8627C11.0464 13.7502 11.1096 13.5976 11.1096 13.4385C11.1096 12.4785 11.958 11.9433 12.5628 12.0309Z" fill="black"/>
<path d="M4.79161 9.0608C1.89121 11.3504 1.81561 15.2312 3.17521 17.8448C4.08841 19.6016 5.84521 21.1652 8.48041 21.1652C9.13441 21.1652 9.60601 21.1472 9.97801 21.134C11.1024 21.0908 11.3064 21.0836 12.8724 21.71C14.9556 22.5428 17.1708 22.2956 19.0212 21.1388C20.6868 20.0972 21.6432 17.6804 21.4812 15.7184C21.384 14.54 21.4716 14.0792 21.5844 13.484C21.66 13.088 21.7464 12.6344 21.798 11.8712C21.9264 9.9572 21.024 8.1608 20.5332 7.304C20.0412 6.4472 19.2132 5.108 17.2644 3.878C15.6648 2.86759 12.6348 2.38399 10.2372 3.70279C8.48041 4.66879 7.60201 5.5472 6.54841 7.3028C6.14881 7.9688 5.76601 8.2904 4.79161 9.0608ZM17.88 13.058C17.88 13.7663 17.7405 14.4678 17.4694 15.1222C17.1983 15.7766 16.801 16.3713 16.3001 16.8721C15.7993 17.373 15.2046 17.7703 14.5502 18.0414C13.8958 18.3125 13.1944 18.452 12.486 18.452C11.7777 18.452 11.0762 18.3125 10.4218 18.0414C9.76738 17.7703 9.17275 17.373 8.67187 16.8721C8.17099 16.3713 7.77367 15.7766 7.5026 15.1222C7.23153 14.4678 7.09201 13.7663 7.09201 13.058C7.09201 11.6274 7.6603 10.2554 8.67187 9.24386C9.68344 8.23229 11.0554 7.664 12.486 7.664C13.9166 7.664 15.2886 8.23229 16.3001 9.24386C17.3117 10.2554 17.88 11.6274 17.88 13.058Z" fill="black"/>
</svg>
