<svg width="16" height="17" viewBox="0 0 16 17" fill="none" xmlns="http://www.w3.org/2000/svg">
<path d="M13.0501 0.857142H3.40726C1.81016 0.857142 0.514404 2.1529 0.514404 3.75V13.3929C0.514404 14.99 1.81016 16.2857 3.40726 16.2857H8.75101V10.3092H6.74208V7.97879H8.75101V6.26116C8.75101 4.27232 9.97646 3.1875 11.7544 3.1875C12.5981 3.1875 13.3314 3.24777 13.5423 3.2779V5.35714L12.3169 5.36719C11.3425 5.36719 11.1617 5.8192 11.1617 6.49219V7.97879H13.4619L13.1606 10.3092H11.1617V16.2857H13.0501C14.6472 16.2857 15.943 14.99 15.943 13.3929V3.75C15.943 2.1529 14.6472 0.857142 13.0501 0.857142Z" fill="#121212"/>
</svg>
