<svg width="25" height="15" viewBox="0 0 25 15" fill="none" xmlns="http://www.w3.org/2000/svg">
<path d="M15.3485 7.74219C15.3485 7.26004 15.2982 6.88839 15.2279 6.51674H8.27703V9.04799H12.4556C12.2848 10.1228 11.19 12.2221 8.27703 12.2221C5.76587 12.2221 3.71676 10.1429 3.71676 7.57143C3.71676 5 5.76587 2.92076 8.27703 2.92076C9.71341 2.92076 10.6677 3.53348 11.2101 4.0558L13.2089 2.13728C11.9232 0.931919 10.2659 0.208705 8.27703 0.208705C4.20895 0.208705 0.914307 3.50335 0.914307 7.57143C0.914307 11.6395 4.20895 14.9342 8.27703 14.9342C12.5259 14.9342 15.3485 11.9509 15.3485 7.74219ZM24.0572 6.51674H21.9578V4.41741H19.8485V6.51674H17.7491V8.62612H19.8485V10.7254H21.9578V8.62612H24.0572V6.51674Z" fill="#121212"/>
</svg>
