<svg width="645" height="550" viewBox="0 0 645 550" fill="none" xmlns="http://www.w3.org/2000/svg">
<rect width="645" height="645" transform="translate(0 -47)" fill="white"/>
<path fill-rule="evenodd" clip-rule="evenodd" d="M129.066 266.502C129.066 266.502 109.949 250.171 136.769 193.786C163.589 137.4 217.905 149.759 252.623 127.58C303.921 94.8105 282.895 69.1656 346.859 65.0319C427.395 59.8273 431.956 143.935 472.249 143.935C474.9 143.935 537.644 118.723 546.828 187.741C551.453 222.498 472.249 275.502 472.249 275.502C472.249 275.502 439.286 305.381 437.476 320.135C429.884 382.013 445.716 452.883 268.295 485.51C245.35 489.729 207.248 474.466 186.228 446.272C169.76 424.183 103.701 439.855 97.5343 367.235C94.4263 330.633 129.066 266.502 129.066 266.502Z" fill="#64FCD9"/>
<path d="M247.41 217.442C248.009 217.089 248.78 217.288 249.133 217.886L250.557 220.289C256.211 229.776 258.473 232.857 260.877 234.249C262.853 235.394 264.896 235.039 268.635 232.846L269.135 232.546C271.486 231.08 282.248 223.687 286.409 221.033C286.995 220.659 287.773 220.831 288.146 221.417C288.52 222.002 288.348 222.78 287.762 223.154L287.122 223.566C282.485 226.572 272.069 233.725 270.225 234.828C265.698 237.535 262.762 238.143 259.821 236.542L259.616 236.426C256.456 234.595 253.998 231.083 246.966 219.165C246.613 218.566 246.812 217.795 247.41 217.442Z" fill="white"/>
<path d="M267.782 231.982C268.47 231.89 269.103 232.374 269.195 233.062C269.624 236.262 270.65 239.471 272.279 242.692C272.593 243.312 272.344 244.068 271.724 244.382C271.104 244.696 270.348 244.447 270.034 243.827C268.281 240.361 267.169 236.883 266.702 233.396C266.61 232.708 267.093 232.075 267.782 231.982Z" fill="white"/>
<path fill-rule="evenodd" clip-rule="evenodd" d="M414.329 308.814C414.126 309.328 413.682 310.038 413.165 310.711L413.61 311.173L414.126 311.723L414.241 311.833C414.291 311.877 414.33 311.904 414.359 311.911C414.526 311.936 414.642 312.089 414.619 312.258C414.595 312.422 414.442 312.541 414.276 312.516C414.124 312.513 413.575 312.299 412.921 311.767C412.803 311.671 412.685 311.56 412.565 311.438C412.187 311.859 411.806 312.221 411.477 312.445C410.992 312.78 410.572 312.807 410.372 312.671C410.175 312.539 409.985 312.096 410.306 311.201C410.356 311.039 410.529 310.954 410.689 311.004C410.849 311.055 410.937 311.226 410.887 311.387C410.838 311.553 410.831 311.705 410.831 311.827L411.017 311.7C411.083 311.653 411.15 311.6 411.212 311.538C411.436 311.316 411.687 311.048 411.939 310.756C411.54 310.292 411.133 309.748 410.804 309.119C410.644 308.812 410.516 308.487 410.394 308.145C410.31 307.954 410.397 307.729 410.589 307.645C410.78 307.56 411.004 307.648 411.089 307.839C411.455 308.606 411.923 309.268 412.385 309.835L412.539 310.02C412.961 309.469 413.322 308.912 413.486 308.487C413.577 308.256 413.84 308.14 414.072 308.229C414.306 308.321 414.421 308.583 414.329 308.814Z" fill="white"/>
<path fill-rule="evenodd" clip-rule="evenodd" d="M227.158 150.121L226.391 149.982C222.109 149.186 218.827 148.209 212.694 146.083C211.991 145.839 211.618 145.071 211.862 144.368C212.106 143.664 212.874 143.292 213.577 143.536L215.105 144.062C220.485 145.898 223.503 146.739 227.626 147.466C241.497 149.912 251.883 142.791 252.733 129.209C252.779 128.466 253.419 127.901 254.162 127.948C254.905 127.994 255.47 128.634 255.423 129.377C254.467 144.652 242.537 152.832 227.158 150.121Z" fill="#00160A"/>
<path fill-rule="evenodd" clip-rule="evenodd" d="M261.818 164.666L262.592 166.386L264.356 166.892C264.452 166.92 264.507 167.019 264.479 167.115C264.471 167.144 264.455 167.171 264.433 167.192L263.093 168.527L263.168 170.447C263.172 170.546 263.095 170.63 262.995 170.634C262.962 170.635 262.929 170.627 262.899 170.61L261.382 169.746C261.335 169.719 261.277 169.715 261.227 169.735L259.604 170.38C259.511 170.417 259.407 170.371 259.37 170.279C259.358 170.248 259.354 170.214 259.36 170.181L259.702 168.29L258.56 166.782C258.5 166.703 258.516 166.59 258.595 166.53C258.62 166.511 258.648 166.5 258.679 166.495L260.496 166.239L261.502 164.644C261.555 164.56 261.666 164.535 261.75 164.588C261.78 164.607 261.803 164.634 261.818 164.666Z" fill="#00160A"/>
<path d="M439.107 121.438C439.8 121.389 440.402 121.91 440.451 122.603C440.5 123.296 439.979 123.898 439.286 123.948C434.322 124.302 430.423 126.225 428.692 130.984C428.587 131.27 428.501 131.546 428.431 131.809L428.384 131.99L428.46 131.831C430.641 127.379 434.846 124.285 439.72 123.5L440.039 123.452C440.727 123.356 441.362 123.836 441.458 124.524C441.554 125.212 441.074 125.848 440.386 125.944C435.859 126.576 431.986 129.585 430.296 133.901L430.187 134.19C429.384 136.396 427.457 137.454 426.216 135.566C425.46 134.415 425.51 132.37 426.327 130.123C428.402 124.424 433.162 121.862 439.107 121.438Z" fill="white"/>
<path d="M433.377 112.067C434.07 112.017 434.672 112.539 434.721 113.232C434.771 113.925 434.249 114.527 433.556 114.576C425.66 115.139 418.736 120.267 415.981 127.836C415.164 130.08 415.013 131.999 415.305 132.97L415.341 133.078L415.396 132.998C415.537 132.785 415.695 132.479 415.85 132.082L415.916 131.907C418.826 123.912 425.882 118.313 434.157 117.158C434.845 117.062 435.48 117.541 435.577 118.23C435.673 118.918 435.193 119.553 434.505 119.649C427.265 120.66 421.078 125.491 418.413 132.413L418.28 132.767C417.201 135.732 414.868 137.013 413.376 134.743C412.354 133.187 412.425 130.25 413.617 126.976C416.714 118.466 424.5 112.7 433.377 112.067Z" fill="white"/>
<path d="M425.656 99.5713C426.349 99.5219 426.95 100.044 427 100.737C427.049 101.429 426.528 102.031 425.835 102.081C414.573 102.884 404.697 110.198 400.768 120.994C399.431 124.668 399.319 127.782 400.049 129.076L400.116 129.186C400.224 129.35 400.188 129.355 400.216 129.332L400.232 129.321C400.602 129.118 401.091 128.426 401.537 127.279L401.626 127.043C405.639 116.017 415.369 108.295 426.782 106.702C427.47 106.606 428.106 107.086 428.202 107.774C428.298 108.462 427.818 109.097 427.13 109.193C416.767 110.64 407.914 117.577 404.136 127.51L403.99 127.904C402.594 131.74 399.794 133.276 398.013 130.567C396.686 128.547 396.783 124.587 398.404 120.133C402.676 108.397 413.413 100.445 425.656 99.5713Z" fill="white"/>
<path d="M411.871 87.828C412.553 87.6945 413.214 88.1389 413.347 88.8207C413.481 89.5025 413.036 90.1634 412.354 90.2969C402.159 92.2936 393.96 100.081 391.582 110.381C390.777 113.867 391.021 116.702 391.81 117.783L391.915 117.919L391.924 117.937L391.938 117.926C392.221 117.671 392.552 117.019 392.808 116.008L392.862 115.786C395.307 105.192 403.384 96.9924 413.7 94.2385C414.371 94.0594 415.061 94.4582 415.24 95.1295C415.419 95.8007 415.02 96.4901 414.349 96.6692C405.055 99.1503 397.753 106.468 395.409 115.95L395.313 116.352C394.451 120.088 391.974 121.872 389.968 119.507C388.5 117.777 388.14 114.106 389.131 109.815C391.734 98.5392 400.71 90.0138 411.871 87.828Z" fill="white"/>
<path d="M272.429 242.969L273.155 242.705C280.018 240.242 285.809 239.155 287.28 240.652C288.57 241.964 289.719 244.341 290.809 247.827C291.017 248.491 290.647 249.196 289.984 249.403C289.321 249.611 288.615 249.241 288.408 248.578C287.466 245.563 286.504 243.534 285.594 242.531L285.557 242.491L285.525 242.493C285.352 242.458 285.094 242.44 284.765 242.447C284.04 242.461 283.05 242.588 281.866 242.823C279.432 243.305 276.355 244.202 273.299 245.329C268.191 247.214 263.934 249.428 261.583 251.429C260.72 252.163 259.144 250.117 260.661 248.946C263.389 246.837 267.528 244.777 272.429 242.969Z" fill="white"/>
<path d="M268.975 219.205C268.975 223.401 273.412 227.944 274.356 228.203C275.026 228.386 263.482 235.908 263.482 235.908C259.31 236.457 256.861 232.931 256.861 227.678C256.861 226.984 268.975 218.511 268.975 219.205Z" fill="white"/>
<path fill-rule="evenodd" clip-rule="evenodd" d="M255.362 221.41C256.823 221.126 257.816 219.909 257.579 218.691C257.343 217.473 255.966 216.716 254.505 217C253.044 217.284 252.051 218.502 252.287 219.72C252.524 220.937 253.901 221.694 255.362 221.41Z" fill="#FFB61D"/>
<path d="M404.262 80.8525C404.946 80.7332 405.598 81.1914 405.717 81.8759C405.836 82.5603 405.378 83.2117 404.694 83.331C401.438 83.898 398.156 85.8682 394.772 89.0022C390.377 93.0716 387.474 98.6946 385.874 106.192C384.584 112.232 385.774 119.78 389.145 126.415C392.979 133.963 399.763 135.829 407.673 137.274C415.792 138.757 418.036 137.841 425.709 135.113L426.415 134.857C427.464 134.46 432.367 132.541 433.545 132.185C436.026 131.435 437.718 131.497 438.945 132.805C439.42 133.311 439.395 134.108 438.889 134.583C438.414 135.029 437.684 135.034 437.203 134.616L437.111 134.526C436.749 134.141 436 134.096 434.494 134.528L434.274 134.593C433.14 134.936 427.823 137.022 427.135 137.274C418.847 140.299 416.037 141.359 407.221 139.749C398.484 138.153 391.072 135.764 386.902 127.554C383.277 120.419 382 112.287 383.413 105.667C385.122 97.6649 388.285 91.5798 393.062 87.1562C396.802 83.6934 400.528 81.5029 404.262 80.8525Z" fill="white"/>
<path d="M463.439 180.945C456.267 180.578 450.62 186.117 450.561 193.551C450.511 199.815 454.039 204.974 458.886 205.973C460.847 206.377 464.61 205.891 467.401 204.326C471.639 202.053 474.879 197.38 475.287 193.398C475.953 186.912 470.702 181.316 463.439 180.945Z" fill="white"/>
<path d="M333.493 179.635C335.784 184.261 339.341 194.947 337.802 194.896C333.529 194.753 327.812 188.185 323.813 179.305L323.497 178.591C320.005 170.529 317.914 165.463 320.342 164.493C322.854 163.49 328.766 170.087 333.493 179.635Z" fill="white"/>
<path fill-rule="evenodd" clip-rule="evenodd" d="M320.342 164.392C322.854 163.389 328.853 169.685 333.58 179.233C335.871 183.859 337.424 188.297 337.83 191.48C337.83 191.48 330.094 175.18 325.376 169.21C323.564 166.917 320.342 164.392 320.342 164.392Z" fill="#E7EAEE"/>
<path d="M319.025 205.442C319.209 204.772 319.901 204.378 320.571 204.563C321.241 204.747 321.635 205.439 321.451 206.109C321.214 206.971 317.882 209.231 310.611 213.712L306.023 216.521C296.963 222.036 290.918 225.565 290.163 225.565C285.161 225.565 280.654 220.846 277.363 213.401C274.49 206.9 272.998 199.162 273.672 194.091C273.882 192.508 279.155 188.411 287.297 182.922L288.463 182.14C295.666 177.342 301.823 173.783 304.051 173.334C304.732 173.196 305.395 173.637 305.533 174.318C305.618 174.744 285.764 191.48 283.824 202.587C282.511 210.108 287.476 222.928 289.94 223.044L290.163 223.049C289.962 223.049 290.027 223.002 290.05 222.989L290.277 222.872C290.444 222.784 290.642 222.677 290.871 222.552L291.917 221.966C292.318 221.739 292.764 221.484 293.252 221.202L294.501 220.477C296.884 219.085 299.858 217.313 302.891 215.478L305.777 213.724C309.285 211.581 312.454 209.604 314.837 208.069L316.064 207.272C316.824 206.774 317.466 206.342 317.979 205.984L318.166 205.854C318.449 205.654 318.684 205.482 318.868 205.342C318.868 205.342 319.075 205.259 319.025 205.442Z" fill="white"/>
<path fill-rule="evenodd" clip-rule="evenodd" d="M321.519 180.338C318.479 173.589 317.136 167.404 318.154 163.659C316.315 164.243 314.015 165.294 311.733 166.603C308.699 168.344 306.291 170.289 306.235 170.712C305.649 175.126 307.899 183.715 311.64 191.371C315.64 199.562 320.4 204.822 324.085 204.822C324.437 204.822 325.447 204.614 326.459 204.26C327.898 203.758 329.247 203.025 330.351 202.065C330.901 201.588 331.469 201.049 332.063 200.447L332.778 199.707C333.2 199.261 333.636 198.781 334.316 198.019L335.262 196.962L335.303 196.917C330.563 195.185 325.606 189.08 321.898 181.163L321.519 180.338ZM303.741 170.38C304.133 167.435 315.158 161.069 320.19 160.658C320.401 160.526 320.626 160.412 320.866 160.316C325.224 158.574 331.864 166.033 337.19 176.528L337.555 177.257C339.959 182.112 341.599 186.797 342.046 190.301C342.58 194.489 341.367 197.266 338.188 197.408C338.103 197.738 337.888 198.014 337.602 198.18L337.553 198.205L337.429 198.329C337.304 198.457 337.157 198.616 336.931 198.868L335.368 200.613C334.8 201.238 334.399 201.662 333.854 202.214C333.217 202.859 332.603 203.442 332.001 203.965C329.566 206.08 325.966 207.338 324.085 207.338C323.087 207.338 322.078 207.106 321.068 206.663C319.988 207.789 316.665 209.981 310.611 213.712L306.023 216.521C296.963 222.036 290.919 225.565 290.163 225.565C288.45 225.565 286.795 225.011 285.227 223.984C285.212 223.994 285.198 224.004 285.182 224.014L284.542 224.426C282.314 225.871 278.75 228.273 275.445 230.502L275.444 230.502L275.237 230.642C275.665 233.697 276.638 236.76 278.16 239.833C283.563 238.163 287.842 237.598 289.077 238.855C290.367 240.167 291.517 242.544 292.606 246.03C292.814 246.694 292.444 247.399 291.781 247.606C291.118 247.814 290.412 247.444 290.205 246.781C289.263 243.766 288.301 241.737 287.391 240.734L287.354 240.694L287.322 240.696C287.149 240.661 286.891 240.643 286.562 240.65C285.837 240.664 284.847 240.791 283.663 241.026C281.229 241.508 278.152 242.405 275.097 243.532C268.112 246.109 262.721 249.302 261.613 251.721C261.289 252.429 261.33 253.466 261.718 255.052L261.79 255.338C261.848 255.563 261.909 255.786 261.989 256.068L262.443 257.675L262.471 257.783L262.504 257.908C262.679 258.581 262.275 259.267 261.603 259.442C260.93 259.617 260.243 259.213 260.069 258.54L259.846 257.727L259.473 256.414C259.431 256.259 259.393 256.115 259.355 255.97C258.766 253.697 258.671 252.104 259.326 250.674C260.437 248.248 263.911 245.736 268.749 243.451L267.697 240.733L267.437 240.045C267.038 238.974 266.575 237.521 266.29 236.46C262.511 238.497 259.878 238.838 257.241 237.402L257.036 237.286C256.514 236.984 256.012 236.636 255.505 236.212L240.762 245.167C240.899 245.462 241.037 245.76 241.177 246.06C241.839 247.478 240.672 248.483 238.882 249.264L238.689 249.347C237.151 249.984 235.763 250.13 234.937 249.223C231.509 245.46 227.879 236.459 229.832 234.4C230.207 234.005 231.196 233.416 233.068 232.434L233.217 232.357C233.256 232.33 233.296 232.305 233.337 232.283L247.119 224.816C247.15 224.799 247.182 224.784 247.215 224.769C246.363 223.362 245.43 221.794 244.398 220.045C244.345 219.959 244.303 219.868 244.273 219.775C244.211 219.586 244.197 219.389 244.225 219.2C244.252 219.023 244.316 218.85 244.417 218.696C244.474 218.609 244.542 218.528 244.621 218.456C247.455 215.769 251.316 212.967 256.159 209.95L256.746 209.586C258.842 208.294 263.091 205.87 266.702 203.811L266.703 203.81L266.704 203.81L266.704 203.81L266.705 203.81L266.705 203.809C269.506 202.212 271.923 200.834 272.65 200.373L272.827 200.256C273.09 200.064 273.403 199.988 273.703 200.021C273.464 197.839 273.443 195.811 273.672 194.091C273.882 192.508 279.155 188.411 287.297 182.922L288.463 182.14C295.287 177.594 301.173 174.161 303.667 173.43C303.6 172.304 303.622 171.277 303.741 170.38ZM303.943 175.981C301.499 176.874 295.38 180.507 288.703 185.008L287.634 185.733C284.629 187.783 281.854 189.782 279.757 191.412L279.174 191.868C278.239 192.61 277.482 193.249 276.933 193.761C276.657 194.018 276.44 194.238 276.287 194.413L276.18 194.539C276.157 194.564 276.151 194.554 276.159 194.475L276.166 194.422C276.163 194.443 276.161 194.46 276.159 194.475L276.126 194.745C274.916 205.361 282.593 222.698 289.94 223.043L290.113 223.048C290.127 223.048 290.144 223.049 290.163 223.049L290.113 223.048C289.974 223.04 290.029 223.001 290.05 222.989L290.277 222.872C290.444 222.784 290.642 222.677 290.871 222.552L291.918 221.966C292.318 221.739 292.764 221.484 293.252 221.202L294.501 220.477C296.884 219.085 299.858 217.313 302.892 215.478L305.777 213.724C309.285 211.581 312.455 209.604 314.837 208.069L316.064 207.272C316.824 206.774 317.466 206.342 317.98 205.984L318.166 205.854C318.438 205.662 318.666 205.496 318.846 205.358C315.606 202.981 312.415 198.589 309.583 192.889L309.379 192.476C306.649 186.888 304.675 180.836 303.943 175.981ZM274.05 202.46C273.143 203.031 270.465 204.56 267.486 206.261L267.486 206.261C263.956 208.277 260.002 210.535 258.066 211.728C253.494 214.546 249.807 217.159 247.07 219.619L247.977 221.149C251.944 227.805 254.241 231.307 256.089 233.286C255.475 231.83 255.157 229.982 255.157 227.665C255.157 227.558 255.17 227.454 255.195 227.355C255.073 226.873 255.245 226.344 255.67 226.032L256.527 225.395C257.041 225.007 257.885 224.362 258.845 223.628L258.848 223.626C260.952 222.018 263.61 219.987 264.559 219.307C267.542 217.17 269.741 215.971 271.743 215.555C272.699 215.356 273.442 215.922 273.658 216.798L273.693 216.958C273.743 217.218 273.752 217.475 273.751 218.035L273.75 218.213C273.74 220.306 273.947 221.514 274.834 222.909C275.441 223.864 276.332 224.735 277.574 225.515C277.704 225.597 277.814 225.699 277.902 225.814C279.906 224.468 281.783 223.217 283.167 222.319C280.985 220.207 279.02 217.15 277.363 213.401C275.82 209.909 274.675 206.06 274.05 202.46ZM339.55 190.62C339.144 187.437 337.591 182.999 335.3 178.373C330.573 168.825 324.311 161.648 321.8 162.652C319.371 163.622 320.005 170.529 323.497 178.591L323.813 179.305C327.812 188.185 333.529 194.753 337.802 194.896C339.341 194.947 339.942 193.691 339.55 190.62ZM248.514 226.896C250.697 230.424 252.291 232.755 253.68 234.377L239.704 242.866C238.272 239.727 236.991 236.806 235.749 233.838L248.317 227.028C248.388 226.99 248.454 226.946 248.514 226.896ZM275.747 240.627C274.391 237.822 273.454 235.009 272.939 232.19C271.133 233.406 269.562 234.458 268.551 235.114C268.724 235.982 269.368 238.042 269.922 239.507L270.954 242.164L271.052 242.424C272.067 241.995 273.127 241.577 274.226 241.172L274.952 240.908C275.219 240.812 275.484 240.718 275.747 240.627ZM275.702 227.294C274.414 226.401 273.426 225.385 272.71 224.258C271.552 222.435 271.248 220.878 271.235 218.526L271.234 218.315L271.056 218.382C269.781 218.877 268.259 219.773 266.346 221.123L266.024 221.352C265.113 222.005 262.522 223.985 260.432 225.582C259.27 226.47 258.262 227.24 257.785 227.597L257.673 227.68C257.675 231.865 258.72 233.785 260.663 234.717L260.818 234.789C261.281 234.993 261.612 235.097 262.556 235.355C262.575 235.36 262.593 235.366 262.612 235.372C263.591 235.042 264.714 234.492 266.055 233.706L266.555 233.406C267.662 232.715 270.635 230.711 273.905 228.505L273.906 228.505L273.912 228.501L273.922 228.494L273.925 228.492C274.511 228.097 275.106 227.695 275.702 227.294ZM233.525 235.041L233.718 235.5C235.054 238.668 236.442 241.805 238.018 245.226L238.631 246.554C238.43 246.689 238.166 246.832 237.875 246.959C237.458 247.141 237.035 247.269 236.717 247.312L236.615 247.322L236.462 247.138C235.271 245.672 233.889 243.181 232.891 240.704C232.359 239.385 231.98 238.175 231.809 237.245C231.739 236.866 231.707 236.548 231.71 236.307L231.717 236.148C231.72 236.109 231.72 236.089 231.71 236.086L231.748 236.061C231.961 235.914 232.504 235.596 233.311 235.157L233.525 235.041ZM250.878 232.27C250.391 231.774 249.595 231.766 249.099 232.253C248.226 233.108 247.004 233.905 244.869 235.091L242.696 236.297C242.122 236.624 241.652 236.906 241.226 237.182C240.87 237.412 240.552 237.635 240.267 237.856C239.717 238.281 239.616 239.071 240.04 239.62C240.465 240.17 241.255 240.271 241.805 239.847C242.032 239.671 242.294 239.488 242.595 239.292C242.873 239.112 243.178 238.925 243.532 238.719L244.224 238.322L246.432 237.099C248.552 235.909 249.83 235.059 250.86 234.049C251.356 233.562 251.364 232.766 250.878 232.27Z" fill="#00160A"/>
<path d="M222.74 360.012C229.03 395.084 252.607 421.45 282.692 427.666C288.215 428.807 297.777 428.957 307.68 427.675C320.438 426.024 332.854 422.236 343.774 416.098C373.771 399.975 396.533 367.072 399.484 338.269C402.075 312.968 392.409 289.594 374.911 272.92C374.911 272.92 319.944 299.918 292.962 315.264C269.482 328.617 222.74 360.012 222.74 360.012Z" fill="white"/>
<path d="M350.751 255.426C339.476 249.863 325.35 245.469 311.499 244.761C260.696 242.163 220.741 282.747 220.325 335.094C220.325 335.094 277.025 298.978 306.483 281.553C321.138 272.884 350.751 255.426 350.751 255.426Z" fill="white"/>
<path fill-rule="evenodd" clip-rule="evenodd" d="M455.245 228.748C455.074 237.494 445.82 252.05 430.943 268.523C420.166 280.455 407.626 291.99 397.112 299.762L396.457 300.241L396.892 302.173C399.449 313.379 402.787 325.561 401.526 337.846C398.465 367.662 375.142 401.302 344.323 417.83C333.082 424.135 320.305 428.024 307.199 429.717L305.95 429.871C296.177 431.023 286.826 430.831 281.111 429.653C258.929 425.08 240.149 409.574 228.795 387.133C228.757 387.057 228.727 386.98 228.706 386.902C227.211 387.754 225.2 388.707 224.281 389.019L221.765 389.869C194.647 398.99 167.763 406.621 156.78 401.858C152.599 400.045 151.17 396.558 152.919 391.874C154.618 387.321 159.33 381.454 167.234 374.154L167.669 373.754C175.159 366.888 191.793 354.341 217.57 336.114L217.577 335.779C218.835 281.77 260.787 240.597 313.521 243.958C329.65 244.986 342.495 250.718 348.911 254.237L351.732 252.723C378.195 238.574 399.427 228.628 415.627 222.675C442.269 212.884 455.444 217.462 455.245 228.748ZM416.495 228.476C386.705 239.423 339.624 264.044 274.074 303.648L272.082 304.853C221.04 335.751 187.241 359.226 169.369 375.609L168.488 376.422L167.653 377.205C154.237 389.881 151.859 396.982 157.781 399.55C167.92 403.947 195.146 396.535 221.81 387.789L224.281 386.974C226.659 386.186 228.236 385.734 229.212 385.525C229.254 385.495 229.301 385.467 229.35 385.442C229.684 385.274 230.057 385.268 230.379 385.395C230.449 385.408 230.495 385.43 230.518 385.46C230.736 385.577 230.92 385.76 231.04 385.997C242.062 407.782 260.225 421.058 281.619 425.469C287.173 426.614 296.542 426.782 306.292 425.576L306.877 425.502C319.681 423.848 332.152 421.772 343.113 415.624C373.23 399.472 396.049 366.559 399.023 337.589C400.294 325.207 398.672 313.054 394.36 301.742C394.004 301.991 393.651 302.235 393.301 302.474C392.639 302.925 392.886 302.194 394.042 300.28C394.103 300.031 394.241 299.803 394.439 299.632L394.795 299.068C394.92 298.872 395.051 298.667 395.188 298.455L396.679 297.197C410.731 285.312 421.53 275.192 429.076 266.837L429.937 265.878C443.899 250.254 452.577 236.453 452.721 228.701C452.878 220.197 441.658 219.229 416.495 228.476ZM290.179 387.559C293.554 397.875 288.448 404.509 279.46 404.852C271.155 405.169 263.593 399.936 263.978 392.5C264.311 386.073 268.712 379.202 274.13 376.679C280.682 373.627 286.832 377.329 290.179 387.559ZM275.457 379.53C271.122 381.549 267.393 387.37 267.119 392.663C266.846 397.933 272.672 401.964 279.34 401.71C286.313 401.444 289.892 396.793 287.19 388.537C284.378 379.941 280.101 377.367 275.457 379.53ZM358.802 366.538C363.108 374.676 361.981 382.67 355.359 386.254L355.173 386.351L355.077 386.448C346.197 395.241 335.104 396.308 327.869 389.934L327.622 389.711C319.288 382.078 321.274 368.963 334.534 358.682C343.067 352.066 353.491 356.502 358.802 366.538ZM336.185 360.812C324.147 370.146 322.455 381.323 329.442 387.724C334.453 392.314 341.858 392.568 348.773 388.112L348.908 388.023L348.858 388.012C348.379 387.886 347.995 387.499 347.886 386.996L347.864 386.868C347.777 386.129 348.305 385.458 349.044 385.371C350.735 385.17 352.202 384.762 353.446 384.178L353.616 384.095L353.822 383.882C354.634 383.028 355.426 382.099 356.194 381.094L356.449 380.756C356.737 380.37 357.192 380.182 357.639 380.218L357.674 380.222L357.692 380.188C359.307 376.997 358.924 372.673 356.561 368.07L356.419 367.799C351.801 359.072 343.168 355.398 336.185 360.812ZM416.345 264.083C415.653 266.544 413.544 269.922 410.313 273.921C404.679 280.893 396.216 289.008 388.818 294.558L390.459 292.753C390.443 292.738 390.429 292.719 390.417 292.697L389.851 291.657C386.149 284.9 382.025 278.235 375.36 272.801C358.107 279.915 338.325 289.638 320.302 299.805L314.395 303.144C270.892 327.787 248.003 342.541 223.528 360.678C224.452 364.838 225.616 368.898 227.01 372.831C227.229 373.449 224.37 375.759 223.847 375.474C218.965 378.745 211.319 381.121 206.966 381.245C202.724 381.365 200.273 379.648 201.536 376.224C202.592 373.359 206.571 369.274 213.731 363.799L214.547 363.179L216.198 361.939C243.146 341.764 269.824 325.392 319.066 297.614L321.127 296.457C354.901 277.605 394.012 260.62 411.926 259.053C415.608 258.731 417.278 260.769 416.345 264.083ZM220.251 363.118L214.605 367.379C209.568 371.198 205.937 374.023 203.975 375.835L203.831 375.969C201.437 378.215 204.147 378.808 206.895 378.73C211.057 378.612 217.432 375.456 222.829 372.584C221.832 369.494 220.971 366.335 220.251 363.118ZM308.568 349.46C309.241 349.631 309.648 350.315 309.477 350.989C309.306 351.662 308.622 352.069 307.948 351.898C304.566 351.039 302.568 351.369 301.919 352.28C301.489 352.885 301.727 353.915 302.532 354.573C303.16 355.087 303.997 355.333 304.573 355.207C305.073 355.098 305.354 354.712 305.354 353.746C305.354 353.052 305.917 352.488 306.612 352.488C307.307 352.488 307.87 353.052 307.87 353.746C307.87 355.847 306.819 357.293 305.108 357.665C303.732 357.965 302.13 357.494 300.939 356.52C299.18 355.081 298.606 352.597 299.87 350.821C301.255 348.875 304.291 348.374 308.568 349.46ZM253.311 344.842C255.251 345.423 256.086 346.913 256.35 349.148L256.376 349.39L256.408 349.757C256.413 349.819 256.417 349.882 256.421 349.949L256.487 351.226L256.507 351.513C256.517 351.64 256.528 351.744 256.541 351.835L256.575 352.028L256.595 352.112L256.631 352.143C257.019 352.523 257.122 353.12 256.871 353.612L256.807 353.723C256.43 354.307 255.651 354.475 255.068 354.099C254.264 353.58 254.082 353.047 253.984 351.517L253.904 350.02C253.895 349.884 253.885 349.767 253.872 349.634C253.729 348.169 253.372 347.486 252.589 347.252C250.392 346.594 249.131 347.266 248.731 348.734C248.376 350.043 248.89 351.418 249.792 351.801L250.02 351.885C250.61 352.137 250.922 352.801 250.723 353.424C250.512 354.085 249.804 354.451 249.142 354.24C246.747 353.476 245.609 350.63 246.304 348.074C247.079 345.221 249.777 343.783 253.311 344.842ZM344.066 325.58C347.549 330.478 346.901 336.709 341.312 339.528C340.692 339.841 339.936 339.592 339.623 338.972C339.31 338.352 339.559 337.595 340.179 337.282C344.226 335.241 344.688 330.795 342.015 327.038C339.419 323.389 335.806 322.987 333.323 326.931C330.69 331.112 330.881 333.566 332.777 334.671C334.281 335.549 336.704 335.364 337.37 334.647L337.435 334.568C337.838 334.002 338.623 333.87 339.189 334.273C339.755 334.676 339.887 335.461 339.484 336.027C338.086 337.992 334.096 338.352 331.509 336.845C328.199 334.914 327.882 330.85 331.194 325.59C334.74 319.959 340.524 320.601 344.066 325.58ZM291.912 318.367C292.566 318.367 293.103 318.866 293.164 319.504L293.17 319.625C293.17 319.847 293.376 320.094 294.114 320.636L294.812 321.137C295.574 321.692 295.941 322.037 296.288 322.585C297.081 323.839 297.531 325.116 297.531 326.617C297.531 330.462 291.755 335.691 285.451 338.018C277.894 340.807 271.702 338.738 270.018 330.984C269.87 330.305 270.301 329.635 270.98 329.487C271.659 329.34 272.329 329.771 272.476 330.449C273.784 336.468 278.298 337.976 284.58 335.657C290.004 333.655 295.015 329.119 295.015 326.617C295.015 325.65 294.72 324.813 294.161 323.93L294.086 323.823C293.958 323.662 293.757 323.487 293.397 323.219L292.567 322.621C291.188 321.604 290.654 320.918 290.654 319.625C290.654 318.93 291.217 318.367 291.912 318.367ZM297.817 248.645L297.022 248.735C254.098 253.897 221.896 288.229 220.14 334.3L224.746 331.059C237.965 321.78 253.31 311.18 270.779 299.261L274.183 297.203C284.345 291.072 294.062 285.302 303.338 279.889C303.168 279.593 303.121 279.228 303.236 278.878C303.884 276.898 304.484 275.568 305.582 274.236C309.019 270.066 313.727 268.03 317.063 270.648C317.392 270.906 317.557 271.294 317.544 271.682L320.508 269.991C329.839 264.679 338.669 259.773 347.003 255.266L343.748 254.34C338.921 252.981 332.915 251.369 326.933 250.129C326.988 254.11 324.008 257.288 319.058 259.475C314.85 261.333 309.366 262.333 305.467 262.101C298.172 261.666 294.066 255.268 297.817 248.645ZM373.114 303.274C376.192 311.684 373.653 319.332 365.966 319.282C355.015 319.21 344.321 309.648 346.05 301.082C346.821 297.26 349.694 293.88 354.689 292.193C362.668 289.499 369.98 294.713 373.114 303.274ZM355.494 294.577C351.366 295.971 349.113 298.622 348.516 301.58C347.144 308.379 356.454 316.704 365.983 316.766C371.441 316.801 373.318 311.15 370.752 304.139C368.036 296.72 361.965 292.391 355.494 294.577ZM262.997 264.798L263.087 264.927L263.692 265.89C263.989 266.379 264.254 266.858 264.507 267.375C267.293 273.072 267.221 280.539 262.507 290.905C260.371 295.6 254.929 301.911 250.178 305.677C244.111 310.486 239.581 311.578 234.174 310.984L232.569 310.796L232.374 310.778C232.266 310.77 232.198 310.769 232.122 310.772L232.012 310.776C231.929 310.78 231.9 310.776 231.895 310.765L231.895 310.757L231.854 310.822C231.49 311.345 230.781 311.517 230.212 311.2C229.604 310.863 229.386 310.097 229.724 309.49C230.176 308.677 230.932 308.309 231.893 308.263C232.148 308.251 232.417 308.26 232.738 308.287L233.113 308.323L234.151 308.449C239.076 309.046 242.995 308.16 248.615 303.705C253.078 300.168 258.266 294.152 260.216 289.863C264.629 280.163 264.693 273.481 262.247 268.481C262.084 268.148 261.915 267.831 261.73 267.514L261.467 267.074L260.94 266.24C260.571 265.651 260.748 264.875 261.337 264.506C261.889 264.16 262.606 264.294 262.997 264.798ZM412.145 261.559C404.103 262.263 391.497 266.235 376.964 272.144L377.388 272.52C381.433 276.149 389.593 284.753 392.148 290.891L394.692 288.07C400.97 281.087 405.524 275.844 408.356 272.34L408.929 271.621C411.636 268.187 413.385 265.317 413.924 263.402L414 263.111C414.336 261.729 413.947 261.402 412.145 261.559ZM291.696 265.646C294.827 267.159 296.098 270.529 294.038 273.584C293.65 274.16 292.868 274.312 292.292 273.924C291.716 273.536 291.564 272.754 291.952 272.178C293.085 270.497 292.446 268.802 290.601 267.911C288.659 266.971 286.531 267.512 285.432 269.562C284.42 271.451 284.351 274.008 285.159 275.683C285.868 277.154 286.901 277.436 288.476 276.25C289.031 275.832 289.82 275.943 290.238 276.498C290.655 277.053 290.544 277.842 289.989 278.26C287.118 280.421 284.277 279.645 282.893 276.777C281.733 274.372 281.825 270.967 283.215 268.374C284.987 265.066 288.6 264.149 291.696 265.646ZM307.523 275.836C306.937 276.548 306.517 277.298 306.129 278.262C309.371 276.379 312.557 274.539 315.689 272.743L315.598 272.69L315.51 272.627C313.59 271.12 310.204 272.584 307.523 275.836ZM302.159 248.26L301.058 248.338L300.985 248.431C296.636 253.926 298.311 258.386 304.25 259.02C308.515 259.475 319.837 256.31 321.165 255.2C322.458 254.118 324.094 251.631 324.346 249.615C320.504 248.893 316.745 248.362 313.392 248.19C309.966 248.015 306.587 248.019 303.264 248.195L302.159 248.26Z" fill="#00160A"/>
<path d="M415.732 228.788C442.373 218.998 441.763 221.902 416.599 231.149C386.809 242.096 274.358 310.691 274.358 310.691C223.316 341.589 219.497 336.82 268.971 306.752L272.021 304.903C272.595 304.555 328.921 269.005 369.17 249.986C373.699 247.846 412.699 229.902 415.732 228.788Z" fill="white"/>
<path fill-rule="evenodd" clip-rule="evenodd" d="M461.733 180.049C453.478 179.627 447.034 186.042 446.967 194.436C446.911 201.468 450.946 207.44 456.727 208.631C458.25 208.945 462.642 208.945 466.453 206.808L466.768 206.634C471.573 203.913 474.841 198.738 475.278 194.48C476.053 186.932 469.989 180.471 461.733 180.049ZM448.764 194.45C448.765 194.396 448.765 194.342 448.766 194.288C448.818 194.271 448.868 194.25 448.917 194.223C455.39 190.737 459.386 188.08 460.981 186.161C462.034 184.894 462.548 183.466 462.506 181.913C463.593 182.033 464.629 182.272 465.6 182.613C465.595 182.66 465.592 182.707 465.594 182.756C465.673 184.99 465.077 186.776 463.811 188.166C462.356 189.764 460.593 191.285 458.589 192.719C456.447 194.252 454.146 195.606 451.845 196.765C451.308 197.036 450.797 197.282 450.318 197.505L449.624 197.82C449.524 197.864 449.432 197.904 449.347 197.941L449.14 198.028C448.886 196.895 448.754 195.694 448.764 194.45ZM449.645 199.765C450.214 201.343 451.039 202.742 452.059 203.88L452.596 203.572C461.042 198.681 466.286 194.84 468.27 192.13C470.277 189.39 470.992 187.286 470.543 185.856C470.533 185.822 470.524 185.788 470.518 185.754C469.634 184.826 468.581 184.028 467.395 183.399C467.345 185.774 466.594 187.779 465.14 189.376C463.593 191.075 461.736 192.677 459.635 194.181C457.411 195.772 455.032 197.172 452.654 198.37C451.96 198.72 451.307 199.031 450.706 199.304L450.006 199.614L449.645 199.765ZM456.372 206.691C455.311 206.373 454.322 205.853 453.433 205.164C462.127 200.134 467.538 196.172 469.72 193.192C471.074 191.343 471.939 189.681 472.291 188.197C472.728 189.014 473.06 189.885 473.272 190.795C473.227 190.887 473.196 190.989 473.185 191.098C472.966 193.199 471.883 195.284 469.904 197.36C468.004 199.353 463.903 202.228 457.637 205.946L456.372 206.691ZM459.409 206.981C461.338 206.859 463.698 206.293 465.603 205.224C469.149 203.323 471.995 199.742 473.071 196.292C472.551 197.071 471.928 197.841 471.204 198.6C469.253 200.647 465.332 203.429 459.409 206.981ZM449.287 191.977L448.967 192.15C449.987 186.213 454.731 181.952 460.705 181.829C460.768 182.996 460.405 184.042 459.599 185.012C458.296 186.58 454.838 188.926 449.287 191.977Z" fill="#00160A"/>
<path fill-rule="evenodd" clip-rule="evenodd" d="M526.6 162.831C526.768 162.85 526.884 163.002 526.866 163.168C526.865 163.414 526.707 163.546 526.495 163.632C526.303 163.709 525.998 163.68 525.82 163.704C523.874 163.854 522.345 162.422 521.672 160.577C521.026 158.804 521.198 156.684 522.371 155.377C522.506 155.223 522.74 155.207 522.894 155.342C523.048 155.477 523.924 155.712 523.789 155.866C522.821 156.995 522.167 157.681 523.079 160.361C523.992 163.042 526.475 162.817 526.6 162.831Z" fill="#E7EAEE"/>
<path fill-rule="evenodd" clip-rule="evenodd" d="M216.78 182.023C216.269 181.672 215.57 181.802 215.218 182.314C214.867 182.825 214.997 183.524 215.509 183.875C216.07 184.261 216.567 184.617 217.005 184.948C216.533 185.323 216.062 185.754 215.572 186.243L214.579 187.252C214.142 187.693 214.145 188.404 214.586 188.84C215.026 189.277 215.737 189.274 216.174 188.833L217.366 187.629C217.851 187.157 218.305 186.762 218.762 186.433C219.778 187.44 220.087 188.178 220.104 188.912L220.104 189.1L220.11 189.215C220.167 189.781 220.645 190.223 221.227 190.223C221.847 190.223 222.35 189.721 222.35 189.1L222.35 188.879C222.329 187.735 221.925 186.647 220.838 185.403C221.556 185.19 222.365 185.07 223.346 185.019C223.966 184.986 224.442 184.458 224.41 183.838C224.377 183.219 223.849 182.743 223.229 182.775C221.526 182.864 220.202 183.148 219.023 183.688C218.53 183.285 217.973 182.863 217.342 182.416L216.78 182.023Z" fill="#00160A"/>
<path fill-rule="evenodd" clip-rule="evenodd" d="M385.071 428.129L385.85 428.132C390.205 428.173 393.608 428.565 400.016 429.594C400.751 429.712 401.251 430.404 401.133 431.139C401.015 431.873 400.324 432.374 399.589 432.256L397.489 431.925C392.186 431.111 389.13 430.824 385.071 430.824C370.986 430.824 361.994 439.641 363.516 453.164C363.599 453.904 363.067 454.571 362.327 454.654C361.588 454.738 360.92 454.206 360.837 453.466C359.126 438.257 369.455 428.129 385.071 428.129ZM395.98 433.571L395.848 433.455C395.721 433.346 395.526 433.361 395.419 433.489C395.308 433.617 395.325 433.809 395.452 433.918L395.587 434.033C395.714 434.142 395.905 434.128 396.016 434C396.123 433.872 396.111 433.68 395.98 433.571ZM371.556 436.39C371.073 436.001 370.366 436.078 369.977 436.561C368.409 438.514 367.265 440.416 366.552 442.273C365.858 444.079 365.621 447.114 365.801 451.453L365.845 452.369C365.877 452.989 366.406 453.464 367.025 453.432C367.645 453.399 368.12 452.871 368.088 452.251C367.849 447.718 368.052 444.63 368.648 443.079C369.273 441.454 370.297 439.749 371.728 437.969C372.117 437.485 372.04 436.778 371.556 436.39ZM383.814 432.674C384.365 432.388 385.042 432.604 385.328 433.154C385.613 433.705 385.398 434.383 384.847 434.668C382.566 435.85 380.824 437.831 379.609 440.655C378.306 443.687 377.24 446.391 376.41 448.768C376.206 449.354 375.566 449.663 374.98 449.459C374.394 449.255 374.085 448.614 374.29 448.028C375.138 445.598 376.223 442.845 377.546 439.768C378.957 436.485 381.05 434.105 383.814 432.674ZM390.343 432.615C389.935 432.148 389.225 432.101 388.758 432.51C386.884 434.152 385.443 435.646 384.435 437.001C383.434 438.346 382.262 440.358 380.906 443.049C380.627 443.603 380.849 444.278 381.403 444.558C381.957 444.837 382.632 444.614 382.912 444.06C384.215 441.475 385.328 439.564 386.237 438.342C387.139 437.13 388.474 435.745 390.239 434.199C390.705 433.791 390.752 433.081 390.343 432.615ZM386.243 445.298C385.776 445.707 385.067 445.66 384.658 445.194C384.249 444.727 384.296 444.017 384.762 443.609C386.527 442.063 387.862 440.679 388.764 439.466C389.673 438.244 390.786 436.334 392.089 433.748C392.369 433.194 393.044 432.971 393.598 433.251C394.152 433.53 394.375 434.205 394.095 434.759C392.739 437.45 391.567 439.462 390.566 440.807C389.558 442.162 388.117 443.656 386.243 445.298ZM377.739 433.589C377.229 433.237 376.529 433.365 376.177 433.875C373.666 437.512 372.062 440.229 371.354 442.074C370.642 443.926 370.15 446.423 369.865 449.579C369.809 450.196 370.265 450.742 370.883 450.798C371.5 450.854 372.046 450.399 372.102 449.781C372.37 446.814 372.824 444.509 373.45 442.88C374.034 441.36 375.394 439.017 377.521 435.888L378.025 435.152C378.378 434.641 378.25 433.942 377.739 433.589Z" fill="#00160A"/>
<path fill-rule="evenodd" clip-rule="evenodd" d="M356.418 426.966L357.192 428.686L358.956 429.192C359.052 429.22 359.107 429.319 359.079 429.415C359.071 429.444 359.055 429.471 359.033 429.492L357.693 430.827L357.768 432.747C357.772 432.846 357.695 432.93 357.595 432.934C357.562 432.935 357.529 432.927 357.5 432.91L355.982 432.046C355.935 432.019 355.877 432.015 355.827 432.035L354.204 432.68C354.111 432.717 354.007 432.672 353.97 432.579C353.958 432.548 353.954 432.514 353.96 432.481L354.302 430.59L353.16 429.082C353.1 429.003 353.116 428.89 353.195 428.83C353.22 428.812 353.248 428.8 353.279 428.795L355.096 428.539L356.102 426.944C356.155 426.86 356.266 426.835 356.35 426.888C356.38 426.907 356.403 426.934 356.418 426.966Z" fill="#00160A"/>
<path fill-rule="evenodd" clip-rule="evenodd" d="M418.915 186.178C419.328 186.545 419.844 187.206 420.299 187.921L420.885 187.661L421.578 187.364C421.718 187.3 421.808 187.25 421.835 187.21C421.915 187.061 422.1 187.005 422.25 187.084C422.396 187.162 422.455 187.347 422.375 187.495C422.321 187.636 421.931 188.079 421.208 188.512C421.077 188.59 420.932 188.663 420.777 188.734C421.044 189.233 421.253 189.715 421.351 190.101C421.5 190.671 421.381 191.074 421.186 191.216C420.994 191.357 420.514 191.383 419.782 190.775C419.647 190.673 419.626 190.481 419.728 190.348C419.83 190.215 420.021 190.191 420.156 190.293C420.295 190.396 420.435 190.454 420.549 190.496L420.493 190.278C420.472 190.2 420.445 190.119 420.408 190.039C420.277 189.753 420.11 189.425 419.923 189.089C419.35 189.305 418.699 189.501 417.995 189.595C417.653 189.641 417.303 189.65 416.94 189.647C416.731 189.661 416.55 189.503 416.536 189.293C416.523 189.085 416.681 188.904 416.89 188.89C417.736 188.808 418.519 188.595 419.209 188.354L419.436 188.273C419.062 187.689 418.662 187.158 418.319 186.859C418.133 186.694 418.114 186.408 418.277 186.22C418.444 186.032 418.729 186.013 418.915 186.178Z" fill="#00160A"/>
<path fill-rule="evenodd" clip-rule="evenodd" d="M171.617 338.23C170.442 338.307 168.579 338.606 167.057 339.21C165.754 339.727 165.754 353.789 170.207 354.91C174.635 356.386 179.476 354.432 178.898 346.907C178.887 346.749 178.76 346.321 178.614 345.831C178.4 345.112 178.146 344.26 178.161 343.926C178.221 342.745 177.911 341.749 177.092 341.123C176.209 339.252 174.479 338.045 171.617 338.23ZM170.979 351.487C168.8 349.858 168.877 342.258 171.364 341.751C172.912 342.941 174.325 344.659 174.801 347.969C174.268 349.792 173.142 350.847 172.157 351.769C172.052 351.868 171.948 351.965 171.847 352.061C171.566 351.902 171.277 351.707 170.979 351.487Z" fill="white"/>
<path fill-rule="evenodd" clip-rule="evenodd" d="M168.333 347.056C168.135 345.874 168.27 344.551 168.864 343.138C169.134 342.498 169.843 341.977 170.729 341.627C171.766 341.218 173.033 341.015 173.833 340.962C175.781 340.837 176.958 341.652 177.558 342.918C178.115 343.34 178.326 344.014 178.285 344.813C178.267 345.193 178.768 346.567 178.785 346.829C179.177 351.918 175.882 353.242 172.869 352.244C171.724 352.826 170.62 352.923 169.789 352.305C169.044 351.753 168.472 350.59 168.341 348.539C168.306 348.01 168.303 347.516 168.333 347.056ZM173.676 343.705C171.948 344.045 171.876 349.034 173.385 350.098C173.591 350.241 173.792 350.369 173.986 350.473C174.716 349.815 175.26 349.283 175.569 348.195C175.877 347.107 174.748 344.483 173.676 343.705Z" fill="#FFB61D"/>
<path fill-rule="evenodd" clip-rule="evenodd" d="M286.292 471.679C285.781 471.327 285.081 471.457 284.73 471.969C284.379 472.48 284.509 473.179 285.02 473.53C285.582 473.916 286.079 474.272 286.517 474.603C286.045 474.979 285.573 475.409 285.084 475.898L284.09 476.907C283.654 477.348 283.657 478.059 284.097 478.496C284.538 478.932 285.249 478.929 285.686 478.489L286.877 477.284C287.362 476.812 287.817 476.417 288.274 476.088C289.29 477.095 289.599 477.833 289.616 478.567L289.616 478.755L289.621 478.87C289.679 479.437 290.157 479.879 290.739 479.879C291.359 479.879 291.862 479.376 291.862 478.755L291.862 478.535C291.841 477.39 291.437 476.302 290.35 475.059C291.068 474.845 291.877 474.725 292.858 474.674C293.478 474.641 293.954 474.113 293.921 473.494C293.889 472.874 293.36 472.398 292.741 472.431C291.038 472.519 289.714 472.803 288.535 473.343C288.042 472.94 287.484 472.518 286.854 472.071L286.292 471.679Z" fill="#00160A"/>
<path fill-rule="evenodd" clip-rule="evenodd" d="M286.292 471.679C285.781 471.327 285.081 471.457 284.73 471.969C284.379 472.48 284.509 473.179 285.02 473.53C285.582 473.916 286.079 474.272 286.517 474.603C286.045 474.979 285.573 475.409 285.084 475.898L284.09 476.907C283.654 477.348 283.657 478.059 284.097 478.496C284.538 478.932 285.249 478.929 285.686 478.489L286.877 477.284C287.362 476.812 287.817 476.417 288.274 476.088C289.29 477.095 289.599 477.833 289.616 478.567L289.616 478.755L289.621 478.87C289.679 479.437 290.157 479.879 290.739 479.879C291.359 479.879 291.862 479.376 291.862 478.755L291.862 478.535C291.841 477.39 291.437 476.302 290.35 475.059C291.068 474.845 291.877 474.725 292.858 474.674C293.478 474.641 293.954 474.113 293.921 473.494C293.889 472.874 293.36 472.398 292.741 472.431C291.038 472.519 289.714 472.803 288.535 473.343C288.042 472.94 287.484 472.518 286.854 472.071L286.292 471.679Z" fill="#00160A"/>
<path fill-rule="evenodd" clip-rule="evenodd" d="M324.677 440.909L325.451 442.629L327.215 443.135C327.311 443.163 327.366 443.262 327.338 443.358C327.33 443.387 327.314 443.414 327.292 443.436L325.952 444.77L326.027 446.69C326.031 446.79 325.954 446.873 325.855 446.877C325.821 446.878 325.788 446.87 325.759 446.854L324.241 445.989C324.194 445.962 324.137 445.958 324.086 445.979L322.463 446.623C322.371 446.66 322.266 446.615 322.229 446.523C322.217 446.491 322.214 446.457 322.22 446.424L322.561 444.533L321.42 443.025C321.36 442.946 321.375 442.833 321.454 442.773C321.479 442.755 321.508 442.743 321.538 442.738L323.355 442.483L324.361 440.887C324.414 440.803 324.525 440.778 324.609 440.831C324.639 440.85 324.663 440.877 324.677 440.909Z" fill="#00160A"/>
<path fill-rule="evenodd" clip-rule="evenodd" d="M227.308 429.091L228.623 430.443L230.455 430.315C230.554 430.308 230.639 430.383 230.646 430.482C230.648 430.513 230.643 430.543 230.63 430.571L229.826 432.283L230.554 434.062C230.591 434.154 230.547 434.259 230.456 434.297C230.424 434.309 230.39 434.313 230.357 434.307L228.636 434.014C228.582 434.005 228.527 434.021 228.486 434.057L227.181 435.218C227.107 435.284 226.994 435.277 226.928 435.203C226.905 435.178 226.891 435.147 226.885 435.114L226.559 433.22L224.97 432.194C224.887 432.14 224.863 432.029 224.917 431.945C224.934 431.919 224.957 431.898 224.984 431.884L226.604 431.022L227.004 429.179C227.025 429.082 227.12 429.02 227.217 429.041C227.252 429.049 227.283 429.066 227.308 429.091Z" fill="#00160A"/>
<path fill-rule="evenodd" clip-rule="evenodd" d="M206.765 305.926L207.539 307.646L209.303 308.152C209.399 308.18 209.454 308.279 209.426 308.375C209.418 308.404 209.402 308.431 209.38 308.453L208.04 309.787L208.115 311.707C208.119 311.807 208.042 311.89 207.943 311.894C207.909 311.895 207.876 311.887 207.847 311.871L206.329 311.006C206.282 310.979 206.225 310.975 206.174 310.996L204.551 311.64C204.459 311.677 204.354 311.632 204.317 311.539C204.305 311.508 204.302 311.474 204.308 311.441L204.649 309.55L203.508 308.042C203.448 307.963 203.463 307.85 203.542 307.79C203.567 307.772 203.595 307.76 203.626 307.755L205.443 307.5L206.449 305.904C206.502 305.82 206.613 305.795 206.697 305.848C206.727 305.867 206.751 305.894 206.765 305.926Z" fill="#00160A"/>
<path fill-rule="evenodd" clip-rule="evenodd" d="M206.585 307.639L206.914 308.37L207.663 308.585C207.704 308.596 207.727 308.639 207.716 308.679C207.712 308.692 207.705 308.703 207.696 308.712L207.127 309.279L207.159 310.095C207.16 310.137 207.127 310.172 207.085 310.174C207.071 310.175 207.057 310.171 207.045 310.164L206.4 309.797C206.38 309.786 206.356 309.784 206.334 309.792L205.645 310.066C205.605 310.082 205.561 310.063 205.545 310.024C205.54 310.01 205.539 309.996 205.541 309.982L205.686 309.178L205.201 308.538C205.176 308.504 205.183 308.456 205.216 308.431C205.227 308.423 205.239 308.418 205.252 308.416L206.024 308.307L206.451 307.63C206.473 307.594 206.521 307.583 206.556 307.606C206.569 307.614 206.579 307.626 206.585 307.639Z" fill="#E7EAEE"/>
<path fill-rule="evenodd" clip-rule="evenodd" d="M114.758 381.386L115.532 383.106L117.296 383.612C117.392 383.64 117.447 383.739 117.419 383.835C117.411 383.864 117.395 383.891 117.373 383.912L116.033 385.247L116.108 387.167C116.112 387.266 116.035 387.35 115.935 387.354C115.902 387.355 115.869 387.347 115.84 387.33L114.322 386.466C114.275 386.439 114.217 386.435 114.167 386.455L112.544 387.1C112.451 387.137 112.347 387.091 112.31 386.999C112.298 386.968 112.295 386.934 112.3 386.901L112.642 385.01L111.5 383.502C111.441 383.423 111.456 383.31 111.535 383.25C111.56 383.232 111.588 383.22 111.619 383.215L113.436 382.959L114.442 381.364C114.495 381.28 114.606 381.255 114.69 381.308C114.72 381.327 114.743 381.354 114.758 381.386Z" fill="#00160A"/>
<path fill-rule="evenodd" clip-rule="evenodd" d="M192.52 226.949L193.083 227.341C193.714 227.789 196.069 230.008 196.561 230.411C197.739 229.871 199.063 229.587 200.767 229.498C201.386 229.465 201.914 229.941 201.947 230.561C201.979 231.18 201.503 231.709 200.884 231.741C199.902 231.792 199.093 231.912 198.375 232.126C199.463 233.37 199.866 234.458 199.887 235.602L199.887 235.823C199.887 236.443 199.385 236.946 198.764 236.946C198.183 236.946 197.705 236.504 197.647 235.937L197.641 235.823L197.641 235.634C197.625 234.901 197.315 234.162 196.3 233.156C195.843 233.484 195.388 233.879 194.903 234.351L193.711 235.556C193.275 235.996 192.564 235.999 192.123 235.563C191.682 235.126 191.679 234.415 192.116 233.974L193.109 232.966C193.599 232.476 194.07 232.046 194.542 231.67C193.714 229.779 190.608 227.75 190.959 227.239C191.31 226.728 192.009 226.598 192.52 226.949Z" fill="#00160A"/>
<path fill-rule="evenodd" clip-rule="evenodd" d="M409.219 356.479L410.749 357.581L412.53 357.138C412.626 357.114 412.724 357.172 412.748 357.269C412.755 357.298 412.755 357.329 412.747 357.359L412.253 359.185L413.279 360.81C413.332 360.894 413.306 361.005 413.223 361.058C413.194 361.076 413.161 361.086 413.128 361.086L411.381 361.096C411.327 361.097 411.275 361.122 411.241 361.165L410.158 362.534C410.097 362.612 409.984 362.625 409.906 362.564C409.879 362.543 409.859 362.515 409.848 362.484L409.198 360.675L407.456 359.94C407.364 359.901 407.321 359.796 407.36 359.704C407.372 359.676 407.391 359.652 407.415 359.633L408.861 358.502L408.934 356.618C408.938 356.518 409.022 356.441 409.121 356.445C409.156 356.446 409.19 356.458 409.219 356.479Z" fill="#00160A"/>
<path fill-rule="evenodd" clip-rule="evenodd" d="M426.796 286.088L427.26 287.916L428.909 288.721C428.999 288.764 429.036 288.872 428.992 288.961C428.979 288.989 428.958 289.012 428.933 289.03L427.382 290.111L427.122 292.015C427.109 292.114 427.018 292.183 426.92 292.169C426.886 292.165 426.855 292.151 426.829 292.129L425.485 291.015C425.443 290.98 425.387 290.966 425.334 290.977L423.623 291.33C423.526 291.35 423.431 291.288 423.411 291.191C423.404 291.158 423.407 291.124 423.419 291.092L424.083 289.289L423.221 287.605C423.176 287.517 423.211 287.409 423.299 287.364C423.326 287.35 423.356 287.343 423.387 287.344L425.222 287.407L426.489 286.011C426.556 285.937 426.669 285.932 426.743 285.999C426.769 286.022 426.788 286.053 426.796 286.088Z" fill="#00160A"/>
<path fill-rule="evenodd" clip-rule="evenodd" d="M386.768 212.511L387.231 214.339L388.881 215.144C388.97 215.188 389.007 215.295 388.964 215.384C388.95 215.412 388.93 215.435 388.905 215.453L387.353 216.534L387.093 218.439C387.08 218.537 386.989 218.606 386.891 218.592C386.858 218.588 386.827 218.574 386.801 218.553L385.456 217.438C385.414 217.403 385.359 217.389 385.305 217.4L383.595 217.753C383.498 217.774 383.403 217.711 383.383 217.614C383.376 217.581 383.378 217.547 383.39 217.515L384.055 215.712L383.192 214.029C383.147 213.94 383.182 213.832 383.27 213.787C383.298 213.773 383.328 213.766 383.359 213.767L385.193 213.831L386.461 212.434C386.527 212.361 386.641 212.355 386.714 212.422C386.741 212.446 386.759 212.477 386.768 212.511Z" fill="#00160A"/>
<path fill-rule="evenodd" clip-rule="evenodd" d="M505.023 230.424L505.706 230.363C506.477 230.3 507.176 230.265 507.813 230.257C508.367 229.086 509.199 228.018 510.447 226.854C510.901 226.431 511.611 226.456 512.034 226.91C512.457 227.364 512.432 228.075 511.978 228.497C511.26 229.168 510.717 229.78 510.304 230.405C511.937 230.659 512.946 231.233 513.697 232.096L513.839 232.265C514.238 232.74 514.176 233.448 513.7 233.847C513.255 234.221 512.604 234.19 512.196 233.793L512.118 233.709L511.997 233.564C511.513 233.013 510.801 232.646 509.376 232.528C509.237 233.073 509.143 233.668 509.075 234.341L508.936 236.03C508.885 236.648 508.342 237.108 507.724 237.057C507.106 237.005 506.646 236.462 506.698 235.844L506.81 234.433C506.87 233.743 506.955 233.111 507.075 232.52C506.528 232.548 505.918 232.594 505.239 232.66C504.622 232.719 504.073 232.267 504.013 231.65C503.954 231.033 504.406 230.484 505.023 230.424Z" fill="#00160A"/>
<path fill-rule="evenodd" clip-rule="evenodd" d="M414.329 307.954C414.126 308.468 413.682 309.178 413.165 309.851L413.61 310.313L414.126 310.863L414.241 310.973C414.291 311.017 414.33 311.044 414.359 311.051C414.526 311.076 414.642 311.229 414.619 311.398C414.595 311.562 414.442 311.681 414.276 311.656C414.124 311.653 413.575 311.439 412.921 310.907C412.803 310.811 412.685 310.7 412.565 310.578C412.187 310.999 411.806 311.361 411.477 311.585C410.992 311.92 410.572 311.947 410.372 311.811C410.175 311.679 409.985 311.237 410.306 310.341C410.356 310.179 410.529 310.094 410.689 310.144C410.849 310.195 410.937 310.366 410.887 310.527C410.838 310.693 410.831 310.845 410.831 310.967L411.017 310.84C411.083 310.793 411.15 310.74 411.212 310.678C411.436 310.456 411.687 310.188 411.939 309.896C411.54 309.432 411.133 308.888 410.804 308.259C410.644 307.952 410.516 307.627 410.394 307.285C410.31 307.094 410.397 306.869 410.589 306.784C410.78 306.7 411.004 306.788 411.089 306.979C411.455 307.746 411.923 308.408 412.385 308.975L412.539 309.16C412.961 308.609 413.322 308.052 413.486 307.627C413.577 307.396 413.84 307.28 414.072 307.369C414.306 307.461 414.421 307.723 414.329 307.954Z" fill="#E7EAEE"/>
<path fill-rule="evenodd" clip-rule="evenodd" d="M403.364 79.0555C404.048 78.9362 404.699 79.3944 404.819 80.0789C404.938 80.7633 404.48 81.4147 403.795 81.534C400.54 82.101 396.622 84.0467 393.238 87.1806C388.843 91.25 385.601 96.9936 384.001 104.491C382.711 110.531 383.896 118.484 387.267 125.119C391.101 132.668 397.265 137.8 405.175 139.245C413.294 140.728 420.164 139.807 427.837 137.079L428.543 136.823C428.767 136.738 429.168 136.583 429.67 136.389C431.518 135.676 434.746 134.431 435.673 134.151C438.154 133.4 439.846 133.463 441.073 134.771C441.548 135.277 441.523 136.073 441.016 136.549C440.541 136.994 439.812 137 439.331 136.582L439.238 136.492C438.876 136.107 438.128 136.062 436.622 136.494L436.401 136.559C435.584 136.806 432.594 137.959 430.73 138.678C430.008 138.956 429.454 139.169 429.262 139.24C420.975 142.265 413.539 143.33 404.723 141.72C395.986 140.124 389.194 134.468 385.024 126.258C381.399 119.123 380.127 110.586 381.54 103.966C383.249 95.9639 386.751 89.7583 391.529 85.3347C395.268 81.8719 399.629 79.7059 403.364 79.0555ZM411.871 85.1325C412.553 84.9989 413.214 85.4434 413.347 86.1252C413.481 86.8069 413.036 87.4679 412.354 87.6014C402.159 89.5981 393.96 97.3852 391.582 107.686C390.777 111.172 391.021 114.006 391.81 115.087L391.915 115.223L391.924 115.242L391.938 115.23C392.221 114.975 392.552 114.323 392.808 113.313L392.862 113.09C395.307 102.497 403.384 94.2968 413.7 91.543C414.371 91.3638 415.061 91.7627 415.24 92.4339C415.419 93.1051 415.02 93.7945 414.349 93.9737C405.055 96.4547 397.753 103.772 395.409 113.254L395.313 113.656C394.451 117.393 391.974 119.176 389.968 116.811C388.5 115.081 388.14 111.411 389.131 107.12C391.734 95.8436 400.71 87.3182 411.871 85.1325ZM427 98.9395C426.95 98.2465 426.349 97.7249 425.656 97.7743C413.413 98.6478 402.676 106.6 398.404 118.336C396.783 122.79 396.686 126.75 398.014 128.77C399.794 131.479 402.594 129.943 403.99 126.107L404.136 125.713C407.914 115.78 416.767 108.843 427.13 107.396C427.818 107.3 428.298 106.665 428.202 105.977C428.106 105.289 427.47 104.809 426.782 104.905C415.369 106.498 405.639 114.22 401.626 125.246L401.537 125.482C401.091 126.629 400.602 127.321 400.232 127.524L400.216 127.535C400.208 127.541 400.205 127.545 400.203 127.545C400.201 127.545 400.2 127.541 400.196 127.533C400.189 127.514 400.171 127.472 400.116 127.389L400.049 127.279C399.319 125.985 399.431 122.871 400.768 119.197C404.697 108.401 414.573 101.087 425.835 100.284C426.528 100.234 427.049 99.6325 427 98.9395ZM432.478 111.168C433.171 111.119 433.773 111.64 433.823 112.333C433.872 113.026 433.35 113.628 432.657 113.678C424.761 114.241 417.838 119.369 415.083 126.938C414.266 129.182 414.114 131.1 414.406 132.072L414.442 132.18L414.498 132.1C414.638 131.887 414.796 131.581 414.952 131.184L415.018 131.008C417.928 123.013 424.983 117.414 433.258 116.259C433.946 116.163 434.582 116.643 434.678 117.331C434.774 118.019 434.294 118.655 433.606 118.751C426.367 119.761 420.18 124.592 417.514 131.515L417.382 131.869C416.303 134.834 413.969 136.114 412.477 133.844C411.455 132.288 411.527 129.352 412.719 126.077C415.816 117.567 423.601 111.801 432.478 111.168ZM439.108 121.303C439.059 120.61 438.457 120.089 437.764 120.138C431.819 120.562 426.605 124.424 424.53 130.123C423.713 132.37 423.663 134.415 424.419 135.566C425.66 137.454 427.587 136.396 428.39 134.19L428.499 133.901C430.189 129.585 434.062 126.576 438.589 125.944C439.278 125.848 439.757 125.212 439.661 124.524C439.565 123.836 438.93 123.356 438.242 123.452L437.923 123.5C433.049 124.285 428.844 127.379 426.663 131.831L426.587 131.99L426.634 131.809C426.704 131.546 426.79 131.27 426.895 130.984C428.626 126.225 432.979 123.002 437.943 122.648C438.636 122.598 439.158 121.996 439.108 121.303Z" fill="#00160A"/>
<path fill-rule="evenodd" clip-rule="evenodd" d="M432.478 111.168C433.171 111.119 433.773 111.64 433.823 112.333C433.872 113.026 433.35 113.628 432.657 113.678C424.761 114.241 417.838 119.369 415.083 126.938C414.266 129.182 414.114 131.1 414.406 132.072L414.442 132.18L414.498 132.1C414.638 131.887 414.796 131.581 414.952 131.184L415.018 131.008C417.928 123.013 424.983 117.414 433.258 116.259C433.946 116.163 434.582 116.643 434.678 117.331C434.774 118.019 434.294 118.655 433.606 118.751C426.367 119.761 420.18 124.593 417.514 131.515L417.382 131.869C416.303 134.834 413.969 136.114 412.477 133.844C411.455 132.288 411.527 129.352 412.719 126.077C415.816 117.567 423.601 111.802 432.478 111.168Z" fill="#00160A"/>
<path d="M354.137 274.945C380.509 262.61 402.558 256.094 416.285 254.898C420.489 254.532 422.396 256.849 421.331 260.619C420.541 263.418 418.134 267.26 414.444 271.808C408.011 279.739 399.53 286.524 391.084 292.836C404.596 280.365 408.042 275.148 412.21 270.01L412.864 269.193C415.954 265.286 417.951 262.022 418.566 259.844L418.654 259.513C419.037 257.941 418.593 257.569 416.536 257.748C403.119 258.918 381.154 265.446 354.879 277.765C328.561 290.104 327.808 287.261 354.137 274.945Z" fill="white"/>
<path d="M233.525 235.041L233.718 235.5C235.054 238.668 236.442 241.805 238.018 245.226L238.631 246.554C238.43 246.689 238.166 246.832 237.875 246.959C237.458 247.141 237.035 247.269 236.717 247.312L236.615 247.322L236.462 247.138C235.271 245.672 233.889 243.181 232.891 240.704C232.359 239.385 231.98 238.175 231.809 237.245C231.739 236.866 231.707 236.548 231.71 236.307L231.717 236.148C231.72 236.109 231.72 236.089 231.71 236.086L231.748 236.061C231.961 235.914 232.504 235.596 233.311 235.157L233.525 235.041Z" fill="white"/>
<path fill-rule="evenodd" clip-rule="evenodd" d="M266.863 223.566C267.688 222.555 268.759 222.706 270.115 223.528L270.463 223.748L271.437 224.394C271.71 224.568 271.828 224.629 271.987 224.692C272.356 224.839 272.536 225.257 272.389 225.626C272.242 225.995 271.824 226.175 271.455 226.028L271.324 225.974C271.075 225.867 270.886 225.756 270.381 225.421L269.682 224.955C269.567 224.88 269.467 224.817 269.369 224.757C268.558 224.265 268.19 224.214 267.976 224.475C267.842 224.64 267.875 224.991 268.142 225.711L268.435 226.467C269.018 228.014 269.022 228.706 267.983 229.297C267.089 229.805 266.631 229.568 265.347 228.31L265.035 228.001C264.213 227.18 263.782 226.894 263.504 226.953C263.412 226.972 263.304 227.038 263.173 227.178C263.019 227.342 262.976 227.867 263.07 228.799L263.215 230.015C263.384 231.503 263.316 231.888 262.702 232.299C261.856 232.865 260.731 232.225 258.646 230.353C258.351 230.087 258.326 229.633 258.591 229.338C258.857 229.042 259.311 229.018 259.607 229.283C260.498 230.084 261.171 230.605 261.641 230.872L261.747 230.93L261.835 230.974L261.837 230.883L261.831 230.668C261.822 230.492 261.8 230.278 261.756 229.916L261.664 229.17C261.489 227.655 261.544 226.813 262.125 226.194C262.447 225.85 262.809 225.63 263.207 225.546C264.13 225.351 264.786 225.746 265.875 226.81L266.425 227.351C267.018 227.921 267.238 228.067 267.273 228.047C267.407 227.971 267.387 227.733 267.023 226.798L266.863 226.393C266.355 225.087 266.258 224.306 266.863 223.566Z" fill="#00160A"/>
<path fill-rule="evenodd" clip-rule="evenodd" d="M345.337 106.568L344.654 106.629C344.036 106.688 343.584 107.237 343.644 107.855C343.68 108.228 343.895 108.541 344.196 108.716L344.077 108.801C343.57 109.159 343.45 109.86 343.808 110.366C344.166 110.873 344.867 110.993 345.373 110.635L346.528 109.818C346.494 110.082 346.465 110.355 346.441 110.638L346.328 112.049C346.277 112.667 346.736 113.21 347.355 113.261C347.973 113.313 348.516 112.853 348.567 112.235L348.706 110.546C348.742 110.185 348.786 109.846 348.84 109.526C349.235 110.274 349.313 110.85 349.23 111.395L349.197 111.58L349.183 111.695C349.141 112.262 349.536 112.781 350.108 112.882C350.719 112.989 351.302 112.581 351.409 111.97L351.448 111.753C351.567 110.995 351.512 110.232 351.205 109.385C351.366 109.5 351.504 109.629 351.628 109.769L351.749 109.913L351.827 109.997C352.235 110.394 352.886 110.425 353.331 110.052C353.806 109.653 353.868 108.944 353.47 108.469L353.327 108.3C353.277 108.242 353.225 108.186 353.173 108.13C353.759 108.164 354.278 107.737 354.351 107.146C354.427 106.53 353.989 105.97 353.373 105.894C352.315 105.764 351.389 105.735 350.537 105.811C350.842 105.452 351.197 105.086 351.609 104.702C352.063 104.279 352.088 103.568 351.665 103.115C351.242 102.661 350.531 102.636 350.077 103.059C349.316 103.769 348.71 104.443 348.227 105.127C348.04 104.929 347.844 104.726 347.638 104.518L347.153 104.034C346.71 103.599 345.999 103.606 345.565 104.049C345.13 104.491 345.136 105.202 345.579 105.637C345.886 105.939 346.17 106.224 346.431 106.495C346.083 106.512 345.719 106.537 345.337 106.568Z" fill="#00160A"/>
<path fill-rule="evenodd" clip-rule="evenodd" d="M302.052 114.35C301.782 114.073 301.346 114.081 301.077 114.367C300.808 114.653 300.808 115.109 301.078 115.385C301.334 115.647 301.562 115.89 301.766 116.116C301.334 116.299 300.901 116.537 300.437 116.829L299.732 117.281C299.423 117.478 299.356 117.872 299.582 118.161C299.808 118.451 300.242 118.525 300.551 118.328L301.395 117.789C301.836 117.519 302.234 117.315 302.633 117.171C303.241 118.016 303.368 118.557 303.29 119.059L303.269 119.178L303.26 119.251C303.232 119.615 303.471 119.945 303.822 120.007C304.197 120.073 304.556 119.809 304.625 119.417L304.65 119.277C304.765 118.549 304.642 117.816 304.12 116.91C304.474 116.905 304.86 116.931 305.297 116.987C305.678 117.036 306.019 116.794 306.06 116.448C306.101 116.101 305.825 115.781 305.444 115.732C304.609 115.626 303.909 115.613 303.269 115.7C303.005 115.376 302.7 115.03 302.348 114.657L302.052 114.35Z" fill="#E7EAEE"/>
<path fill-rule="evenodd" clip-rule="evenodd" d="M157.313 301.589L158.087 303.309L159.851 303.815C159.947 303.843 160.002 303.942 159.975 304.038C159.966 304.067 159.95 304.094 159.929 304.116L158.588 305.45L158.663 307.37C158.667 307.47 158.59 307.553 158.491 307.557C158.457 307.558 158.424 307.55 158.395 307.534L156.877 306.669C156.83 306.642 156.773 306.638 156.722 306.658L155.099 307.303C155.007 307.34 154.902 307.295 154.866 307.202C154.853 307.171 154.85 307.137 154.856 307.104L155.197 305.213L154.056 303.705C153.996 303.626 154.011 303.513 154.09 303.453C154.115 303.435 154.144 303.423 154.174 303.418L155.991 303.163L156.997 301.567C157.05 301.483 157.161 301.458 157.245 301.511C157.275 301.53 157.299 301.557 157.313 301.589Z" fill="#00160A"/>
<path fill-rule="evenodd" clip-rule="evenodd" d="M167.633 206.129L168.407 207.849L170.171 208.355C170.267 208.383 170.322 208.482 170.295 208.578C170.286 208.607 170.27 208.634 170.249 208.655L168.908 209.99L168.983 211.91C168.987 212.01 168.91 212.093 168.811 212.097C168.777 212.098 168.744 212.09 168.715 212.074L167.197 211.209C167.15 211.182 167.093 211.178 167.042 211.198L165.419 211.843C165.327 211.88 165.222 211.835 165.186 211.742C165.173 211.711 165.17 211.677 165.176 211.644L165.517 209.753L164.376 208.245C164.316 208.166 164.331 208.053 164.41 207.993C164.435 207.975 164.464 207.963 164.494 207.958L166.311 207.702L167.317 206.107C167.37 206.023 167.481 205.998 167.565 206.051C167.595 206.07 167.619 206.097 167.633 206.129Z" fill="#00160A"/>
<path d="M191.01 358.112C191.586 357.694 192.393 357.822 192.811 358.398C193.23 358.975 174.98 373.84 167.9 380.652L167.077 381.451C163.033 385.407 160.052 388.833 158.371 391.542C156.59 394.412 156.476 395.971 157.626 396.608C161.988 399.025 168.259 400.203 177.242 398.715L178.165 398.558C181.584 397.959 207.303 392.35 206.896 392.499L206.738 392.546C205.927 392.761 195.455 396.383 191.84 397.303L191.403 397.413C185.877 398.803 181.553 399.756 177.663 400.401C168.158 401.975 161.367 401.631 156.375 398.865C153.495 397.268 153.724 394.138 156.179 390.182C158.11 387.07 161.506 383.224 166.111 378.793C173.285 371.89 183.377 363.655 191.01 358.112Z" fill="white"/>
<path fill-rule="evenodd" clip-rule="evenodd" d="M325.388 179.293C325.703 179.084 326.125 179.173 326.332 179.493L330.988 186.709C331.195 187.028 331.107 187.457 330.792 187.667C330.477 187.876 330.055 187.787 329.848 187.467L325.192 180.251C324.985 179.932 325.073 179.503 325.388 179.293Z" fill="#00160A"/>
<path fill-rule="evenodd" clip-rule="evenodd" d="M325.616 173.962C325.976 173.75 326.453 173.856 326.68 174.201L329.885 179.054C330.112 179.399 330.004 179.85 329.643 180.062C329.283 180.275 328.806 180.168 328.579 179.824L325.374 174.97C325.147 174.626 325.255 174.174 325.616 173.962Z" fill="#00160A"/>
</svg>
