<svg width="543" height="487" viewBox="0 0 543 487" fill="none" xmlns="http://www.w3.org/2000/svg">
<path fill-rule="evenodd" clip-rule="evenodd" d="M72.9419 388.407C-4.8484 334.441 88.3169 262.93 65.5587 177.42C42.8004 91.9101 -12.3278 -35.5869 205.158 9.84362C425.517 55.8742 565.276 115.146 532.248 298.741C499.219 482.336 150.732 442.374 72.9419 388.407Z" fill="#64FCD9"/>
<path fill-rule="evenodd" clip-rule="evenodd" d="M410.582 462.329C405.704 457.466 403.393 450.667 401.238 444.125C395.59 452.303 382.982 452.567 374.323 447.687C365.665 442.806 359.821 434.285 353.604 426.53C342.473 412.646 294.791 378.36 294.007 368.016C293.592 362.53 309.546 352.542 309.546 352.542L280.877 335.675C280.877 335.675 266.008 347.081 257.459 348.437C233.676 352.208 216.855 349.963 216.835 354.244C216.762 369.731 310.464 448.303 280.583 447.687C235.739 446.762 153.835 359.478 127.304 352.542C116.193 349.638 39.9871 354.244 39.9871 335.798C39.9871 311.023 108.055 293.978 108.055 293.978C108.055 293.978 90.3143 234.155 111.786 185.235C116.704 174.031 122.792 161.014 123.385 150.006C123.548 146.986 209.391 65.6746 220.419 61.6125C246.133 52.1412 273.484 47.1358 300.885 46.8869C304.538 46.8537 408.689 61.6125 455.523 138.918C463.988 152.889 502.437 256.642 463.399 321.725C457.241 331.993 457.996 344.737 462.254 356.04C466.512 367.344 471.747 379.918 466.921 390.992C464.287 373.25 459.659 355.804 453.154 339.089C444.082 345.684 448.675 359.875 454.083 369.7C460.899 382.082 467.714 394.464 474.529 406.846C477.364 411.996 480.294 417.67 479.274 423.459C478.108 430.079 472.21 434.658 466.746 438.574C454.273 447.512 441.799 456.451 429.326 465.39C423.727 469.402 415.459 467.192 410.582 462.329Z" fill="white"/>
<path fill-rule="evenodd" clip-rule="evenodd" d="M242.082 188.349C243.037 185.763 246.476 184.696 249.013 185.773C251.551 186.851 253.126 189.546 253.523 192.273C253.921 195.001 253.317 197.774 252.541 200.419C251.833 202.831 250.978 205.2 249.983 207.509C249.891 207.723 249.767 207.963 249.539 208.015C249.296 208.069 249.073 207.88 248.898 207.703C244.586 203.335 241.987 197.319 241.761 191.186C241.726 190.229 241.75 189.248 242.082 188.349M249.535 188.98C248.828 188.374 247.914 187.977 246.983 188.005C244.808 188.071 243.291 190.443 243.34 192.618C243.388 194.792 244.547 196.767 245.671 198.629C246.476 199.963 247.281 201.296 248.087 202.63C248.361 203.084 248.901 203.603 249.329 203.288C249.501 203.161 249.568 202.939 249.624 202.732C249.953 201.521 250.283 200.309 250.613 199.097C251.084 197.365 251.559 195.605 251.53 193.81C251.5 192.015 250.898 190.149 249.535 188.98L249.535 188.98Z" fill="#FFB61D"/>
<path fill-rule="evenodd" clip-rule="evenodd" d="M248.113 195.942C247.583 196.091 247.005 196.063 246.492 195.863C245.497 195.476 244.81 194.41 244.868 193.344C244.926 192.277 245.723 191.292 246.754 191.014C248.316 190.592 250.075 192.031 249.971 193.646C249.904 194.693 249.123 195.658 248.113 195.942Z" fill="#FFB61D"/>
<path fill-rule="evenodd" clip-rule="evenodd" d="M276.58 449.431C278.363 449.666 277.705 452.435 276.548 453.812C265.495 466.971 251.063 477.268 235.024 483.439C231.428 484.823 227.707 486.012 223.862 486.277C216.733 486.768 209.63 483.984 203.992 479.592C198.354 475.2 194.057 469.297 190.556 463.067C180.982 446.029 176.968 425.923 179.266 406.515C179.482 404.689 180.728 402.266 182.411 403.008C181.923 409.496 181.848 416.016 182.185 422.515C182.516 428.897 183.252 435.298 185.085 441.421C186.782 447.09 189.393 452.438 192.116 457.692C194.914 463.093 197.879 468.478 201.92 473.025C205.961 477.571 211.206 481.265 217.173 482.444C224.654 483.922 232.332 481.344 239.229 478.093C253.533 471.349 266.364 461.503 276.58 449.431Z" fill="#00160A"/>
<path fill-rule="evenodd" clip-rule="evenodd" d="M328.33 375.476C341.32 362.696 354.31 349.915 367.301 337.135C368.028 336.419 369.105 335.655 369.965 336.204C371.112 336.936 370.195 338.697 369.227 339.654C355.246 353.482 341.264 367.309 327.282 381.137C326.275 380.626 325.982 379.248 326.337 378.175C326.692 377.103 327.524 376.268 328.33 375.476H328.33Z" fill="#00160A"/>
<path fill-rule="evenodd" clip-rule="evenodd" d="M228.883 301.972C228.091 302.109 227.299 302.246 226.507 302.383C224.97 300.076 223.397 297.682 222.914 294.953C222.432 292.223 223.335 289.046 225.758 287.699C228.5 286.175 229.326 282.428 228.453 279.416C227.579 276.403 225.416 273.962 223.296 271.65C221.144 269.301 217.692 266.808 215.137 268.71C213.471 269.951 210.978 269.249 209.487 267.804C207.996 266.358 207.207 264.361 206.243 262.522C204.419 259.042 201.759 255.903 198.279 254.078C194.799 252.254 190.444 251.892 186.942 253.673C183.467 255.439 181.276 258.953 178.314 261.487C175.353 264.021 170.462 265.367 167.794 262.526C167.115 261.803 166.66 260.732 167.046 259.819C167.431 258.906 168.929 258.592 169.406 259.46C170.625 261.673 173.99 261.641 176.095 260.245C178.2 258.85 179.517 256.567 181.244 254.724C184.621 251.12 189.755 249.243 194.661 249.819C199.568 250.396 204.126 253.411 206.576 257.701C207.757 259.768 208.485 262.119 210.026 263.933C211.567 265.747 214.368 266.858 216.346 265.532C218.579 264.035 221.492 265.896 223.452 267.736C226.105 270.227 228.689 272.919 230.183 276.237C231.677 279.555 231.913 283.638 229.961 286.708C228.336 289.265 225.227 291.335 225.496 294.352C225.748 297.165 228.985 299.15 228.883 301.972V301.972Z" fill="#00160A"/>
<path fill-rule="evenodd" clip-rule="evenodd" d="M263.174 175.294C267.93 177.521 272.161 181.082 274.606 185.729C277.051 190.377 277.548 196.148 275.356 200.92C270.822 210.792 256.404 214.634 254.814 225.38C254.409 228.117 254.96 230.963 254.283 233.646C253.816 235.5 252.792 237.155 251.973 238.883C250.216 242.589 249.386 246.731 249.58 250.829C247.747 251.821 245.592 249.708 245.358 247.638C245.124 245.567 245.953 243.511 245.908 241.427C245.825 237.511 242.796 234.394 240.211 231.45C236.335 227.034 232.967 221.835 232.338 215.994C232.135 214.111 232.22 212.191 231.797 210.346C231.342 208.362 230.322 206.562 229.42 204.737C226.99 199.813 225.345 194.13 226.841 188.846C228.338 183.563 233.916 179.192 239.211 180.646C240.715 181.059 242.187 181.903 243.73 181.673C246.44 181.269 247.533 178.036 249.422 176.052C252.807 172.494 258.727 173.212 263.174 175.294M240.146 226.637C243.149 230.588 246.151 234.538 249.154 238.489C252.598 234.862 251.174 228.996 252.221 224.105C253.647 217.443 259.606 212.921 264.769 208.476C269.932 204.031 275.059 197.949 273.899 191.236C272.967 185.841 268.26 182.008 263.746 178.91C261.201 177.163 258.264 175.407 255.229 175.968C252.16 176.536 250.058 179.257 247.847 181.459C245.636 183.661 242.302 185.575 239.535 184.131C235.641 182.101 230.683 185.565 229.585 189.817C228.486 194.07 230.066 198.518 231.8 202.553C233.535 206.588 235.491 210.77 235.162 215.149C234.841 219.41 237.56 223.235 240.146 226.637Z" fill="#00160A"/>
<path fill-rule="evenodd" clip-rule="evenodd" d="M0.626554 135.896C0.431606 135.367 1.35764 135.219 1.85414 135.484C1.83277 136.033 0.988353 136.311 0.645175 135.882L0.626554 135.896Z" fill="#00160A"/>
<path fill-rule="evenodd" clip-rule="evenodd" d="M360.781 352.247C361.8 352.389 362.342 353.644 362.111 354.647C361.879 355.649 361.124 356.435 360.4 357.167C354.548 363.082 348.696 368.997 342.843 374.912C342.411 375.349 341.904 375.818 341.289 375.799C340.464 375.772 339.923 374.817 340.024 373.997C340.125 373.177 340.664 372.487 341.187 371.848C346.568 365.263 352.408 359.054 358.65 353.279C359.25 352.724 359.972 352.134 360.781 352.247V352.247Z" fill="#00160A"/>
<path fill-rule="evenodd" clip-rule="evenodd" d="M188.706 266.701C191.93 266.993 194.41 270.023 194.963 273.213C195.516 276.402 194.522 279.664 193.173 282.607C192.43 284.229 191.576 285.799 190.619 287.305C189.93 288.388 189.053 289.526 187.787 289.736C185.673 290.087 184.188 287.76 183.373 285.778C182.225 282.99 181.171 280.162 180.215 277.302C179.745 275.897 179.294 274.419 179.534 272.958C179.901 270.724 181.799 269.053 183.788 267.972C185.298 267.152 186.995 266.546 188.706 266.701M185.677 283.126C185.924 283.512 186.187 283.908 186.575 284.152C186.893 284.353 187.283 284.437 187.655 284.385C188.614 284.252 189.23 283.329 189.72 282.493C191.002 280.308 192.318 278.015 192.462 275.485C192.606 272.955 191.169 270.141 188.689 269.62C185.788 269.009 183.085 271.916 182.839 274.871C182.593 277.825 184.076 280.631 185.677 283.126Z" fill="#FFB61D"/>
<path fill-rule="evenodd" clip-rule="evenodd" d="M188.567 272.696C189.363 272.953 190.049 273.534 190.434 274.276C190.776 274.937 190.879 275.719 190.72 276.447C190.351 278.126 188.453 279.298 186.787 278.875C185.121 278.453 184.01 276.518 184.486 274.866C184.962 273.215 186.931 272.167 188.567 272.696M188.198 276.181C188.805 275.862 188.263 274.698 187.628 274.958C187.136 275.023 186.81 275.642 187.035 276.084C187.26 276.527 187.952 276.629 188.294 276.27L188.198 276.181Z" fill="#FFB61D"/>
<path fill-rule="evenodd" clip-rule="evenodd" d="M359.216 304.478C357.418 302.537 355.803 300.427 354.397 298.186C353.948 297.469 354.879 296.537 355.717 296.648C356.555 296.76 357.172 297.463 357.706 298.118C359.569 300.403 361.431 302.687 363.294 304.971C363.08 305.787 362.051 306.155 361.236 305.939C360.421 305.723 359.789 305.096 359.216 304.478L359.216 304.478Z" fill="#00160A"/>
<path fill-rule="evenodd" clip-rule="evenodd" d="M420.583 410.322C420.603 410.589 420.505 410.849 420.403 411.096C419.38 413.586 417.858 415.87 415.953 417.772C412.922 420.799 408.814 423.041 407.191 427.005C406.806 427.944 405.372 428.079 404.627 427.391C403.882 426.703 403.779 425.522 404.109 424.563C404.44 423.603 405.122 422.813 405.789 422.048C407.961 419.557 410.134 417.066 412.306 414.575C413.971 412.665 415.709 410.701 418.016 409.654C418.965 409.223 420.502 409.283 420.583 410.322V410.322Z" fill="#00160A"/>
<path fill-rule="evenodd" clip-rule="evenodd" d="M361.43 294.104C363.575 296.624 365.719 299.144 367.864 301.664C368.224 302.087 368.605 302.568 368.58 303.123C368.542 303.986 367.482 304.501 366.642 304.3C365.802 304.099 365.167 303.428 364.603 302.773C362.786 300.666 361.158 298.395 359.746 295.997C359.196 295.062 358.982 293.427 360.058 293.287C360.61 293.216 361.07 293.681 361.43 294.104L361.43 294.104Z" fill="#00160A"/>
<path fill-rule="evenodd" clip-rule="evenodd" d="M336.732 308.149C336.406 307.691 336.069 307.094 336.345 306.604C336.8 305.795 338.035 306.423 338.651 307.117C340.83 309.575 342.684 312.319 344.152 315.257C342.754 315.965 341.268 314.525 340.36 313.249C339.151 311.549 337.941 309.849 336.732 308.149Z" fill="#00160A"/>
<path fill-rule="evenodd" clip-rule="evenodd" d="M338.664 315.384C339.537 316.292 340.419 317.783 339.511 318.655C338.586 319.541 337.108 318.541 336.291 317.555C334.315 315.169 332.596 312.57 331.175 309.818C332.087 309.035 333.438 309.946 334.271 310.812C335.735 312.336 337.2 313.86 338.664 315.384Z" fill="#00160A"/>
<path fill-rule="evenodd" clip-rule="evenodd" d="M341.042 306.451C340.647 305.871 340.276 305.073 340.704 304.517C341.315 303.722 342.557 304.452 343.241 305.185C345.225 307.311 347.209 309.438 349.193 311.565C349.105 312.333 348.204 312.793 347.439 312.68C346.673 312.566 346.036 312.05 345.462 311.531C343.794 310.021 342.307 308.312 341.042 306.451L341.042 306.451Z" fill="#00160A"/>
<path fill-rule="evenodd" clip-rule="evenodd" d="M353.55 301.735C354.785 303.312 356.021 304.888 357.257 306.465C357.747 307.09 358.264 307.892 357.944 308.619C357.636 309.32 356.663 309.504 355.959 309.203C355.255 308.902 354.762 308.265 354.303 307.652C353.014 305.931 351.736 304.2 350.47 302.461C350.191 302.077 349.898 301.646 349.941 301.173C350.011 300.384 351.02 299.975 351.774 300.216C352.528 300.457 353.062 301.112 353.55 301.735H353.55Z" fill="#00160A"/>
<path fill-rule="evenodd" clip-rule="evenodd" d="M352.619 309.005C352.875 309.284 353.149 309.61 353.121 309.987C353.084 310.491 352.494 310.803 351.994 310.729C351.495 310.654 351.082 310.312 350.706 309.974C348.24 307.757 346.162 305.11 344.593 302.188C344.902 301.385 346.115 301.93 346.698 302.564C348.671 304.711 350.645 306.858 352.619 309.005Z" fill="#00160A"/>
<path fill-rule="evenodd" clip-rule="evenodd" d="M376.567 294.789C376.759 295.01 376.962 295.263 376.95 295.556C376.933 295.999 376.407 296.276 375.97 296.201C375.534 296.126 375.181 295.815 374.856 295.514C372.534 293.369 370.314 291.115 368.204 288.761C368.95 287.759 370.525 288.563 371.431 289.423C373.227 291.129 374.941 292.92 376.567 294.789V294.789Z" fill="#00160A"/>
<path fill-rule="evenodd" clip-rule="evenodd" d="M369.211 296.932C367.913 295.154 366.614 293.376 365.316 291.598C365.078 291.272 364.827 290.875 364.955 290.492C365.207 289.739 366.351 290.074 366.966 290.577C368.919 292.17 370.576 294.123 371.829 296.31C372.073 296.734 372.307 297.236 372.135 297.694C371.915 298.276 371.117 298.447 370.545 298.203C369.972 297.96 369.578 297.435 369.211 296.932L369.211 296.932Z" fill="#00160A"/>
<path fill-rule="evenodd" clip-rule="evenodd" d="M379.571 290.398C378.289 289.019 377.007 287.64 375.724 286.26C375.267 285.769 375.82 284.897 376.487 284.825C377.154 284.754 377.765 285.175 378.294 285.589C379.266 286.349 380.205 287.153 381.105 287.999C381.603 288.466 382.108 288.977 382.295 289.634C382.483 290.291 382.225 291.125 381.58 291.347C380.837 291.604 380.107 290.974 379.571 290.398L379.571 290.398Z" fill="#00160A"/>
<path fill-rule="evenodd" clip-rule="evenodd" d="M377.083 293.128C375.308 291.308 373.607 289.414 371.987 287.454C371.706 287.113 371.408 286.693 371.528 286.267C371.664 285.786 372.294 285.597 372.767 285.758C373.24 285.919 373.587 286.318 373.909 286.699C375.393 288.455 376.876 290.211 378.36 291.966C378.761 292.441 379.156 293.188 378.701 293.611C378.241 294.038 377.52 293.577 377.083 293.128V293.128Z" fill="#00160A"/>
<path fill-rule="evenodd" clip-rule="evenodd" d="M461.527 405.663C463.531 405.045 468.603 403.669 470.607 403.051C471.505 402.774 472.84 402.738 473.008 403.663C473.147 404.423 472.272 404.941 471.539 405.188C469.515 405.867 464.353 407.098 462.234 407.354C461.48 407.445 460.384 407.164 460.537 406.42C460.625 405.991 461.109 405.792 461.527 405.663Z" fill="#00160A"/>
<path fill-rule="evenodd" clip-rule="evenodd" d="M237.653 321.872C240.825 321.918 244.576 322.656 245.841 325.565C247.029 328.298 245.161 331.583 242.54 333.001C239.919 334.419 236.797 334.454 233.818 334.45C193.162 334.398 152.508 333.417 111.898 331.507C109.367 331.389 109.127 327.737 109.706 325.27C110.051 323.798 110.438 322.247 111.5 321.17C113.028 319.621 115.451 319.516 117.627 319.509C146.822 319.415 176.069 319.323 205.14 322.009C209.745 322.434 214.354 322.93 218.979 322.885C225.214 322.824 231.418 321.781 237.653 321.872M242.206 329.252C242.887 327.922 241.884 326.231 240.521 325.621C239.157 325.01 237.59 325.169 236.104 325.315C217.046 327.19 197.858 325.026 178.741 323.909C164.845 323.097 150.924 322.838 137.008 322.58C131.207 322.472 125.405 322.364 119.604 322.256C117.753 322.222 115.726 322.246 114.304 323.432C112.882 324.617 112.834 327.41 114.599 327.969C114.918 328.07 115.257 328.087 115.591 328.104C156.435 330.089 197.333 330.981 238.225 330.776C239.724 330.768 241.522 330.585 242.206 329.252V329.252Z" fill="#00160A"/>
<path fill-rule="evenodd" clip-rule="evenodd" d="M211.699 354.733C215.324 362.669 223.134 368.544 231.764 369.827C235.825 370.431 238.597 374.124 240.909 377.516C243.313 381.041 245.075 387.016 241.103 388.573C256.521 405.576 271.94 422.579 287.359 439.582C289.15 441.557 290.89 444.854 288.813 446.526C288.042 447.147 286.985 447.244 285.995 447.278C273.292 447.703 261.306 441.757 250.312 435.378C234.481 426.192 219.36 415.781 205.131 404.268C194.735 395.858 179.8 393.452 167.288 398.172C160.798 400.621 152.661 395.628 151.903 388.733C151.146 381.837 158.005 375.197 164.872 376.179C154.548 360.859 136.082 351.391 117.616 351.949C95.3281 352.623 72.9512 350.284 51.2841 345.017C49.3811 344.555 47.3376 343.977 46.1439 342.425C43.7638 339.329 46.2607 334.927 48.8768 332.028C68.1519 310.666 97.8106 299.142 126.452 301.885C127.672 302.002 128.336 300.52 128.622 299.328C135.903 268.985 143.184 238.642 150.464 208.3C151.342 204.641 156.911 204.135 159.671 206.693C162.43 209.251 163.036 213.329 163.354 217.078C165.726 245.027 161.585 275.116 175.478 299.482C176.126 300.617 176.857 301.78 177.994 302.424C179.114 303.059 180.462 303.098 181.749 303.12C207.474 303.576 233.198 304.032 258.923 304.488C262.128 304.544 266.063 304.163 267.358 301.231C270.676 293.716 273.994 286.202 277.312 278.688C278.368 276.297 279.823 273.585 282.407 273.191C286.107 272.627 288.448 277.275 288.329 281.016C288.209 284.757 286.95 288.731 288.598 292.092C294.642 285.669 300.788 279.162 308.345 274.615C315.902 270.068 325.184 267.652 333.659 270.095C326.167 282.007 318.675 293.919 311.183 305.83C317.44 309.971 317.934 320.443 312.093 325.153C309.599 327.164 311.578 331.133 313.644 333.582C320.116 341.253 326.588 348.924 333.06 356.595C327.536 359.157 321.102 356.521 315.67 353.769C305.963 348.85 296.487 343.475 287.285 337.667C282.819 334.848 277.897 340.133 273.844 343.518C267.409 348.891 258.526 349.961 250.186 350.811C237.357 352.119 224.528 353.426 211.699 354.733M234.076 338.058C241.958 338.49 249.989 339.036 257.637 337.082C265.468 335.082 272.594 330.424 277.57 324.055C278.778 322.508 280.895 322.071 282.829 321.738C289.507 320.589 296.539 319.466 302.918 321.75C305.796 322.781 309.307 321.601 310.979 319.042C312.651 316.482 312.32 312.793 310.22 310.572C307.947 310.509 307.532 313.735 306.327 315.663C304.743 318.196 301.288 318.609 298.304 318.759C287.358 319.309 276.411 319.86 265.465 320.41C262.807 320.544 259.147 319.77 259.226 317.11C259.261 315.94 260.116 314.973 260.954 314.156C263.893 311.286 267.248 308.844 270.881 306.928C226.434 307.265 181.98 306.765 137.552 305.429C115.706 304.772 92.4089 304.275 73.7933 315.728C72.0554 316.797 70.6965 319.951 72.713 320.262C78.6513 321.178 84.5895 322.094 90.5278 323.01C91.2352 323.119 91.9917 323.252 92.5037 323.752C94.0382 325.251 91.8883 327.661 89.9113 328.494C81.7542 331.928 72.0337 331.404 64.293 327.113C62.5387 326.14 60.4575 324.958 58.6702 325.868C56.5109 326.968 56.8076 330.439 58.6392 332.026C60.4707 333.612 63.0793 333.836 65.4979 333.985C87.225 335.326 108.952 336.666 130.679 338.007C136.786 338.384 142.912 338.761 149.019 338.38C177.333 336.615 205.75 336.508 234.076 338.058M265.792 422.287C258.188 411.824 249.526 402.131 239.981 393.402C236.856 390.544 234.103 387.309 231.359 384.084C219.362 369.98 207.365 355.876 195.368 341.772C194.171 340.364 192.1 340.179 190.253 340.12C174.496 339.621 158.687 340.792 143.175 343.607C142.029 343.815 140.791 344.084 140.034 344.97C138.278 347.025 140.472 350.027 142.53 351.78C163.126 369.316 184.478 385.963 206.508 401.659C210.563 404.548 214.678 407.426 219.257 409.381C227.894 413.07 236.532 416.759 245.17 420.448C251.779 423.27 259.657 426.03 265.792 422.287M162.641 266.569C162.324 262.449 162.322 258.257 161.19 254.283C159.15 247.123 153.711 241.502 148.297 236.392C147.877 235.996 147.322 235.57 146.779 235.768C146.286 235.948 146.107 236.541 145.995 237.054C141.96 255.43 137.924 273.805 133.889 292.181C133.128 295.649 132.362 299.166 132.527 302.713C146.673 302.892 160.82 303.07 174.967 303.248C167.919 292.288 163.642 279.561 162.641 266.569M328.861 272.672C320.074 271.921 311.023 275.151 304.697 281.295C293.108 292.55 280.733 302.995 267.692 312.528C265.907 313.834 263.994 315.28 263.388 317.407C274.314 316.914 285.24 316.421 296.166 315.929C299.047 315.799 302.439 315.367 303.817 312.832C311.357 298.963 319.725 285.545 328.861 272.672M48.4203 337.732C48.1225 338.369 47.8588 339.078 48.0241 339.761C48.3164 340.969 49.7273 341.472 50.9352 341.765C75.3641 347.692 100.708 348.456 125.835 349.191C128.335 349.264 130.929 349.32 133.225 348.327C135.521 347.334 137.429 344.973 137.056 342.5C120.723 340.237 104.237 339.077 87.7476 339.031C77.8696 339.004 67.7103 339.331 58.4498 335.893C56.2158 335.064 53.6876 333.401 53.9722 331.035C51.593 332.748 49.662 335.077 48.4203 337.732M281.366 333.321C280.489 331.419 278.02 330.715 275.972 331.154C273.925 331.593 272.186 332.89 270.469 334.089C266.506 336.856 262.22 339.297 257.517 340.412C253.417 341.384 249.151 341.315 244.937 341.24C229.556 340.968 214.174 340.695 198.793 340.423C202.218 345.533 206.913 351.275 213.029 350.604C224.993 349.289 237.113 349.603 249.02 347.846C260.927 346.089 272.992 341.967 281.366 333.321M316.953 346.478C317.513 346.403 318.166 346.215 318.342 345.679C318.489 345.228 318.219 344.757 317.957 344.362C313.526 337.697 308.07 331.786 302.639 325.907C301.81 325.01 300.946 324.087 299.82 323.614C298.656 323.124 297.343 323.171 296.082 323.265C290.93 323.651 285.828 324.702 280.943 326.382C280.544 326.52 280.08 326.74 280.035 327.16C279.999 327.486 280.244 327.769 280.474 328.003C285.607 333.222 292.028 336.95 298.365 340.614C304.099 343.929 310.389 347.363 316.953 346.478M170.886 379.999C170.408 379.629 169.898 379.245 169.298 379.167C168.811 379.104 168.323 379.251 167.854 379.397C166.769 379.734 165.683 380.071 164.598 380.408C163.534 380.738 162.205 381.716 162.818 382.646C164.733 385.545 165.51 389.173 164.95 392.602C164.769 393.714 166.369 394.112 167.493 394.033C173.305 393.623 179.116 393.212 184.928 392.802C185.534 392.759 186.352 392.452 186.21 391.861C181.102 387.907 175.994 383.953 170.886 379.999M270.464 301.404C270.056 302.472 271.144 303.632 272.282 303.75C273.419 303.867 274.5 303.293 275.499 302.737C279.101 300.733 282.984 298.405 284.344 294.515C284.788 293.247 284.924 291.896 285.058 290.56C285.287 288.267 285.516 285.974 285.746 283.682C285.797 283.172 285.838 282.621 285.569 282.186C285.299 281.751 284.584 281.575 284.285 281.99C283.077 283.668 281.304 284.932 279.323 285.525C278.466 285.781 277.545 285.929 276.823 286.457C275.963 287.085 275.541 288.136 275.16 289.131C273.595 293.222 272.03 297.313 270.464 301.404M234.656 374.881C233.087 371.955 228.765 370.972 226.085 372.932C229.54 375.632 231.488 379.798 234.421 383.058C235.431 384.18 236.743 385.265 238.249 385.166C239.755 385.067 241 383.055 239.932 381.987C237.839 379.893 236.055 377.491 234.656 374.881M157.831 382.863C155.499 385.14 156.293 388.996 157.256 392.111C157.58 393.161 158.615 394.467 159.473 393.781C159.765 393.548 159.869 393.157 159.957 392.794C160.387 391.005 160.82 389.173 160.628 387.343C160.436 385.513 159.493 383.653 157.831 382.863Z" fill="#00160A"/>
<path fill-rule="evenodd" clip-rule="evenodd" d="M415.782 466.662C410.904 461.799 408.593 455 406.438 448.458C400.79 456.637 393.465 462.442 384.806 457.562C376.148 452.682 365.021 438.618 358.804 430.864C347.673 416.98 334.449 404.776 319.718 394.792C327.586 403.424 332.29 414.876 332.762 426.546C338.73 426.483 344.698 426.421 350.665 426.359C330.602 433.196 309.107 435.802 287.991 433.956C299.465 424.308 308.438 411.709 313.804 397.711C312.607 393.923 306.916 394.801 303.592 396.976C300.269 399.152 295.969 401.913 292.767 399.562C288.826 396.667 289.098 387.599 284.418 389.017C272.268 392.698 257.864 385.385 253.668 373.403C250.802 375.195 247.936 376.986 245.07 378.777C243.69 374.338 250.08 370.909 254.386 372.659C258.692 374.41 261.215 378.765 264.201 382.328C267.187 385.89 271.978 389.035 276.24 387.179C284.181 383.72 294.626 389.967 295.335 398.6C301.493 393.658 309.94 391.698 317.645 393.425C312.73 386.305 307.244 379.579 301.259 373.332C305.81 367.268 311.436 362.014 317.798 357.89C314.675 363.792 310.348 369.053 305.159 373.255C331.773 399.348 358.386 425.44 385 451.532C386.675 453.175 388.596 454.925 390.942 454.957C393.513 454.993 395.586 452.968 397.338 451.087C409.829 437.683 422.32 424.279 434.811 410.875C438.065 407.383 441.489 403.532 441.977 398.784C442.591 392.82 438.427 387.532 434.452 383.044C418.458 364.989 401.441 347.839 383.51 331.705C375.645 324.629 365.276 317.27 355.382 321.018C343.444 325.539 340.603 343.505 328.34 347.054C332.006 342.015 335.673 336.975 339.339 331.936C332.07 326.677 322.977 314.94 322.504 305.98C328.34 300.664 335.534 296.639 341.502 293.552C335.534 279.502 336.243 276.581 344.223 274.662C352.204 272.744 359.117 270.842 366.451 268.389C386.785 261.589 396.49 229.345 379.422 215.952C370.033 208.584 299.662 136.262 269.447 109.597C271.735 119.803 258.29 129.426 249.368 123.968C251.08 129.851 246.965 136.97 240.887 137.746C234.81 138.522 228.881 131.783 231.008 126.038C232.839 121.092 238.698 119.046 242.1 115.016C245.502 110.987 242.535 102.13 237.911 104.667C235.469 114.495 221.096 118.682 213.758 111.703C211.175 109.246 207.791 108.642 204.331 109.223C200.092 109.934 192.759 111.58 189.623 114.619C184.711 119.381 183.602 126.337 177.754 129.569C176.822 130.085 175.845 130.527 174.812 130.878C167.304 133.437 156.792 126.007 160.69 119.099C139.327 138.796 124.662 165.631 119.621 194.248C130.771 197.427 132.888 212.07 132.856 223.665C120.278 226.856 132.111 250.867 121.232 257.942C108.831 266.007 112.278 284.763 117.189 298.717C104.618 271.663 103.106 239.663 113.069 211.543C112.084 229.383 111.099 247.223 110.115 265.062C118.55 263.828 121.957 253.548 122.655 245.052C123.352 236.556 123.883 226.559 131.026 221.906C128.359 215.109 127.265 207.699 127.853 200.421C124.748 199.419 121.644 198.417 118.539 197.415C116.675 210.55 102.086 217.011 90.0552 222.603C77.0677 228.641 64.849 236.33 53.7869 245.427C41.9214 255.185 30.6221 268.599 31.9363 283.905C33.1998 298.622 45.8816 309.875 59.1955 316.272C44.9382 316.241 32.7014 303.557 30.4031 289.487C28.1049 275.416 34.2358 260.941 43.821 250.387C53.4063 239.832 66.1165 232.658 79.0053 226.563C95.8835 218.581 116.356 208.228 116.986 189.569C117.511 174.014 134.571 158.769 126.399 145.524C114.919 126.919 108.515 105.216 108.058 83.3594C107.832 72.5766 109.8 60.3707 118.639 54.191C123.04 51.1143 128.515 50.04 133.849 49.4274C153.632 47.1557 174.012 50.3256 192.171 58.4985C202.888 63.3222 214.591 70.008 225.619 65.9458C251.333 56.4746 278.684 51.4691 306.085 51.2202C309.738 51.1871 312.769 48.505 315.313 45.8829C325.321 35.5651 333.672 23.6259 344.563 14.2451C355.454 4.86428 369.942 -1.88917 384.02 1.01406C398.758 4.05338 409.76 17.1777 414.574 31.4347C419.389 45.6916 419.116 61.0941 418.791 76.1385C418.209 103.081 452.002 117.753 460.723 143.252C465.866 158.285 482.831 165.252 498.088 169.687C513.345 174.123 530.436 179.037 538.3 192.843C545.624 205.703 542.002 222.549 533.356 234.56C524.709 246.57 511.907 254.8 499.418 262.74C479.197 275.594 484.874 308.472 468.599 326.058C460.395 334.924 463.196 349.07 467.454 360.374C471.712 371.678 476.947 384.251 472.121 395.325C469.487 377.583 464.859 360.138 458.354 343.422C449.282 350.018 453.875 364.208 459.283 374.034C466.099 386.416 472.914 398.798 479.729 411.18C482.564 416.329 485.494 422.004 484.474 427.793C483.309 434.412 477.41 438.992 471.946 442.907C459.473 451.846 446.999 460.784 434.526 469.723C428.927 473.735 420.659 471.525 415.782 466.662ZM442.403 352.539C441.309 351.309 439.307 351.909 437.812 352.6C436.313 353.292 434.815 353.984 433.317 354.676C432.989 354.827 432.626 354.982 432.277 354.888C431.62 354.709 431.509 353.735 431.922 353.193C432.335 352.651 433.035 352.434 433.683 352.223C435.063 351.775 436.411 351.225 437.71 350.578C438.453 350.208 439.25 349.72 439.452 348.915C439.654 348.11 438.73 347.132 438.047 347.603C436.036 348.989 433.774 350.009 431.403 350.598C430.692 350.775 429.584 350.552 429.751 349.839C429.816 349.566 430.07 349.386 430.307 349.237C432.422 347.907 434.73 346.885 437.136 346.213C438.002 345.971 437.787 344.513 436.961 344.155C436.136 343.798 435.192 344.16 434.367 344.519C432.373 345.389 430.379 346.258 428.385 347.128C427.956 347.315 427.477 347.559 427.362 348.012C427.26 348.418 427.495 348.825 427.72 349.178C429.17 351.447 430.619 353.717 432.069 355.987C432.29 356.332 432.541 356.702 432.931 356.829C433.355 356.966 433.808 356.776 434.212 356.587C436.972 355.299 439.703 353.949 442.403 352.539ZM306.15 105.66C301.456 105.74 297.931 100.403 298.804 95.7902C299.678 91.1774 303.825 87.7256 308.316 86.3581C314.419 84.4999 321.706 85.5871 326.57 81.4597C328.756 79.6056 330.09 76.9424 332.08 74.8803C336.417 70.3856 343.963 69.4346 349.28 72.7126C350.475 69.5798 346.942 66.5508 343.636 65.9929C340.33 65.435 336.765 66.1013 333.72 64.6992C328.37 62.2361 322.071 65.4003 317.789 69.4443C313.507 73.4883 309.997 78.5826 304.719 81.1976C299.442 83.8127 291.458 82.3542 290.007 76.6462C289.554 74.8675 289.499 72.5109 287.764 71.9112C285.028 70.9653 283.605 67.7712 283.767 64.8811C283.93 61.9909 285.315 59.3304 286.671 56.7728C281.31 56.5025 275.926 56.6689 270.592 57.2698C269.312 57.4139 267.685 57.9541 267.688 59.2418C267.694 61.9032 265.223 63.8123 263.003 65.2798C258.304 68.3858 253.605 71.4918 248.906 74.5978C249.053 77.7002 253.627 78.4422 256.306 76.8711C258.986 75.3 260.873 72.4914 263.761 71.3494C265.304 70.7396 266.998 70.6647 268.655 70.5973C271.486 70.4821 274.317 70.3669 277.149 70.2518C280.776 70.1042 285.67 71.0252 285.862 74.6508C286.019 77.6243 282.718 79.3616 280.604 81.459C275.793 86.2331 275.811 95.4738 269.497 97.938C267.253 98.8137 266.65 101.921 267.634 104.12C268.618 106.318 270.671 107.812 272.613 109.237C306.506 134.106 365.551 198.222 366.843 198.393C368.135 198.564 369.65 197.637 369.578 196.336C369.391 192.972 369.21 189.546 370.033 186.279C370.856 183.011 372.853 179.866 375.933 178.5C378.772 177.24 382.903 176.956 383.517 173.911C384.893 167.102 391.71 161.836 398.646 162.225C402.054 162.416 405.814 163.717 408.65 161.818C406.363 159.648 402.983 159.201 400.147 157.823C397.311 156.446 394.817 152.959 396.511 150.3C399.014 146.374 395.369 141.24 396.118 136.645C396.436 134.694 397.537 132.968 398.702 131.372C402.65 125.961 407.637 121.31 413.31 117.749C414.629 116.921 414.96 115.178 415.167 113.635C415.669 109.908 416.17 106.182 416.672 102.455C417.022 99.8556 417.259 96.8722 415.475 94.9491C409.669 88.6907 400.003 88.4857 391.471 88.7641C382.939 89.0425 373.298 88.9327 367.387 82.7733C365.553 80.8615 362.202 81.5115 360.213 83.2611C358.223 85.0107 357.123 87.53 355.642 89.7271C351.015 96.5905 342.057 100.228 333.955 98.5336C329.615 97.6259 325.24 95.3392 320.979 96.5638C315.3 98.1963 312.059 105.559 306.15 105.66ZM469.213 274.586C469.473 275.533 469.855 276.614 470.784 276.933C471.529 277.189 472.333 276.84 473.042 276.498C475.399 275.363 477.756 274.227 480.114 273.092C481.323 272.51 482.682 271.736 482.898 270.411C487.262 243.532 485.998 215.752 479.21 189.38C477.605 183.143 475.691 176.973 473.14 171.06C469.881 163.507 465.611 156.437 461.228 149.476C454.918 139.456 448.344 129.603 441.513 119.931C440.246 121.907 439.869 124.302 439.224 126.559C438.58 128.817 437.499 131.157 435.425 132.258C433.351 133.358 430.166 132.424 429.798 130.105C429.003 125.092 423.624 121.302 418.636 122.24C417.563 122.442 417.209 123.776 417.075 124.859C415.861 134.706 414.647 144.553 413.433 154.399C413.344 155.115 413.308 155.967 413.871 156.418C414.339 156.793 415.008 156.709 415.609 156.7C419.003 156.649 421.964 160.195 421.308 163.527C420.652 166.858 416.569 169.017 413.446 167.683C412.099 167.107 411.043 168.934 410.705 170.36C408.666 178.968 406.627 187.575 404.588 196.183C403.987 198.722 406.179 201.118 408.537 202.234C410.896 203.349 413.591 203.753 415.755 205.211C421.175 208.861 420.942 217.163 425.325 222.011C428.895 225.959 435.503 226.678 439.838 223.589C443.718 220.824 445.404 215.777 445.406 211.013C445.407 207.765 447.425 204.603 450.37 203.232C453.314 201.862 457.033 202.355 459.519 204.446C461.94 206.482 463.037 209.646 464.029 212.65C464.466 213.975 464.904 215.421 464.435 216.735C463.667 218.883 461.026 219.52 458.867 220.257C454.902 221.612 451.427 224.356 449.189 227.899C448.096 229.628 447.356 232.052 448.708 233.587C452.012 237.336 455.317 241.085 458.621 244.834C460.349 246.795 462.129 248.849 462.822 251.368C464.952 259.108 467.082 266.847 469.213 274.586ZM132.622 151.338C137.8 141.674 143.029 131.933 150.063 123.523C156.224 116.158 163.644 109.965 171.053 103.858C180.815 95.8114 190.636 87.8371 200.516 79.9359C204.628 76.6471 208.805 73.3374 213.599 71.1594C199.225 64.8255 184.76 58.4601 169.5 54.7396C154.24 51.0191 137.986 50.0492 122.928 54.5198C121.478 54.9505 120.021 55.4406 118.768 56.2901C116.654 57.7248 115.318 60.0488 114.316 62.3996C110.378 71.6387 110.599 82.107 111.88 92.0683C114.569 112.98 121.685 133.313 132.622 151.338ZM457.156 438.149C457.021 439.553 455.507 440.872 454.235 440.263C453.635 439.974 453.269 439.363 452.938 438.785C447.868 429.935 442.799 421.084 437.729 412.233C434.458 413.463 432.886 417.407 433.253 420.883C433.621 424.359 435.474 427.476 437.283 430.467C440.05 435.041 442.818 439.615 445.585 444.189C444.13 445.687 441.787 443.695 440.71 441.907C436.87 435.532 433.03 429.157 429.19 422.782C421.855 430.326 414.521 437.869 407.187 445.413C411.964 452.879 416.74 460.345 421.516 467.81C422.642 469.57 425.052 470.131 427.093 469.689C429.135 469.247 430.899 468.009 432.601 466.798C445.401 457.694 458.201 448.591 471.001 439.487C471.975 438.795 473.016 438.005 473.302 436.845C473.601 435.633 472.98 434.403 472.379 433.309C443.423 380.634 412.52 329.031 379.754 278.639C378.789 277.155 377.57 275.517 375.804 275.4C374.627 275.322 373.536 275.962 372.532 276.581C359.536 284.578 346.541 292.575 333.545 300.572C331.139 302.053 328.733 303.533 326.327 305.014C325.701 305.399 325.026 305.845 324.816 306.55C324.569 307.383 325.061 308.239 325.535 308.967C330.268 316.24 335.266 323.341 340.514 330.251C346.715 323.577 354.094 316.388 363.202 316.614C371.065 316.809 377.553 322.529 383.281 327.92C386.631 331.074 389.982 334.228 393.332 337.382C388.037 327.461 381.776 318.057 374.667 309.344C374.36 307.877 376.944 308.278 377.939 309.398C387.86 320.558 393.321 335.224 403.768 345.892C414.444 356.794 425.12 367.696 435.796 378.598C440.331 383.229 445.143 388.461 445.5 394.932C445.827 400.842 442.323 406.218 438.8 410.975C445.01 418.305 450.69 426.085 455.782 434.232C456.529 435.428 457.292 436.745 457.156 438.149ZM344.092 57.9891C348.588 58.88 353.089 59.7723 357.5 61.0177C368.86 64.2254 379.422 69.7145 389.892 75.1666C399.03 79.9249 408.218 84.7148 416.42 90.9495C417.311 68.661 416.428 46.5302 409.012 25.4928C406.873 19.4263 401.708 12.8846 396.683 8.86853C390.783 4.15313 382.593 3.32332 375.117 4.39287C362.057 6.26122 350.161 13.2559 340.364 22.0918C330.566 30.9277 322.622 41.5885 314.746 52.1731C324.528 54.1118 334.31 56.0504 344.092 57.9891ZM475.293 166.174C487.913 198.369 492.034 233.851 487.129 268.081C503.143 258.904 517.457 246.769 529.131 232.472C534.949 225.348 540.34 216.963 539.961 207.773C539.649 200.221 535.353 193.249 529.68 188.254C524.008 183.258 517.04 179.992 510.038 177.145C498.775 172.566 487.144 168.893 475.293 166.174ZM450.546 221.22C453.511 219.045 456.684 217.152 460.008 215.578C459.999 213.457 459.977 211.267 459.125 209.324C458.274 207.382 456.365 205.738 454.249 205.884C452.025 206.037 450.347 208.068 449.641 210.182C448.935 212.297 448.923 214.577 448.434 216.752C447.084 222.768 441.753 227.678 435.647 228.531C429.541 229.384 423.068 226.122 420.121 220.707C417.746 216.343 417.39 210.696 413.605 207.476C411.509 205.693 408.719 205.008 406.039 204.378C405.417 204.232 404.755 204.087 404.151 204.294C403.179 204.626 402.723 205.712 402.38 206.681C400.086 213.167 397.792 219.654 395.497 226.14C394.649 228.54 393.951 231.607 395.847 233.304C413.36 248.977 420.489 273.905 438.299 289.239C438.827 289.693 439.476 290.167 440.154 290.007C448.65 287.99 456.887 284.884 464.599 280.787C465.212 280.461 465.852 280.101 466.205 279.502C466.562 278.894 466.56 278.147 466.523 277.443C466.269 272.596 464.829 267.816 462.362 263.636C461.195 261.66 459.764 259.708 459.541 257.423C459.351 255.473 460.076 253.472 459.613 251.568C459.234 250.013 458.12 248.759 457.044 247.574C454.002 244.227 450.961 240.879 447.92 237.532C446.416 235.876 444.853 234.11 444.392 231.921C443.494 227.657 447.032 223.799 450.546 221.22ZM259.936 122.672C263.524 120.514 265.698 116.209 265.306 112.041C264.733 105.958 259.495 101.525 254.659 97.7912C246.736 91.6731 228.618 76.8077 220.652 73.6124C212.686 70.4172 177.442 101.855 165.195 113.909C164.576 114.518 163.931 115.182 163.759 116.032C163.586 116.883 159.844 126.036 167.379 128.261C174.915 130.485 175.722 128.771 178.801 126.036C181.879 123.301 183.671 119.421 185.117 115.565C186.353 112.272 190.088 110.696 193.534 109.994C196.98 109.292 200.694 109.031 203.545 106.971C206.513 104.825 210.659 104.95 214.043 106.353C217.426 107.755 220.221 110.25 222.944 112.7C225.219 114.746 228.897 112.458 230.3 109.738C231.702 107.018 232.291 103.662 234.744 101.833C238.251 99.2168 243.634 101.558 245.793 105.364C248.864 110.775 246.693 118.503 241.252 121.523C238.1 123.273 233.486 124.446 233.36 128.049C233.298 129.841 234.549 131.417 235.942 132.545C238.443 134.567 242.515 135.527 244.645 133.118C247.68 129.684 244.29 122.428 248.495 120.604C252.208 118.994 256.468 124.759 259.936 122.672ZM355.81 84.2609C357.067 82.3097 358.328 80.1722 360.426 79.1778C363.107 77.9068 366.327 78.9164 368.87 80.4446C371.414 81.9727 373.685 84.0178 376.475 85.0285C379.314 86.0573 382.425 85.9183 385.442 85.7661C390.458 85.5129 395.475 85.2598 400.491 85.0066C370.168 67.437 336.059 55.1152 301.015 54.7689C298.061 54.7397 295.039 54.8071 292.267 55.829C289.496 56.8509 286.978 59.0019 286.268 61.8694C285.186 66.2361 289.158 70.9036 293.655 71.0429C291.306 72.7624 291.668 76.7561 293.905 78.6181C296.143 80.48 299.492 80.4655 302.178 79.3443C304.864 78.2231 307.041 76.1786 309.154 74.1763C313.087 70.4499 317.019 66.7235 320.951 62.9971C323.423 60.655 327.272 60.5557 330.612 61.2166C333.952 61.8776 337.222 63.1569 340.626 63.0742C347.774 62.9006 354.105 70.2388 352.886 77.2838C349.678 74.2584 345.011 72.8562 340.667 73.6124C336.322 74.3686 332.404 77.2651 330.407 81.1965C328.788 84.3838 325.174 86.0682 321.659 86.7239C318.145 87.3797 314.514 87.2426 311.013 87.9659C307.512 88.6893 303.943 90.5323 302.511 93.8079C301.079 97.0835 302.95 101.755 306.51 102.085C310.656 102.47 313.076 97.6013 316.564 95.3263C319.883 93.1613 324.216 93.4448 328.089 94.2864C331.961 95.128 335.833 96.4552 339.781 96.1137C346.642 95.5202 352.078 90.0494 355.81 84.2609ZM466.857 283.92C458.911 286.983 450.966 290.047 443.02 293.11C441.915 293.537 440.569 294.626 441.234 295.606C448.812 306.792 454.646 319.157 458.46 332.119C458.831 333.381 460.746 332.437 461.494 331.355C468.444 321.308 473.984 310.288 477.904 298.718C478.613 296.624 479.274 294.362 478.665 292.236C477.709 288.896 474.119 287.212 471.473 284.96C470.743 284.338 470.003 283.618 469.054 283.48C468.306 283.371 467.562 283.648 466.857 283.92ZM375.196 184.567C371.546 188.443 374.612 195.008 372.737 199.99C372.321 201.095 371.65 202.26 372.033 203.376C372.224 203.932 372.652 204.369 373.067 204.785C374.365 206.085 375.663 207.386 376.961 208.686C377.979 209.707 379.632 210.764 380.694 209.788C385.059 205.774 390.347 202.769 396.029 201.073C397.666 200.585 399.436 200.143 400.579 198.874C401.586 197.754 401.911 196.197 402.198 194.718C403.802 186.44 405.396 178.16 406.978 169.877C407.102 169.231 407.221 168.538 406.958 167.935C406.678 167.296 406.032 166.904 405.402 166.604C399.01 163.559 390.413 166.679 387.462 173.115C386.46 175.3 385.998 177.829 384.316 179.545C381.864 182.046 377.597 182.017 375.196 184.567ZM247.739 78.6776C246.504 77.5558 245.225 76.1482 245.347 74.4837C245.477 72.7097 247.12 71.4863 248.609 70.5126C253.884 67.0626 259.158 63.6126 264.433 60.1625C264.305 59.138 262.869 59.0297 261.853 59.2145C248.194 61.6983 234.813 65.7019 222.035 71.1277C236.285 79.9123 249.956 89.6364 262.93 100.216C264.504 96.6418 268.557 94.8825 270.956 91.8007C273.986 87.9074 274.213 82.1256 277.94 78.8928C279.769 77.3065 282.486 76.2068 282.852 73.8136C279.652 73.836 276.452 73.8584 273.253 73.8807C269.361 73.9079 265.217 74.0088 261.983 76.1746C259.16 78.0649 256.991 81.5027 253.595 81.5997C251.358 81.6636 249.397 80.182 247.739 78.6776ZM407.258 291.54C409.742 295.993 412.225 300.445 414.709 304.898C410.159 290.423 404.734 276.223 398.472 262.402C398.25 261.911 397.995 261.386 397.519 261.134C396.931 260.823 396.215 261.029 395.585 261.239C377.945 267.137 360.304 273.035 342.664 278.933C342.128 279.113 341.547 279.327 341.259 279.813C340.913 280.397 341.12 281.14 341.352 281.778C342.385 284.631 343.738 287.367 345.377 289.921C356.44 283.483 367.504 277.046 378.567 270.609C380.27 269.618 382.063 268.6 384.032 268.525C385.661 268.464 387.245 269.061 388.7 269.796C397.344 274.155 402.542 283.086 407.258 291.54ZM327.165 412.001C324.941 407.251 321.126 403.363 316.745 400.48C311.366 410.473 305.192 420.039 298.303 429.058C297.776 429.748 297.582 431.16 298.448 431.099C306.849 430.508 315.249 429.918 323.65 429.327C325.336 429.208 327.363 428.854 327.982 427.281C329.904 422.402 329.389 416.75 327.165 412.001ZM453.999 341.934C454.679 340.892 455.372 339.822 455.647 338.608C456.012 337.003 455.609 335.333 455.176 333.745C451.844 321.535 446.602 309.881 440.06 299.047C439.298 297.785 438.478 296.493 437.238 295.698C435.998 294.902 434.215 294.756 433.133 295.756C431.688 297.092 432.236 299.451 432.895 301.306C438.11 316 443.326 330.695 448.542 345.39C448.853 346.265 449.561 347.342 450.427 347.006C450.764 346.876 450.984 346.555 451.181 346.252C452.121 344.813 453.06 343.373 453.999 341.934ZM401.652 155.038C403.162 156.311 405.165 156.793 407.09 157.237C408.633 157.593 409.546 155.58 409.813 154.019C411.598 143.593 412.744 133.069 413.889 122.553C413.013 122.181 412.084 122.897 411.402 123.559C408.948 125.94 406.494 128.32 404.04 130.701C402.332 132.358 400.546 134.148 400.004 136.466C398.973 140.877 402.733 145.903 400.356 149.76C399.32 151.441 400.142 153.765 401.652 155.038ZM396.307 238.443C395.719 237.781 395.082 237.098 394.239 236.825C393.396 236.552 392.296 236.861 392.003 237.698C389.391 245.171 386.779 252.644 384.166 260.117C383.918 260.827 384.085 262.023 384.806 261.811C389.212 260.51 393.277 258.209 397.702 256.973C402.127 255.738 407.3 255.753 410.836 258.687C406.713 251.459 401.835 244.663 396.307 238.443ZM434.047 129.165C435.372 125.57 436.697 121.975 438.023 118.38C438.28 117.683 437.771 116.958 437.293 116.389C432.562 110.753 427.791 105.079 422.063 100.46C421.819 100.263 421.542 100.058 421.229 100.074C420.634 100.106 420.397 100.847 420.313 101.437C419.599 106.449 418.886 111.462 418.173 116.474C417.965 117.935 419.311 119.205 420.721 119.637C422.132 120.069 423.651 119.948 425.102 120.218C427.776 120.716 430.145 122.631 431.193 125.142C431.857 126.735 432.349 128.854 434.047 129.165ZM391.748 225.991C394.253 219.585 396.551 213.097 398.636 206.541C398.776 206.1 398.916 205.621 398.767 205.182C398.37 204.011 396.636 204.314 395.531 204.868C391.187 207.044 387.01 209.553 383.048 212.365C382.556 212.714 382.018 213.154 382 213.757C381.986 214.214 382.279 214.615 382.56 214.975C385.503 218.745 388.568 222.419 391.748 225.991ZM428.496 331.59C428.027 331.078 427.256 330.998 426.561 331.01C424.991 331.036 423.425 331.356 421.971 331.949C421.255 332.241 420.544 332.603 419.772 332.643C419 332.682 418.134 332.28 417.944 331.531C419.984 330.072 422.459 329.229 424.965 329.137C426.08 329.096 426.112 327.204 425.133 326.668C424.155 326.132 422.949 326.524 421.907 326.925C420.186 327.586 418.465 328.247 416.744 328.908C416.243 329.101 415.727 328.495 415.8 327.963C415.872 327.432 416.304 327.028 416.73 326.702C418.279 325.519 420.126 324.732 422.052 324.435C422.969 324.293 423.117 322.869 422.447 322.227C421.776 321.585 420.745 321.543 419.818 321.591C417.121 321.732 414.448 322.317 411.939 323.314C414.078 327.153 416.263 330.967 418.493 334.755C419.07 335.735 419.696 336.76 420.696 337.303C422.492 335.035 425.223 333.531 428.1 333.227C428.791 333.154 428.966 332.102 428.496 331.59ZM465.349 400.854C463.7 401.275 462.066 401.755 460.451 402.293C460.009 402.44 459.499 402.671 459.424 403.131C459.379 403.404 459.511 403.672 459.639 403.918C460.587 405.741 461.536 407.563 462.484 409.386C462.869 410.125 463.643 410.993 464.362 410.57C466.727 409.18 469.369 408.262 472.087 407.886C472.835 407.783 473.324 406.981 473.341 406.226C473.359 405.471 473.024 404.758 472.698 404.077C472.138 402.91 471.523 401.681 470.422 401.001C468.941 400.086 467.035 400.424 465.349 400.854ZM471.712 420.883C471.067 421.001 470.322 421.196 470.069 421.801C469.863 422.294 470.081 422.852 470.297 423.341C471.119 425.208 471.942 427.074 472.765 428.941C473.022 429.524 473.361 430.178 473.983 430.317C474.426 430.415 474.874 430.214 475.283 430.018C476.551 429.411 477.819 428.804 479.087 428.196C479.801 427.854 480.557 427.474 480.948 426.786C481.34 426.099 481.132 425.022 480.369 424.813C479.962 424.7 479.532 424.86 479.152 425.045C478.017 425.597 476.993 426.399 475.781 426.751C474.569 427.103 473.026 426.833 472.451 425.709C475.437 424.649 478.293 423.218 480.93 421.461C480.693 419.812 478.383 419.666 476.745 419.965C475.067 420.271 473.39 420.577 471.712 420.883ZM447.312 378.028C447.797 377.5 448.502 377.241 449.178 377.001C451.038 376.34 452.898 375.679 454.759 375.017C455.726 374.673 455.488 373.066 454.576 372.596C453.664 372.126 452.562 372.419 451.581 372.721C449.453 373.377 447.326 374.032 445.198 374.687C444.921 374.773 444.629 374.867 444.434 375.083C443.989 375.576 444.288 376.352 444.604 376.936C445.447 378.494 446.291 380.051 447.134 381.609C447.232 381.791 447.342 381.984 447.53 382.072C447.756 382.178 448.021 382.097 448.257 382.015C450.846 381.12 453.435 380.226 456.025 379.331C456.642 379.117 457.384 378.726 457.332 378.075C457.261 377.186 455.958 377.179 455.108 377.449C452.445 378.294 449.782 379.139 447.119 379.984C446.649 379.442 446.826 378.556 447.312 378.028ZM480.412 276.426C478.119 277.721 475.827 279.017 473.534 280.312C473.258 280.468 472.969 280.637 472.818 280.916C472.418 281.652 473.208 282.451 473.904 282.917C475.33 283.873 476.756 284.828 478.182 285.784C478.463 285.972 478.765 286.167 479.103 286.17C479.871 286.177 480.267 285.274 480.464 284.531C481.096 282.149 481.729 279.766 482.361 277.383C482.441 277.084 482.518 276.756 482.39 276.474C482.08 275.794 481.062 276.058 480.412 276.426ZM450.228 383.365C449.674 383.507 449.043 383.715 448.836 384.248C448.682 384.644 448.822 385.092 449.002 385.477C449.466 386.469 450.201 387.332 451.106 387.949C453.511 387.031 455.917 386.113 458.322 385.195C459.356 384.8 460.579 384.136 460.535 383.03C460.504 382.239 459.757 381.625 458.98 381.473C458.203 381.32 457.405 381.519 456.638 381.716C454.501 382.266 452.365 382.815 450.228 383.365ZM415.377 296.838C416.218 298.481 418.3 298.957 420.122 299.252C423.028 299.723 425.933 300.193 428.839 300.664C428.889 299.015 427.188 297.919 425.677 297.257C422.907 296.043 420.016 295.106 417.061 294.464C416.742 294.395 416.41 294.329 416.093 294.406C415.146 294.634 414.934 295.971 415.377 296.838ZM404.606 295.595C404.834 295.508 405.064 295.421 405.26 295.277C406.127 294.64 405.863 293.142 404.979 292.53C404.094 291.917 402.896 292 401.87 292.322C400.843 292.645 399.886 293.179 398.836 293.416C397.418 293.736 395.563 293.722 395.02 295.07C394.556 296.221 395.62 297.525 396.832 297.792C398.044 298.059 399.287 297.612 400.448 297.171C401.834 296.646 403.22 296.12 404.606 295.595ZM410.184 305.98C411.355 305.217 410.813 303.205 409.568 302.569C408.323 301.933 406.827 302.23 405.464 302.542C404.026 302.871 402.491 303.256 401.512 304.358C400.533 305.461 400.534 307.527 401.87 308.151C403.686 308.999 405.388 306.604 407.37 306.308C408.317 306.166 409.382 306.503 410.184 305.98ZM451.287 370.432C451.679 370.302 452.095 370.153 452.347 369.826C452.629 369.46 452.639 368.94 452.48 368.507C452.107 367.495 450.94 366.956 449.861 366.975C448.782 366.995 447.766 367.454 446.785 367.904C445.536 368.477 444.288 369.05 443.039 369.623C442.353 369.938 441.577 370.366 441.463 371.113C441.348 371.872 442.045 372.562 442.796 372.722C443.547 372.883 444.321 372.657 445.055 372.431C447.14 371.789 449.217 371.123 451.287 370.432ZM456.912 396.87C459.601 395.739 462.29 394.609 464.979 393.478C465.233 393.371 465.496 393.258 465.681 393.054C466.227 392.449 465.729 391.395 464.968 391.104C464.207 390.813 463.357 391.038 462.574 391.265C460.757 391.791 458.94 392.317 457.123 392.844C456.118 393.135 454.993 393.526 454.569 394.483C453.991 395.791 455.594 397.424 456.912 396.87ZM475.063 412.545C476.137 412.13 475.745 410.32 474.679 409.887C473.613 409.453 472.415 409.899 471.335 410.296C469.218 411.076 467.035 411.68 464.818 412.098C464.045 413.139 464.987 414.733 466.234 415.086C467.481 415.44 468.796 414.966 470.005 414.499C471.691 413.848 473.377 413.197 475.063 412.545ZM417.82 292.045C419.987 292.613 422.153 293.181 424.32 293.748C425.145 293.964 426.416 293.843 426.356 292.993C422.614 290.406 418.309 288.638 413.828 287.851C413.591 287.809 413.34 287.771 413.114 287.853C412.337 288.136 412.633 289.34 413.218 289.924C414.429 291.132 416.166 291.611 417.82 292.045ZM426.007 283.675C426.773 285.517 427.539 287.36 428.305 289.202C428.767 290.312 429.286 291.491 430.304 292.129C431.321 292.768 432.978 292.497 433.312 291.343C433.566 290.463 432.971 289.584 432.406 288.863C430.249 286.113 428.027 283.412 425.743 280.765C425.237 281.641 425.618 282.741 426.007 283.675ZM422.296 287.137C422.702 287.277 423.197 287.403 423.526 287.126C423.911 286.801 423.772 286.172 423.51 285.742C422.561 284.179 420.639 283.56 418.88 283.06C416.515 282.388 414.15 281.716 411.784 281.044C411.049 280.836 410.496 281.908 410.84 282.59C411.184 283.273 411.975 283.579 412.698 283.828C415.897 284.931 419.096 286.034 422.296 287.137ZM453.922 388.722C453.258 388.924 452.535 389.168 452.171 389.76C451.525 390.812 452.47 392.186 453.581 392.726C456.089 390.685 459.286 389.505 462.518 389.427C463.619 389.4 463.715 387.556 462.782 386.972C461.849 386.389 460.639 386.69 459.585 387.009C457.698 387.58 455.81 388.151 453.922 388.722ZM443.416 359.925C441.891 360.328 440.366 360.732 438.841 361.135C437.442 361.505 435.689 362.42 436.025 363.827C436.311 365.025 437.984 365.297 439.107 364.792C440.231 364.288 441.087 363.31 442.205 362.794C444.033 361.95 446.606 362.258 447.631 360.526C446.758 359.286 444.882 359.538 443.416 359.925ZM386.258 279.276C385.965 279.403 385.663 279.547 385.47 279.801C384.972 280.457 385.515 281.476 386.287 281.763C387.058 282.051 387.915 281.844 388.715 281.653C391.406 281.008 394.144 280.562 396.901 280.319C397.169 278.807 395.192 277.96 393.658 277.899C391.13 277.798 388.581 278.273 386.258 279.276ZM430.856 337.907C431.647 337.069 431.2 335.204 430.069 335.424C427.073 336.009 424.184 337.143 421.589 338.751C420.982 339.986 422.661 341.267 424.02 341.053C425.379 340.838 426.471 339.842 427.744 339.32C428.809 338.884 430.066 338.744 430.856 337.907ZM432.498 310.829C432.143 310.38 431.575 310.167 431.036 309.975C428.417 309.038 425.798 308.102 423.179 307.165C422.462 306.909 421.659 306.654 420.962 306.96C420.265 307.265 419.987 308.421 420.669 308.758C424.025 310.417 427.592 311.647 431.256 312.41C431.638 312.489 432.064 312.556 432.392 312.347C432.875 312.04 432.853 311.278 432.498 310.829ZM420.167 280.016C420.54 280.237 421.031 279.818 421.041 279.384C421.051 278.95 420.759 278.573 420.466 278.253C417.652 275.183 413.523 273.75 409.574 272.429C408.572 272.094 407.107 271.981 406.815 272.996C411.38 275.108 415.839 277.452 420.167 280.016ZM478.418 416.192C478.182 415.37 477.314 414.857 476.462 414.772C475.61 414.686 474.765 414.939 473.946 415.189C472.518 415.626 471.089 416.063 469.66 416.5C468.673 416.801 467.473 417.395 467.556 418.424C467.623 419.261 468.599 419.762 469.435 419.682C470.271 419.602 471.008 419.129 471.766 418.767C473.419 417.975 475.305 417.679 477.121 417.926C477.969 418.042 478.654 417.015 478.418 416.192ZM388.81 285.536C388.798 286.309 389.402 287.047 390.163 287.187C390.654 287.277 391.157 287.142 391.638 287.008C394.419 286.233 397.201 285.457 399.982 284.682C400.026 283.901 399.35 283.225 398.601 282.999C397.852 282.772 397.047 282.888 396.273 283.006C394.253 283.313 392.233 283.621 390.213 283.928C389.449 284.044 388.822 284.763 388.81 285.536ZM434.748 341.166C434.858 340.44 434.144 339.799 433.415 339.707C432.686 339.616 431.97 339.913 431.296 340.205C429.149 341.131 427.003 342.058 424.857 342.985C424.219 343.795 425.004 345.081 426.011 345.308C427.017 345.536 428.037 345.076 428.966 344.628C430.433 343.921 431.899 343.214 433.365 342.507C433.968 342.216 434.647 341.828 434.748 341.166ZM404.052 266.848C404.3 267.289 404.791 267.523 405.253 267.73C409.077 269.443 412.901 271.157 416.726 272.87C417.405 273.174 418.395 273.381 418.73 272.716C419.089 272.004 418.203 271.322 417.468 271.01C413.353 269.262 409.239 267.514 405.125 265.766C404.918 265.679 404.697 265.589 404.476 265.626C403.977 265.709 403.805 266.407 404.052 266.848ZM423.858 316.185C423.73 316.131 423.592 316.076 423.455 316.103C423.313 316.13 423.195 316.254 423.175 316.398C423.509 318.687 426.077 319.815 428.277 320.529C431.153 321.462 434.028 322.396 436.904 323.329C437.595 322.564 436.467 321.506 435.517 321.105C431.631 319.465 427.744 317.825 423.858 316.185ZM402.595 289.362C402.916 288.758 402.433 288.002 401.824 287.689C400.761 287.142 399.478 287.448 398.325 287.764C397.012 288.124 395.699 288.485 394.386 288.845C393.44 289.105 392.299 289.596 392.264 290.576C392.237 291.31 392.93 291.91 393.652 292.045C394.374 292.179 395.11 291.967 395.814 291.757C397.687 291.198 399.56 290.639 401.433 290.079C401.881 289.946 402.375 289.776 402.595 289.362ZM467.7 395.853C466.919 395.401 465.937 395.665 465.078 395.939C462.344 396.813 459.611 397.687 456.878 398.561C456.273 399.529 457.373 400.817 458.512 400.885C459.652 400.953 460.685 400.288 461.69 399.749C463.52 398.768 465.537 398.138 467.599 397.901C468.496 397.798 468.481 396.305 467.7 395.853ZM415.499 312.875C414.624 312.64 413.697 312.803 412.805 312.968C411.702 313.171 410.6 313.375 409.497 313.578C408.246 313.809 406.66 314.456 406.793 315.72C406.871 316.467 407.608 317.006 408.35 317.114C409.093 317.222 409.839 317.001 410.557 316.783C412.758 316.113 414.959 315.442 417.16 314.772C417.181 313.866 416.375 313.109 415.499 312.875ZM407.993 298.048C407.38 297.423 406.372 297.379 405.532 297.621C404.691 297.864 403.938 298.342 403.117 298.643C402.149 298.999 401.102 299.104 400.137 299.469C399.173 299.833 398.24 300.562 398.073 301.58C398.435 302.427 399.652 302.332 400.541 302.093C402.898 301.458 405.255 300.823 407.613 300.189C408.457 299.961 408.605 298.673 407.993 298.048ZM404.712 309.582C403.731 309.867 403.9 311.49 404.795 311.984C405.691 312.477 406.797 312.205 407.779 311.921C409.84 311.326 411.9 310.731 413.961 310.135C414.111 309.106 413.17 308.174 412.154 307.95C411.138 307.726 410.087 308.019 409.088 308.31C407.629 308.734 406.171 309.158 404.712 309.582ZM416.404 164.607C417.714 163.664 417.513 161.716 417.551 160.102C415.844 159.893 413.973 159.72 412.533 160.662C411.093 161.603 410.707 164.145 412.249 164.909C412.778 165.172 413.396 165.164 413.987 165.152C414.826 165.134 415.723 165.097 416.404 164.607ZM419.706 301.86C418.881 301.775 417.679 302.14 417.914 302.935C418.026 303.317 418.446 303.505 418.82 303.64C422.411 304.939 426.161 305.798 429.959 306.194C430.429 306.085 430.567 305.42 430.321 305.005C430.075 304.589 429.601 304.375 429.154 304.195C426.134 302.981 422.944 302.193 419.706 301.86ZM402.993 261.996C406.099 263.592 409.265 265.072 412.482 266.432C413.107 266.696 413.816 266.958 414.443 266.7C415.071 266.443 415.311 265.391 414.689 265.119C411.032 263.519 407.375 261.918 403.718 260.318C403.137 260.064 402.309 259.882 401.995 260.433C401.651 261.037 402.375 261.678 402.993 261.996ZM433.737 315.533C433.207 315.052 432.496 314.837 431.811 314.636C428.925 313.788 426.04 312.94 423.155 312.093C422.755 311.975 422.311 311.861 421.938 312.045C421.564 312.228 421.429 312.857 421.803 313.04C425.75 314.975 429.918 316.461 434.199 317.461C434.553 316.841 434.266 316.013 433.737 315.533ZM436 360.061C438.058 359.333 440.115 358.606 442.172 357.878C443.078 357.558 444.049 357.187 444.568 356.379C444.435 355.655 443.651 355.198 442.915 355.184C442.178 355.17 441.481 355.488 440.814 355.8C439.011 356.642 437.208 357.485 435.404 358.327C434.753 358.632 434.003 359.079 433.991 359.798C434.33 360.458 435.301 360.308 436 360.061ZM419.652 318.912C420.132 318.377 419.7 317.448 419.032 317.182C418.364 316.915 417.611 317.099 416.916 317.285C414.555 317.916 412.194 318.548 409.832 319.18C409.404 319.677 409.789 320.515 410.391 320.775C410.993 321.034 411.684 320.896 412.325 320.754C414.455 320.281 416.586 319.808 418.716 319.335C419.056 319.26 419.419 319.171 419.652 318.912ZM448.506 363.167C448.019 363.06 447.521 363.252 447.06 363.44C444.543 364.469 442.026 365.498 439.508 366.527C438.779 366.825 439.073 368.062 439.813 368.333C440.553 368.603 441.362 368.253 442.071 367.91C444.234 366.863 446.397 365.816 448.56 364.769C448.806 364.65 449.069 364.515 449.189 364.27C449.41 363.823 448.993 363.274 448.506 363.167ZM430.023 323.189C429.054 322.831 427.656 322.643 427.269 323.601C430.681 325.358 434.299 326.712 438.026 327.627C438.788 327.167 437.837 326.082 437.003 325.773C434.676 324.912 432.35 324.051 430.023 323.189ZM383.091 276.044C382.44 276.784 383.081 278.187 384.067 278.179C386.32 276.707 388.952 275.821 391.636 275.628C390.785 274.563 389.311 274.159 387.953 274.266C386.594 274.372 385.313 274.914 384.059 275.448C383.708 275.598 383.343 275.757 383.091 276.044ZM438.223 331.327C438.961 331.505 440.123 331.298 439.939 330.561C436.857 329.17 433.609 328.147 430.286 327.521C429.92 328.016 430.14 328.764 430.599 329.175C431.058 329.586 431.683 329.744 432.282 329.889C434.262 330.368 436.242 330.848 438.223 331.327ZM435.892 335.187C437.618 335.721 439.404 336.058 441.206 336.188C441.567 335.711 441.361 334.982 440.919 334.578C440.478 334.174 439.873 334.014 439.293 333.866C437.455 333.399 435.617 332.931 433.779 332.464C433.112 333.612 434.623 334.795 435.892 335.187ZM475.187 433.168C474.776 434.179 475.311 435.593 476.393 435.733C477.74 434.44 478.897 432.948 479.815 431.322C479.293 430.757 478.371 430.894 477.65 431.159C476.626 431.536 475.599 432.157 475.187 433.168ZM446.406 349.233C445.529 348.416 444.446 347.822 443.286 347.522C443.1 349.166 444.043 350.879 445.532 351.6C445.889 351.773 446.312 351.891 446.677 351.736C447.598 351.344 447.139 349.916 446.406 349.233ZM442.093 338.904C441.49 338.468 440.71 338.385 439.97 338.316C439.058 338.231 438.146 338.146 437.233 338.061C436.792 339.125 438.043 340.161 439.183 340.328C440.323 340.494 441.571 340.267 442.567 340.846C443.018 340.255 442.696 339.339 442.093 338.904ZM449.161 358.95C449.519 359.255 449.959 359.527 450.427 359.476C450.591 357.237 449.08 355.155 447.197 353.932C446.976 355.79 447.738 357.736 449.161 358.95ZM443.319 343.862C442.262 343.279 441.02 343.041 439.823 343.19C440.257 344.356 441.29 345.281 442.497 345.583C443.144 345.745 443.95 345.673 444.302 345.108C444.654 344.542 443.959 343.606 443.414 343.989M384.172 271.343C383.171 271.52 382.231 272.029 381.536 272.77C382.78 273.12 384.198 272.766 385.132 271.873C384.901 271.564 384.544 271.352 384.162 271.299" fill="#00160A"/>
<path fill-rule="evenodd" clip-rule="evenodd" d="M362.694 370.916C372.906 361.106 387.241 362.489 397.267 373.254C405.986 382.619 403.914 394.991 394.012 405.367C390.277 409.243 382.778 411.813 377.351 411.184C372.757 410.727 365.604 407.342 361.355 404.221C359.389 402.775 357.59 399.797 355.893 395.272L355.643 394.595C352.629 386.239 354.664 377.406 361.492 371.863L361.812 371.608L361.884 371.509C361.943 371.436 362.012 371.366 362.089 371.301L362.213 371.206L362.352 371.117L362.643 370.97L362.694 370.916ZM380.447 404.613L377.358 407.916L377.699 407.945C380.865 408.175 383.963 407.679 386.78 406.482L386.937 406.413L386.718 406.4C384.772 406.261 382.715 405.667 380.578 404.674L380.447 404.613ZM371.435 398.408L371.146 398.143L370.841 398.439C369.644 399.606 368.427 400.802 367.182 402.034L365.772 403.434C366.171 403.724 366.587 404.008 367.019 404.285C368.972 405.559 371.082 406.524 373.265 407.151L373.734 407.28L375.992 404.902L377.681 403.114L377.571 403.048C375.447 401.744 373.36 400.143 371.435 398.408ZM386.169 398.49L382.487 402.43L382.673 402.51C385.538 403.712 388.085 403.939 390.277 403.054L390.508 402.955L390.286 402.705C389.179 401.465 387.988 400.237 386.684 398.982L386.169 398.49ZM363.986 390.177L363.333 390.819C362.392 391.735 361.442 392.645 360.484 393.548L358.977 394.957L359.104 395.259C360.124 397.61 361.546 399.657 363.397 401.447L363.464 401.51L363.674 401.297C365.015 399.936 366.4 398.558 367.843 397.146L368.965 396.052L368.66 395.746C366.982 394.038 365.545 392.366 364.337 390.677L363.986 390.177ZM392.183 392.055L388.165 396.355L388.205 396.393C389.747 397.864 391.156 399.307 392.464 400.765L392.861 401.213L392.873 401.199C394.245 399.336 394.009 396.301 392.362 392.463L392.183 392.055ZM378.124 391.473L377.826 391.753C376.452 393.042 375.059 394.365 373.639 395.731L373.238 396.116L373.612 396.446C375.576 398.162 377.459 399.605 379.339 400.767L379.695 400.981L382.217 398.304L383.953 396.455L383.379 395.946C382.338 395.026 381.213 394.063 379.798 392.874L378.124 391.473ZM399.591 384.131L394.031 390.078L394.212 390.427C394.518 391.03 394.818 391.642 395.113 392.264L395.551 393.205L395.959 394.11C396.374 394.987 396.66 395.859 396.814 396.719L396.837 396.865L397.002 396.566C399.252 392.442 400.174 388.197 399.61 384.254L399.591 384.131ZM387.362 384.066L387.077 383.688L386.063 384.539L383.238 386.875L382.733 387.299C382.213 387.738 381.747 388.14 381.316 388.521L380.815 388.971L380.298 389.448L381.463 390.42C382.763 391.511 383.894 392.48 384.952 393.414L385.958 394.311L389.189 390.85L390.726 389.196L390.714 389.174C389.748 387.47 388.6 385.729 387.362 384.066ZM370.153 384.415L369.911 384.177L369.834 384.259C368.89 385.248 367.937 386.23 366.975 387.204L366.016 388.168L366.216 388.474C367.384 390.224 368.829 391.933 370.515 393.59L370.941 394.003L371.019 394.076L371.15 393.95C372.124 393.02 373.122 392.074 374.155 391.104L375.818 389.547L375.589 389.355C373.717 387.761 371.909 386.118 370.153 384.415ZM359.878 378.106L359.786 378.259C357.499 382.104 356.793 386.883 357.855 391.437L357.951 391.827L357.999 392.012L358.478 391.565C359.481 390.621 360.476 389.667 361.463 388.706L362.468 387.718L362.372 387.543C360.727 384.481 359.866 381.371 359.878 378.176L359.878 378.106ZM378.045 375.227L376.853 376.597C375.499 378.138 374.126 379.662 372.735 381.17L371.915 382.051L372.119 382.249C373.74 383.817 375.419 385.343 377.173 386.843L377.988 387.533L378.767 386.816C379.267 386.362 379.802 385.894 380.408 385.38L381.401 384.548L383.735 382.625C384.157 382.277 384.533 381.963 384.883 381.668L385.225 381.377L385.059 381.184C384.259 380.254 383.504 379.456 382.878 378.87L382.694 378.701C381.422 377.553 380.031 376.503 378.482 375.504L378.045 375.227ZM394.899 375.06L394.774 375.279C393.485 377.464 391.709 379.51 389.293 381.738L389.091 381.921L389.164 382.022C390.219 383.504 391.22 385.056 392.168 386.675L392.512 387.271L395.215 384.352L398.634 380.641L398.555 380.446C397.768 378.578 396.601 376.824 395.048 375.211L394.899 375.06ZM362.907 376.721L362.893 376.847C362.615 379.794 363.193 382.692 364.545 385.543L364.579 385.613L364.94 385.253C365.737 384.445 366.529 383.632 367.316 382.812L367.917 382.182L367.673 381.934C366.288 380.507 364.929 379.033 363.586 377.504L362.907 376.721ZM364.25 373.463L364.044 373.562L364.097 373.626C365.926 375.808 367.79 377.875 369.718 379.858L369.916 380.059L370.721 379.196C372.133 377.665 373.526 376.117 374.9 374.552L375.569 373.783L375.497 373.744C375.157 373.559 374.809 373.374 374.452 373.189L373.909 372.911C370.725 371.348 368.374 371.522 364.57 373.31L364.25 373.463ZM384.158 367.888L382.985 369.343C382.194 370.316 381.395 371.284 380.588 372.245L380.023 372.914L380.167 373.005C382.3 374.381 384.117 375.873 385.61 377.528L385.949 377.913C386.28 378.297 386.606 378.686 386.928 379.081L387.297 379.542L387.348 379.495C389.727 377.278 391.408 375.257 392.56 373.087L392.593 373.021L392.289 372.78C389.204 370.356 386.945 368.915 384.555 368.029L384.158 367.888ZM379.442 367.054C376.42 367.033 373.669 367.573 371.13 368.682L370.985 368.746L371.237 368.78C371.794 368.861 372.34 369.002 372.876 369.205L373.144 369.312C374.583 369.945 375.906 370.579 377.146 371.239L377.561 371.463L378.374 370.504C379.202 369.519 380.022 368.527 380.834 367.529L381.125 367.167L380.771 367.127C380.477 367.097 380.182 367.076 379.886 367.065L379.442 367.054Z" fill="#FFB61D"/>
<path fill-rule="evenodd" clip-rule="evenodd" d="M430.799 160.193C431.755 157.607 435.194 156.539 437.731 157.616C440.269 158.694 441.843 161.389 442.241 164.117C442.639 166.845 442.035 169.617 441.259 172.263C440.551 174.675 439.696 177.044 438.701 179.352C438.609 179.567 438.485 179.807 438.257 179.858C438.014 179.913 437.79 179.724 437.616 179.547C433.304 175.178 430.705 169.163 430.479 163.029C430.443 162.072 430.468 161.091 430.799 160.193M438.253 160.824C437.545 160.217 436.632 159.82 435.701 159.848C433.526 159.914 432.009 162.286 432.057 164.461C432.106 166.636 433.264 168.61 434.389 170.472C435.194 171.806 435.999 173.14 436.804 174.473C437.079 174.928 437.619 175.446 438.046 175.131C438.219 175.004 438.285 174.782 438.342 174.576C438.671 173.364 439.001 172.152 439.33 170.941C439.802 169.209 440.277 167.448 440.247 165.653C440.218 163.858 439.616 161.992 438.253 160.824L438.253 160.824Z" fill="#FFB61D"/>
<path fill-rule="evenodd" clip-rule="evenodd" d="M436.831 167.786C436.301 167.935 435.723 167.907 435.21 167.707C434.215 167.319 433.528 166.253 433.586 165.187C433.643 164.121 434.441 163.135 435.472 162.857C437.034 162.436 438.793 163.875 438.689 165.489C438.622 166.537 437.841 167.501 436.831 167.786Z" fill="#FFB61D"/>
</svg>
