<svg width="574" height="348" viewBox="0 0 574 348" fill="none" xmlns="http://www.w3.org/2000/svg">
<path fill-rule="evenodd" clip-rule="evenodd" d="M27.7806 41.9693C53.8673 85.3612 131.706 138.091 147.039 139.256C195.541 142.94 264.589 151.091 326.259 153.28L328.126 153.344C349.914 154.076 379.489 154.149 416.851 153.562C424.221 146.959 431.099 142.263 437.484 139.472L437.987 139.256C441.405 137.81 450.215 128.605 472.405 119.155C478.51 116.555 496.562 122.366 509.183 117.739L509.799 117.508C519.995 113.615 536.808 103.512 560.236 87.1967C560.094 86.8167 559.949 86.4369 559.801 86.0575C560.354 86.9842 560.899 87.9145 561.437 88.8487C561.973 89.7801 603.516 188.979 527.34 265.806C475.396 318.194 337.313 367.551 217.371 339.337C-87.6978 273.414 15.0256 20.7531 27.7806 41.9693Z" fill="#64FCD9"/>
<path fill-rule="evenodd" clip-rule="evenodd" d="M540.009 194.757C541.712 191.637 543.085 188.417 546.076 186.377C546.435 186.132 547.155 185.824 547.294 185.962C547.678 186.343 548.057 186.944 548.062 187.461C548.101 192.287 544.961 195.888 543.077 199.963C542.083 202.114 540.665 204.069 539.418 206.101C539.17 206.506 538.862 206.886 538.527 207.225C538.214 207.541 537.561 208.063 537.518 208.022C536.993 207.511 536.329 206.973 536.154 206.321C535.978 205.668 536.231 204.853 536.439 204.152C537.183 201.645 537.952 199.144 538.795 196.67C539.02 196.008 539.54 195.447 540.009 194.757" fill="white"/>
<path fill-rule="evenodd" clip-rule="evenodd" d="M539.509 186.92C539.267 188.496 539.263 190.025 538.914 191.471C538.392 193.639 537.744 195.794 536.936 197.871C535.996 200.288 534.896 202.65 533.732 204.969C532.965 206.496 532.012 207.94 531.039 209.35C530.697 209.846 530.045 210.126 529.54 210.513C528.463 211.337 528.194 210.024 528.2 209.731C528.255 207.066 528.117 204.406 528.92 201.762C529.506 199.831 529.458 197.714 529.795 195.698C530.023 194.34 530.458 193.017 530.751 191.668C531.191 189.645 531.564 187.607 532.008 185.585C532.766 182.14 533.565 178.729 536.976 176.739C537.659 176.34 537.976 176.343 538.663 176.79C540.213 177.799 540.867 178.963 540.458 180.85C540.033 182.816 539.87 184.839 539.509 186.92" fill="white"/>
<path fill-rule="evenodd" clip-rule="evenodd" d="M461.618 250.579C458.65 245.445 455.677 240.257 450.869 236.614C448.883 235.108 446.429 233.998 444.015 233.34C441.801 232.738 439.429 232.914 437.008 233.347C434.047 233.876 431.191 234.52 428.464 235.73C424.584 237.453 421.307 240.05 418.615 243.28C414.692 247.987 411.488 252.948 413.897 259.593C414.802 262.089 417.987 264.066 420.666 263.633C422.283 263.372 423.981 263.572 425.64 263.629C427.045 263.677 428.452 263.953 429.847 263.887C432.259 263.773 434.658 263.366 437.069 263.277C440.083 263.165 443.104 263.25 446.121 263.25C447.195 263.25 448.296 263.402 449.337 263.216C451.156 262.892 453.045 262.604 454.714 261.868C458.831 260.053 463.316 256.402 461.618 250.579Z" fill="white"/>
<path fill-rule="evenodd" clip-rule="evenodd" d="M202.049 259.559C202.049 259.559 209.147 260.213 218.19 256.645C227.232 253.077 229.486 246.594 229.486 246.594C229.486 246.594 227.545 237.295 225.71 235.114C223.781 232.819 220.161 232.698 218.19 233.629C216.344 234.501 212.553 235.269 210.001 239.285C208.658 241.399 209.448 245.399 207.249 251.605C206.429 253.919 202.049 259.559 202.049 259.559Z" fill="white"/>
<path fill-rule="evenodd" clip-rule="evenodd" d="M104.386 253.717C104.386 253.717 125.29 261.053 136.655 263.321C148.021 265.588 168.925 266.591 168.925 266.591C168.925 266.591 185.838 240.368 192.078 223.49C198.318 206.612 202.975 174.49 202.975 174.49C202.975 174.49 185.657 180.214 179.524 189.039C173.391 197.865 178.494 214.204 168.925 223.49C157.611 234.469 140.167 223.239 124.909 230.385C109.652 237.531 104.386 253.717 104.386 253.717Z" fill="white"/>
<path fill-rule="evenodd" clip-rule="evenodd" d="M177.242 322.723C200.107 324.75 282.857 296.137 301.148 276.423C306.873 270.253 312.107 257.983 306.734 251.962C290.5 233.769 219.975 209.888 233.941 177.648C238.605 166.88 267.517 159.214 267.517 159.214C267.517 159.214 272.594 156.687 273.29 155.47C273.986 154.252 271.101 152.942 271.101 152.942L301.148 153.443C301.148 153.443 300.758 160.909 296.836 163.897C285.991 172.157 273.29 172.157 271.101 184.062C268.044 200.688 298.483 224.028 314.781 232.975C356.137 255.675 368.688 277.067 513.209 262.454C494.033 274.449 443.544 304.767 368.324 320.443C245.458 346.05 158.498 321.062 177.242 322.723Z" fill="white"/>
<path fill-rule="evenodd" clip-rule="evenodd" d="M381.865 42.7655C395.417 55.0743 433.9 113.603 440.896 128.248C441.265 129.021 442.763 134.511 442.763 134.511C442.763 134.511 427.632 137.527 419.096 141.138C410.561 144.749 395.411 153.953 395.411 153.953C395.411 153.953 351.802 154.379 323.306 153.422C269.125 151.602 204.008 150.587 165.413 141.138C157.03 139.086 134.085 123.365 127.489 113.498C120.462 102.987 132.645 88.457 146.455 74.8464C185.007 36.8528 276.948 -52.5275 381.865 42.7655Z" fill="#FFB61D"/>
<path d="M461.311 54.8769C459.215 56.0336 455.628 54.8755 453.659 55.9025C449.682 57.9767 445.712 53.9737 441.553 55.4619C438.897 56.412 436.292 57.3195 433.529 57.6225C431.591 57.835 429.702 59.0906 427.778 59.1474C425.111 59.2261 422.919 60.598 420.829 62.3645C418.883 64.0097 417.129 66.0348 415.225 67.7704C414.541 68.3942 413.69 68.8731 412.869 69.0417C411.65 69.2923 408.67 69.1935 407.429 69.2694C405.251 69.4025 403.075 69.666 400.898 69.6688C398.719 69.6717 368.216 78.3722 364.72 80.6565C364.466 80.8223 364.185 80.9176 363.917 81.0457C364.061 80.7901 364.178 80.497 364.353 80.2847C366.027 78.2554 367.519 76.9388 369.441 75.4425C371.984 73.463 374.81 72.0142 377.621 70.7291C379.835 69.7163 382.204 69.2561 384.516 68.6242C386.571 68.0626 388.63 67.481 390.709 67.1287C393.198 66.7069 395.707 66.3724 398.214 66.2756C400.275 66.1961 402.362 66.8084 404.406 66.5953C407.408 66.2823 412.13 65.6812 415.071 64.8383C416.166 64.5243 417.376 63.4504 418.026 62.2554C419.316 59.8827 421.113 58.3948 422.995 57.3976C424.711 56.4886 426.747 56.6111 428.638 56.2486C430.398 55.9113 432.156 55.5553 433.91 55.1677C435.412 54.8359 436.952 54.634 438.393 54.0387C440.304 53.2489 442.119 52.0729 444.009 51.1806C445.005 50.7103 446.126 50.6598 447.093 50.1244C449.62 48.7266 488.014 39.2946 491.875 40.9175C495.737 42.5405 489.809 46.8866 488.014 46.7076C486.189 46.5256 484.328 46.8759 482.488 47.0821C480.408 47.3153 478.305 47.4636 476.265 47.9892C474.279 48.5004 472.338 49.3586 470.418 50.2186C468.46 51.0952 466.549 52.1468 464.625 53.147C463.568 53.6968 462.526 54.2985 461.311 54.8769Z" fill="white"/>
<path d="M361.614 78.4969C360.751 75.4821 363.23 74.0943 364.747 71.9811C368.114 67.2907 372.868 64.304 378.035 61.9486C380.277 60.927 382.542 59.9123 384.883 59.1664C387.695 58.2703 390.6 57.6652 393.465 56.9313C393.865 56.8286 394.257 56.6439 394.661 56.6117C395.749 56.5253 396.795 55.6284 396.959 55.5215C397.602 55.1041 398.299 54.4646 398.519 53.7641C399.038 52.1112 399.21 50.3523 399.677 48.6793C400.527 45.6311 402.895 43.9063 405.54 42.6247C408.787 41.0513 412.12 39.6466 415.458 38.2738C419.66 36.5462 423.913 34.9438 428.13 33.2519C432.06 31.675 435.897 29.8168 439.923 28.549C441.892 27.9289 444.194 28.3662 446.346 28.3401C446.425 28.3391 446.506 28.4983 446.586 28.5828C446.445 28.6961 446.32 28.8607 446.159 28.9152C441.85 30.3695 437.512 31.7415 433.234 33.282C430.283 34.3447 427.428 35.6733 424.503 36.8109C423.28 37.2864 421.937 37.4635 420.731 37.9713C418.206 39.0346 415.75 40.2632 413.236 41.355C411.387 42.1582 409.441 42.7498 407.626 43.6194C405.168 44.7973 402.588 45.9861 401.78 48.9357C401.48 50.0342 401.904 51.3698 401.488 52.3887C400.907 53.8094 400.068 55.2794 398.946 56.2917C396.635 58.3762 393.682 59.2665 390.674 59.9489C388.843 60.3644 387.071 61.0692 385.229 61.4023C381.515 62.0738 378.105 63.5307 374.833 65.2932C370.316 67.7265 365.895 70.3648 363.439 74.8856C362.773 76.1116 362.495 77.5471 362.022 78.8805C361.972 79.0235 361.809 79.1268 361.698 79.2486C361.698 79.0258 361.697 78.803 361.614 78.4969Z" fill="white"/>
<path d="M358.806 76.8295C358.617 75.9742 358.405 75.1989 358.43 74.4311C358.48 72.8467 358.508 71.2375 358.808 69.6893C359.944 63.8207 364.14 60.1372 368.34 56.4125C371.871 53.2806 375.514 50.214 377.666 45.8273C378.505 44.1181 378.392 42.4392 378.347 40.5981C378.238 36.2255 375.841 33.1658 372.846 30.6415C369.775 28.0521 366.287 25.9398 362.9 23.7454C358.666 21.0029 355.065 17.7309 352.766 13.1345C351.39 10.383 352.075 4.91814 354.347 2.81526C354.897 2.30635 355.769 1.90692 356.5 1.8946C357.338 1.88048 357.746 2.63301 357.548 3.52857C357.507 3.71399 357.415 3.99212 357.281 4.0373C355.479 4.6482 353.723 9.26621 354.956 11.0161C355.848 12.2815 356.17 14.013 357.205 15.1004C359.247 17.247 361.559 19.1492 363.847 21.0471C367.676 24.2231 371.684 27.1919 375.406 30.4856C378.191 32.95 380.188 36.171 380.981 39.7899C381.381 41.6183 381.023 43.7758 380.151 45.6495C378.377 49.4585 375.61 52.3986 372.434 55.1156C368.676 58.3303 364.52 61.271 362.129 65.7599C361.056 67.7747 360.33 70.0829 359.981 72.3405C359.71 74.0983 360.281 75.9828 360.44 77.8142C360.463 78.0725 360.276 78.3491 360.186 78.6173C359.976 78.4574 359.711 78.3356 359.568 78.1295C359.304 77.7501 359.111 77.3211 358.806 76.8295Z" fill="white"/>
<path fill-rule="evenodd" clip-rule="evenodd" d="M320.936 107.671V153.036L370.85 154.662H385.305V109.532H389.715L370.552 96.3459C370.552 96.3459 370.552 91.213 370.14 87.3349C369.158 85.3173 366.196 84.9763 364.278 84.6121C362.359 84.2478 359.514 83.8004 359.514 85.3173C359.514 86.8343 359.514 91.213 359.514 91.213L346.522 89.2154L320.936 107.671Z" fill="white"/>
<path fill-rule="evenodd" clip-rule="evenodd" d="M362.126 154.377L370.85 154.662L368.27 105.179L362.898 101.236L362.126 154.377Z" fill="#E7EAEE"/>
<path fill-rule="evenodd" clip-rule="evenodd" d="M328.466 184.836C328.838 183.986 329.686 182.995 329.484 182.315C329.068 180.916 328.379 179.333 327.296 178.442C322.538 174.525 317.474 171.142 311.229 169.873C307.924 169.201 304.933 169.595 302.037 171.17C299.888 172.34 299.708 174.127 301.561 175.601C302.561 176.396 303.562 177.19 304.584 177.955C308.93 181.211 313.747 183.509 319.01 184.811C320.999 185.303 323.052 185.649 325.093 185.776C326.142 185.842 327.229 185.281 328.466 184.836" fill="white"/>
<path fill-rule="evenodd" clip-rule="evenodd" d="M343.152 91.43C338.652 91.3153 311.983 111.5 311.388 111.16C310.793 110.819 336.791 91.1825 340.563 88.5612C342.52 87.2011 344.55 87.2737 346.604 88.7243C349.467 90.7456 367.196 102.01 369.583 103.134C372.328 104.425 388.674 108.195 387.825 109.236C387.342 109.511 384.927 109.727 384.194 109.629C383.983 109.601 383.561 109.791 383.537 109.932C382.802 114.311 384.036 149.718 384.207 151.5C384.239 151.831 384.576 152.224 384.88 152.422C386.121 153.228 387.49 153.137 388.91 153.192L389.147 153.203C391.646 153.333 393.909 152.809 396.021 151.713C398.779 150.284 401.415 148.619 404.087 147.029C406.899 145.356 409.676 143.626 412.497 141.97C416.4 139.68 420.656 138.166 424.883 136.643C427.444 135.72 430.166 135.214 432.842 134.644C435.159 134.15 437.513 133.829 439.852 133.434L439.906 133.429L442.199 133.486C441.865 132.79 441.562 132.078 441.193 131.402C439.909 129.052 438.542 126.745 437.321 124.363C435.883 121.556 434.673 118.63 433.174 115.858C429.805 109.631 426.349 103.45 422.874 97.2818C419.571 91.4194 416.201 85.5948 412.851 79.7589C412.411 78.9918 411.904 78.2634 411.456 77.5003C411.342 77.3059 411.337 77.0474 411.282 76.8184C411.479 76.9667 411.726 77.0781 411.864 77.2689C413.526 79.5776 415.26 81.8415 416.806 84.2261C421.176 90.9632 425.551 97.7003 429.757 104.54C431.972 108.141 433.847 111.952 435.86 115.677C437.254 118.254 438.654 120.828 439.988 123.436C440.671 124.771 441.213 126.177 441.819 127.551L442.804 129.8C443.298 130.925 443.8 132.045 444.34 133.146C444.456 133.382 445.211 133.537 445.534 133.403C449.161 131.894 452.908 130.586 456.336 128.704C461.795 125.708 466.961 122.181 472.405 119.155C474.909 117.763 477.711 116.747 480.502 116.089C482.418 115.637 484.394 115.3 486.616 115.818C490.22 116.659 493.504 118.227 496.981 119.298C499.339 120.024 501.784 120.108 504.333 119.912C509.224 119.536 512.954 116.675 517.095 114.69C519.837 113.376 522.485 111.864 525.165 110.422C531.127 107.215 537.075 103.981 543.043 100.786C546.642 98.8594 550.268 96.984 553.881 95.0859C554.246 94.8941 554.596 94.6568 554.982 94.5252L555.374 94.391C555.722 94.2768 556.092 94.1828 556.217 94.3061L556.35 94.4417C556.976 95.1003 557.307 95.8025 556.04 96.4364C553.229 97.8439 550.458 99.3341 547.682 100.812C544.076 102.732 540.487 104.685 536.88 106.603C533.412 108.446 529.924 110.251 526.456 112.095C522.804 114.038 519.17 116.016 515.519 117.961C513.198 119.196 510.977 120.859 508.498 121.485C506.244 122.055 503.968 123.144 501.353 122.328L501.082 122.236C497.864 121.078 494.37 120.708 491.098 119.675C488.493 118.852 485.851 118.29 483.202 118.5C480.146 118.743 477.036 119.234 474.124 120.164C469.44 121.66 465.48 124.564 461.583 127.524L460.436 128.392C457.118 130.893 453.717 133.281 449.614 134.438C448.556 134.736 447.508 135.077 446.477 135.457C446.398 135.486 434.877 135.83 422.459 140.134C410.669 144.221 397.947 152.279 397.98 152.36C398.843 154.527 454.605 150.646 455.931 150.764C457.569 150.909 459.211 151.005 460.852 151.1C461.461 151.135 462.076 151.075 462.685 151.111C464.271 151.205 465.854 151.339 467.44 151.433C468.049 151.469 468.664 151.409 469.273 151.444C470.914 151.539 472.553 151.672 474.194 151.766C474.804 151.802 475.419 151.742 476.028 151.778C477.613 151.872 479.197 152.004 480.782 152.1C481.336 152.134 481.895 152.079 482.449 152.111C484.091 152.205 485.731 152.331 487.374 152.427C487.926 152.459 488.484 152.412 489.037 152.444C490.734 152.542 492.428 152.67 494.125 152.767C494.679 152.799 495.238 152.745 495.792 152.778C497.433 152.873 499.073 153.001 500.715 153.097C501.268 153.129 501.826 153.079 502.38 153.111C504.076 153.209 505.771 153.337 507.468 153.434C508.022 153.466 508.579 153.439 509.135 153.439C510.543 153.439 511.953 153.405 513.359 153.454C514.039 153.478 514.709 153.709 515.39 153.764C517.139 153.903 518.892 154.002 520.644 154.102C521.142 154.13 521.645 154.082 522.144 154.111C523.84 154.21 525.535 154.336 527.231 154.435C527.605 154.457 527.981 154.449 528.356 154.443L528.732 154.44C530.085 154.44 531.442 154.369 532.789 154.455C535.498 154.627 538.199 154.918 540.908 155.097C543.323 155.256 545.744 155.322 548.162 155.442C550.192 155.543 552.22 155.671 554.25 155.771L557.152 155.92C558.602 155.992 560.053 156.059 561.505 156.097C564.221 156.169 566.94 156.159 569.657 156.205C569.816 156.208 570.098 156.381 570.109 156.495C570.183 157.309 570.202 158.128 570.239 158.945C569.808 158.888 569.377 158.801 568.944 158.78C566.507 158.658 564.066 158.602 561.633 158.426C559.589 158.278 557.559 157.906 555.514 157.799C553.37 157.688 551.216 157.793 549.066 157.759C548.61 157.752 548.163 157.498 547.703 157.45L544.727 157.126C543.403 156.986 542.079 156.861 540.752 156.799C538.385 156.687 536.008 156.811 533.637 156.755C532.748 156.733 531.867 156.455 530.975 156.367C530.268 156.297 529.549 156.365 528.838 156.324C528.064 156.28 527.293 156.176 526.52 156.108C523.981 155.883 521.446 155.569 518.902 155.465C516.145 155.354 513.38 155.48 510.62 155.421C509.509 155.397 508.404 155.15 507.295 155.016C506.551 154.925 505.807 154.835 505.06 154.777C503.476 154.653 501.892 154.541 500.306 154.445C499.752 154.412 499.193 154.465 498.639 154.435C496.832 154.336 495.026 154.175 493.218 154.124C492.308 154.099 491.392 154.34 490.481 154.323C488.989 154.297 487.5 154.137 486.008 154.075C485.035 154.035 484.057 154.112 483.085 154.058C481.37 153.962 479.66 153.776 477.944 153.684C476.901 153.628 475.852 153.696 474.806 153.67C474.02 153.651 473.235 153.519 472.452 153.533C471.959 153.542 471.47 153.729 470.979 153.835C471.257 154.071 471.53 154.312 471.812 154.542C474.843 157.019 477.849 159.526 480.913 161.961C484.372 164.712 487.903 167.373 491.365 170.119C494.387 172.517 497.354 174.984 500.353 177.411C501.347 178.214 502.367 178.986 503.376 179.771C503.992 180.249 503.908 180.504 503.252 180.76L503.154 180.796C500.932 181.599 498.775 182.608 496.514 183.265C494.506 183.849 492.388 184.047 490.327 184.457C488.5 184.819 486.697 185.309 484.861 185.606C483.699 185.794 482.495 185.708 481.313 185.791C480.226 185.868 479.137 185.964 478.061 186.127C476.431 186.375 474.82 186.763 473.185 186.95C471.79 187.109 470.371 187.042 468.966 187.126C467.768 187.197 466.568 187.294 465.38 187.462C463.64 187.707 461.919 188.104 460.174 188.289C458.667 188.45 457.133 188.35 455.619 188.467C454.007 188.59 452.407 188.875 450.795 189.014C448.652 189.198 446.502 189.294 444.358 189.462C443.787 189.507 443.23 189.743 442.66 189.774C440.113 189.912 437.563 189.99 435.016 190.129C434.169 190.175 433.332 190.387 432.485 190.443C430.402 190.582 428.318 190.729 426.231 190.775C419.979 190.915 413.726 191.053 407.473 191.098C404.852 191.116 402.224 190.738 399.61 190.834C397.329 190.917 395.113 190.846 392.844 190.517C390.738 190.212 388.547 190.558 386.406 190.419C384.656 190.306 382.929 189.876 381.185 189.634C379.109 189.346 377.023 189.127 374.948 188.825C374.686 188.787 374.227 188.342 374.265 188.243L374.61 187.365C375.711 184.588 376.924 181.878 378.889 179.533C381.311 176.645 384.186 174.366 387.423 172.513L387.866 172.264C389.055 171.604 390.229 170.905 391.466 170.35L393.323 169.511C394.77 168.862 396.23 168.239 397.737 167.782C400.161 167.046 402.691 166.663 405.171 166.106C406.575 165.791 407.957 165.371 409.37 165.111C411.467 164.725 413.588 164.471 415.688 164.099C417.265 163.82 418.835 163.486 420.389 163.099C422.45 162.586 424.508 162.052 426.538 161.431C430.781 160.133 434.939 158.63 438.545 155.931C438.735 155.789 438.958 155.692 439.165 155.574C438.896 155.418 438.643 155.209 438.353 155.123C438.098 155.046 437.802 155.107 437.524 155.107L434.079 155.11C433.505 155.11 432.93 155.109 432.356 155.105L404.499 154.934C395.214 154.878 385.928 154.827 376.642 154.791C372.854 154.777 369.065 155.094 365.277 155.083C360.098 155.067 354.92 154.897 349.743 154.769C346.176 154.68 342.611 154.498 339.044 154.462C337.257 154.444 335.467 154.77 333.68 154.751C329.669 154.71 325.658 154.565 321.648 154.435C319.025 154.35 316.405 154.142 313.783 154.13C311.718 154.121 309.652 154.406 307.586 154.416C305.91 154.424 304.232 154.147 302.556 154.164C302.207 154.168 301.487 155.08 301.579 155.286C302.692 157.764 301.331 159.748 300.133 161.538C297.767 165.071 294.376 167.31 290.259 168.542C287.886 169.252 285.582 170.202 283.27 171.112L282.402 171.451C277.954 173.171 274.395 175.85 273.086 180.697C272.425 183.149 272.025 185.585 272.397 188.241C273.219 194.1 276.097 198.774 279.905 203.01L280.186 203.319C282.264 205.592 284.288 207.941 286.572 209.994C291.232 214.185 295.934 218.347 300.839 222.244C305.634 226.053 310.589 229.688 315.687 233.08C320.082 236.003 324.746 238.529 329.348 241.129C332.308 242.802 335.331 244.376 338.4 245.838C340.978 247.066 343.676 248.038 346.296 249.18C348.612 250.19 350.851 251.388 353.202 252.304C356.451 253.57 359.753 254.71 363.07 255.79C366.066 256.765 369.092 257.661 372.14 258.453C374.749 259.131 377.417 259.576 380.044 260.188C383.435 260.978 386.8 261.885 390.198 262.641C392.777 263.214 395.384 263.668 397.99 264.106C400.342 264.501 402.706 264.831 405.071 265.136C407.124 265.401 409.182 265.63 411.245 265.8C413.233 265.965 415.233 265.992 417.221 266.157C419.264 266.326 421.296 266.632 423.34 266.794C424.308 266.87 425.292 266.721 426.268 266.726C428.442 266.738 430.617 266.749 432.789 266.824C434.134 266.871 435.475 267.115 436.819 267.13C440.598 267.174 444.377 267.146 448.156 267.146C450.009 267.146 451.867 267.232 453.714 267.122C455.74 267.002 457.799 266.334 459.763 266.573C462.157 266.863 464.395 266.512 466.7 266.172C467.752 266.016 468.854 266.229 469.919 266.129C472.991 265.841 476.051 265.409 479.126 265.166C481.796 264.954 484.485 264.976 487.159 264.789C488.539 264.693 489.899 264.324 491.277 264.157C492.652 263.99 494.044 263.967 495.419 263.799C496.868 263.621 498.319 263.41 499.745 263.102C502.577 262.489 505.416 261.886 508.208 261.115C510.25 260.551 512.22 259.723 514.226 259.026C514.351 258.983 514.594 259.014 514.647 259.097C514.716 259.205 514.716 259.463 514.634 259.547C513.43 260.779 512.276 262.076 510.955 263.169C510.558 263.497 509.937 263.591 509.337 263.654L508.808 263.708C507.092 263.896 505.351 263.904 503.649 264.172C501.922 264.445 500.246 265.038 498.519 265.313C496.768 265.592 494.982 265.644 493.213 265.816C492.348 265.901 491.485 266.015 490.626 266.149C488.557 266.471 486.498 266.869 484.421 267.13C482.131 267.419 479.823 267.575 477.526 267.818C476.187 267.961 474.858 268.209 473.517 268.327C471.269 268.524 469.015 268.64 466.765 268.822C466.14 268.873 465.527 269.078 464.901 269.139L462.42 269.383C460.765 269.544 459.109 269.695 457.451 269.794C455.771 269.894 454.078 269.777 452.393 269.821C449.16 269.905 445.927 270.128 442.695 270.122C438.998 270.116 435.299 269.976 431.606 269.796C428.785 269.659 425.975 269.309 423.154 269.166C421.12 269.063 419.072 269.231 417.04 269.12C415.383 269.028 413.742 268.667 412.088 268.49C410.6 268.33 409.102 268.272 407.612 268.14C406.691 268.059 405.768 267.967 404.86 267.801C403.768 267.601 402.693 267.305 401.607 267.072C400.617 266.859 399.624 266.652 398.626 266.484C396.802 266.176 394.977 265.87 393.145 265.619C391.659 265.416 390.149 265.369 388.674 265.112C387.438 264.896 386.239 264.472 385.022 264.145L379.248 262.595C378.285 262.338 377.322 262.083 376.358 261.831C373.68 261.131 370.958 260.573 368.317 259.753C364.419 258.544 360.576 257.158 356.709 255.849C353.686 254.825 350.63 253.887 347.648 252.755L346.348 252.259C344.181 251.424 342.023 250.538 340.002 249.423L333.129 245.645C327.403 242.491 321.699 239.296 316.158 235.843C310.305 232.196 304.865 227.876 299.307 223.766C293.166 219.226 287.8 213.812 282.548 208.309L281.743 207.459C278.003 203.478 274.512 199.266 272.178 194.255L271.932 193.715C271.093 191.824 269.964 189.835 269.916 187.867C269.808 183.463 270.626 179.222 273.922 175.773C276.534 173.039 279.7 171.238 282.948 169.54L285.073 168.439C288.88 166.464 292.721 164.543 296.425 162.389C297.74 161.624 298.89 160.375 299.763 159.104C300.719 157.713 299.892 155.847 298.208 155.476C295.315 154.837 292.39 154.259 289.447 153.951C285.387 153.526 281.3 153.36 277.222 153.131C276.868 153.111 276.314 153.347 276.157 153.632C273.987 157.573 270.584 160.021 266.44 161.405C263.229 162.478 259.888 163.155 256.641 164.131C254.214 164.861 251.887 165.947 249.44 166.586C246.161 167.442 243.3 169.118 240.769 171.173L240.045 171.77C236.931 174.381 234.149 177.356 233.371 181.689C232.791 184.919 232.953 187.977 233.919 191.201C235.32 195.878 238.204 199.417 241.375 202.847C242.958 204.559 244.642 206.181 246.319 207.805C251.498 212.823 257.1 217.312 262.962 221.525C269.871 226.491 277.166 230.733 284.718 234.624L286.497 235.533C290.852 237.749 295.232 239.962 299.052 243.119C302.116 245.653 304.899 248.435 306.734 251.962L307.337 253.126C308.292 254.998 309.193 256.988 309.247 258.931L309.278 260.054C309.317 261.82 309.287 263.67 308.742 265.533C306.842 272.034 302.614 276.793 297.883 281.175C293.035 285.665 287.618 289.446 281.818 292.655C279.456 293.962 277.191 295.462 274.768 296.64C272.449 297.768 269.971 298.563 267.584 299.554C264.849 300.69 262.187 302.026 259.401 303.012C255.451 304.409 251.412 305.555 247.418 306.83C244.867 307.645 242.35 308.577 239.778 309.319C236.623 310.23 233.419 310.968 230.252 311.838C228.179 312.408 226.153 313.153 224.073 313.689C221.465 314.361 218.816 314.869 216.198 315.504C213.678 316.116 211.189 316.862 208.661 317.433C205.462 318.157 202.241 318.781 199.023 319.415C196.155 319.979 193.28 320.51 190.404 321.033C187.849 321.498 185.287 321.928 182.729 322.379C182.04 322.501 181.35 322.748 180.67 322.721C180.379 322.71 180.135 322.116 179.824 321.838C179.385 321.445 178.904 321.098 178.44 320.732C179.081 320.654 179.73 320.619 180.36 320.489C182.456 320.057 184.538 319.552 186.64 319.145C189.103 318.669 191.59 318.313 194.049 317.814C195.828 317.452 197.566 316.889 199.342 316.509C201.669 316.012 204.027 315.663 206.348 315.143C208.044 314.764 209.693 314.175 211.38 313.748C212.614 313.437 213.893 313.299 215.122 312.975C217.171 312.434 219.184 311.757 221.236 311.231C223.289 310.704 225.385 310.345 227.436 309.812C229.586 309.253 231.692 308.528 233.84 307.962C236.303 307.312 238.808 306.813 241.263 306.137C242.712 305.738 244.082 305.059 245.522 304.619C247.995 303.863 250.529 303.298 252.975 302.467C256.526 301.26 260.027 299.9 263.539 298.581L265.929 297.684C267.521 297.083 269.108 296.471 270.676 295.812C278.337 292.591 285.603 288.669 292.06 283.383L293.592 282.126C295.633 280.446 297.653 278.735 299.521 276.877C302.219 274.193 304.558 271.145 305.875 267.527C306.646 265.406 307.323 263.129 307.38 260.905C307.434 258.826 306.837 256.743 306.026 254.652C304.858 251.637 303.125 249.179 300.726 247.326C297.468 244.81 293.937 242.622 290.403 240.492C282.498 235.729 274.34 231.361 266.63 226.305C261.445 222.905 256.708 218.806 251.898 214.851L250.995 214.111C247.839 211.536 244.729 208.867 241.878 205.965C237.938 201.955 234.204 197.781 232.054 192.382C230.99 189.709 230.643 187.123 230.76 184.311C231.021 178.091 234.555 173.893 238.965 170.061C243.16 166.417 248.113 164.383 253.303 162.793C256.503 161.813 259.766 161.037 262.979 160.096C265.751 159.285 268.527 158.461 271.227 157.444C272.064 157.129 272.999 156.285 273.29 155.469C273.898 153.769 272.946 152.947 271.101 152.942C269.58 152.937 268.063 152.576 266.538 152.45C264.66 152.294 262.769 152.281 260.896 152.086C259.199 151.91 257.528 151.492 255.831 151.327C254.107 151.159 252.366 151.181 250.633 151.096C250.329 151.081 250.035 150.902 249.729 150.878C247.696 150.719 245.656 150.629 243.627 150.424C241.816 150.241 240.021 149.881 238.209 149.705C236.546 149.543 234.869 149.523 233.198 149.436C232.985 149.425 232.772 149.392 232.559 149.372C230.436 149.171 228.309 149.011 226.193 148.759C224.39 148.545 222.607 148.155 220.802 147.974C219.187 147.813 217.555 147.836 215.931 147.766C215.67 147.755 215.413 147.662 215.152 147.64C213.021 147.457 210.885 147.312 208.757 147.094C207.047 146.919 205.35 146.616 203.639 146.449C201.93 146.282 200.209 146.23 198.497 146.092C198.092 146.059 197.704 145.81 197.299 145.782C195.308 145.644 193.307 145.618 191.324 145.416C189.576 145.238 187.854 144.801 186.106 144.625C184.49 144.462 182.854 144.508 181.228 144.423C180.881 144.404 180.547 144.139 180.198 144.115C178.151 143.979 176.101 143.894 174.054 143.761C173.438 143.721 172.83 143.556 172.213 143.517C172.085 143.509 171.938 143.807 171.799 143.964L172.094 144.061C172.143 144.076 172.192 144.09 172.243 144.101C173.959 144.478 175.691 144.796 177.39 145.238C179.409 145.763 181.432 146.3 183.397 146.993C190.338 149.44 196.881 152.65 201.581 158.523C203.358 160.745 204.504 163.505 205.742 166.113C206.391 167.48 206.874 169.032 206.971 170.53C207.123 172.87 206.89 175.235 206.806 177.589C206.752 179.094 206.753 180.608 206.58 182.1C206.414 183.544 206.075 184.969 205.779 186.396L204.969 190.329C204.562 192.295 204.146 194.259 203.695 196.215C203.34 197.753 202.723 199.229 202.331 200.76C201.931 202.326 201.707 203.936 201.32 205.506C200.873 207.318 200.31 209.102 199.839 210.909C199.322 212.892 198.897 214.899 198.349 216.873L198.025 218.029C197.696 219.185 197.344 220.336 196.903 221.447L196.675 221.999C196.36 222.731 196.48 222.761 196.988 222.795L197.152 222.806C200.182 223.023 203.233 223.114 206.229 223.562C208.455 223.896 210.611 224.701 212.794 225.309C214.538 225.795 216.277 226.3 218.017 226.8C218.165 226.842 218.306 226.907 218.45 226.961C218.31 227.018 218.17 227.123 218.029 227.124C216.657 227.137 215.272 227.25 213.916 227.105C211.69 226.866 209.461 226.56 207.277 226.081C205.712 225.739 204.239 224.994 202.686 224.576C201.945 224.376 201.1 224.423 200.323 224.523L199.224 224.663C197.941 224.829 196.657 225.016 195.422 225.364C193.392 225.937 192.404 227.64 191.504 229.334L191.205 229.897C188.635 234.727 186.162 239.609 183.62 244.453C180.763 249.895 177.871 255.318 174.999 260.752L174.767 261.203C173.745 263.25 172.947 265.469 170.756 266.641C170.293 266.888 169.632 266.765 169.063 266.812C169.116 266.384 169.045 265.885 169.241 265.538C171.332 261.842 173.472 258.174 175.586 254.492C177.52 251.125 179.522 247.795 181.345 244.371C184.13 239.142 186.908 233.903 189.46 228.559C191.421 224.451 193.069 220.192 194.78 215.969L195.854 213.32C197.107 210.23 198.341 207.13 199.406 203.974C200.634 200.335 201.535 196.582 202.523 192.865C203.111 190.652 203.78 188.435 204.073 186.176L204.269 184.659C204.693 181.367 205.078 178.051 205.017 174.756C204.963 171.882 204.389 168.879 203.37 166.191C201.172 160.395 197.104 155.99 191.807 152.787C188.319 150.677 184.674 148.922 180.628 148.059C178.364 147.577 176.198 146.642 173.936 146.149C172.032 145.734 170.055 145.503 168.107 145.475C165.357 145.435 162.605 145.69 159.852 145.76C157.814 145.812 155.77 145.693 153.737 145.799C152.524 145.863 151.325 146.215 150.12 146.437C148.312 146.77 146.479 147.008 144.699 147.457C141.002 148.391 137.246 149.196 133.669 150.486C124.475 153.801 115.851 158.313 107.837 163.903C102.408 167.69 97.3389 171.957 92.8626 176.856C88.0491 182.124 83.913 187.885 81.1011 194.485C80.0082 197.05 79.1399 199.723 78.338 202.397C77.7694 204.293 77.2441 206.26 77.1323 208.22C76.992 210.679 77.3123 213.163 77.3976 215.638C77.441 216.897 77.3186 218.167 77.4303 219.418C77.5356 220.597 77.7608 221.783 78.0934 222.92C78.565 224.531 79.1658 226.105 79.7423 227.684C82.919 236.384 88.3562 243.152 96.765 247.278C98.6688 248.212 100.729 248.897 102.788 249.422C104.176 249.776 105.432 249.375 106.261 247.839C109.527 241.787 113.811 236.576 119.626 232.802C122.578 230.887 125.686 229.209 128.751 227.473C131.307 226.027 134.096 225.279 136.979 224.775C138.749 224.465 140.461 223.702 142.232 223.558C144.236 223.395 146.277 223.698 148.301 223.796L148.802 223.798C151.887 223.908 154.979 224.202 158.055 224.077C160.856 223.963 163.56 223.433 166.274 222.287C170.188 220.635 172.168 217.832 173.167 214.044L173.792 211.576C174.159 210.115 174.506 208.65 174.728 207.167C174.97 205.558 174.64 203.865 174.858 202.249C175.161 199.991 175.597 197.728 176.239 195.544C176.724 193.891 177.539 192.338 178.214 190.738L178.434 190.203C179.818 186.712 182.204 183.89 184.809 181.338C187.889 178.321 191.403 175.814 195.596 174.435C197.238 173.895 198.828 173.197 200.463 172.631C200.71 172.545 201.069 172.785 201.377 172.875L201.016 173.114C200.955 173.153 200.894 173.191 200.832 173.227L199.727 173.871C194.024 177.203 188.415 180.674 184.02 185.741L183.58 186.25C181.903 188.207 180.322 190.244 179.681 192.885C179.244 194.687 178.249 196.372 177.949 198.184C177.552 200.584 177.603 203.056 177.429 205.495C177.392 206.01 177.179 206.51 177.113 207.026C176.857 209.019 176.917 211.106 176.329 212.992C175.073 217.02 172.973 220.614 169.149 222.764C167.082 223.927 164.909 225.074 162.637 225.649C160.607 226.163 158.412 226.093 156.272 226.109L155.815 226.114C151.684 226.175 147.552 226.098 143.421 226.139C138.045 226.193 132.748 226.974 127.874 229.258C122.19 231.921 117.125 235.497 113.145 240.517C110.557 243.781 108.213 247.147 106.966 251.137C106.443 252.81 105.051 252.478 104.196 252.324L103.315 252.162C101.254 251.771 99.1674 251.271 97.3275 250.353C94.3769 248.881 91.4884 247.132 88.9301 245.06C84.4789 241.457 80.8079 237.065 78.589 231.736C77.1515 228.283 75.957 224.662 75.2315 221.002C74.7287 218.464 75.1505 215.758 75.0618 213.124L75.0369 212.598C74.8769 210.023 75.3051 207.567 75.9194 205.115L76.0367 204.655C76.849 201.523 77.3463 198.27 78.5244 195.285C79.6097 192.534 81.2511 189.997 82.7612 187.42L83.0826 186.868C86.1823 181.486 90.1395 176.757 94.5929 172.474C100.357 166.931 106.762 162.195 113.642 158.114L116.446 156.445C118.319 155.336 120.204 154.25 122.143 153.274C124.339 152.169 126.658 151.304 128.959 150.414L129.725 150.116C131.719 149.335 133.732 148.589 135.774 147.943C138.598 147.05 141.447 146.23 144.306 145.449C146.313 144.901 148.333 144.361 150.381 144.019C152.872 143.602 155.402 143.433 157.906 143.091C159.952 142.812 161.985 142.438 164.023 142.097C164.162 142.074 164.289 141.982 164.422 141.922C164.276 141.871 164.127 141.767 163.986 141.777C162.586 141.875 161.185 142.109 159.789 142.076C157.46 142.021 155.135 141.804 152.809 141.64C152.335 141.607 151.867 141.448 151.395 141.445C148.82 141.425 146.243 141.474 143.669 141.421C142.157 141.39 140.65 141.148 139.138 141.116C136.62 141.063 134.098 141.141 131.579 141.087C130.068 141.055 128.56 140.816 127.049 140.783C125.078 140.74 123.106 140.756 121.135 140.765L119.656 140.768C117.192 140.768 114.723 140.854 112.264 140.742C110.183 140.647 108.117 140.233 106.035 140.134C104.7 140.071 103.348 140.437 102.008 140.41C99.6165 140.363 97.2298 140.129 94.8388 140.043C93.4223 139.992 91.9983 140.14 90.5825 140.081C88.2001 139.982 85.8212 139.795 83.4418 139.63C82.967 139.598 82.4969 139.446 82.0241 139.444C79.1153 139.426 76.2056 139.471 73.2976 139.42C71.7861 139.393 70.2787 139.147 68.767 139.116C66.1926 139.063 63.6163 139.101 61.0409 139.101L55.7788 139.101C54.9018 139.102 54.0247 139.105 53.1477 139.109C52.9002 139.11 52.6532 139.219 52.406 139.277L52.8662 139.509C52.9424 139.549 53.018 139.589 53.0923 139.632C58.4205 142.702 63.2553 146.404 67.4033 150.956C70.1795 154.002 72.7166 157.237 74.2353 161.126C74.9463 162.947 75.6504 164.793 76.0861 166.69C76.3499 167.839 75.9804 169.118 76.0995 170.319C76.2568 171.905 75.9643 173.388 75.3953 174.824C73.641 179.253 70.6614 182.615 66.616 185.145C63.8808 186.856 61.0153 188.197 57.866 188.774C55.4069 189.225 52.8933 189.464 50.3937 189.584C48.1633 189.691 45.9053 189.64 43.685 189.411C41.7882 189.216 39.9357 188.623 38.0487 188.29C36.0297 187.934 33.986 187.718 31.9672 187.361C30.6741 187.133 29.4167 186.705 28.1254 186.462C25.4133 185.952 22.6813 185.546 19.9738 185.014C18.6446 184.753 17.3565 184.288 16.0413 183.949L15.3741 183.776C14.9276 183.662 14.4781 183.558 14.0266 183.504L13.6876 183.472C12.5881 183.404 11.9355 182.462 12.4013 181.413C12.4235 181.363 12.7249 181.41 12.8855 181.453C14.2544 181.814 15.6177 182.197 16.9886 182.55L20.333 183.413C21.4485 183.697 22.5654 183.976 23.6857 184.24C26.461 184.894 29.2404 185.537 32.0347 186.103C33.7145 186.443 35.4094 186.718 37.1071 186.963L39.4573 187.292C41.012 187.509 42.5715 187.709 44.1322 187.748C46.2686 187.801 48.4111 187.53 50.5529 187.462C52.201 187.409 53.8575 187.532 55.5 187.423C56.604 187.349 57.7396 187.141 58.7741 186.758C61.2532 185.84 63.7188 184.866 66.1199 183.762C69.0436 182.418 71.1933 180.044 73.219 177.666C73.9297 176.832 73.9485 175.294 73.9741 174.071C73.9805 173.764 72.8229 173.301 72.1453 173.136C69.1891 172.413 66.1916 171.852 63.2501 171.077C60.9132 170.461 58.6473 169.581 56.328 168.892C54.6129 168.382 52.8504 168.032 51.1308 167.536C48.5472 166.79 47.0113 164.611 47.2121 162.098C47.215 162.062 47.0986 162.011 47.1052 161.982C47.4939 160.293 46.7113 159.893 44.6557 160.294C42.8294 160.65 40.9281 160.612 39.0631 160.783C38.0939 160.871 37.12 160.98 36.1686 161.178C33.8711 161.655 31.6024 162.492 29.2906 162.621C26.8072 162.76 24.2896 162.176 22.2794 160.479C20.2031 158.727 18.1995 156.887 16.1825 155.065C14.6797 153.708 13.2036 152.321 11.7224 150.94C11.4916 150.724 11.2968 150.471 11.0853 150.235C11.4974 150.227 12.0447 150.043 12.2996 150.239C14.029 151.569 15.8942 152.801 17.3378 154.405L18.405 155.592C20.1923 157.558 22.0662 159.402 24.677 160.136C26.7492 160.719 29.0287 160.786 31.2037 160.718C33.2622 160.652 35.3227 160.188 37.3496 159.748C38.6275 159.471 39.9025 159.087 41.1151 158.589L41.5668 158.397C43.8822 157.379 46.5165 157.557 48.3222 159.294L48.9384 159.919C49.5362 160.536 50.1276 161.265 49.9423 162.288L49.9065 162.452C49.839 162.716 49.8704 163.03 49.7379 163.249L49.4043 163.81C48.8456 164.783 48.963 164.927 50.2027 165.316L50.6087 165.442C53.1755 166.228 55.7278 167.07 58.3207 167.759C61.1568 168.512 64.0479 169.059 66.8848 169.81C68.8898 170.341 70.848 171.051 72.82 171.702C73.633 171.971 74.6574 171.021 74.7236 169.791C74.7882 168.589 74.9598 167.328 74.6844 166.189C74.293 164.571 73.763 162.901 72.8954 161.498C69.2069 155.534 64.9332 149.995 59.7028 145.3C56.4603 142.39 46.6956 137 39.037 135.39C31.3785 133.781 19.3359 134.69 16.9886 136.056C14.6413 137.422 11.1167 138.995 9.55099 139.41C9.4158 139.446 9.10494 139.278 9.06533 139.147C8.61887 137.67 9.70858 136.976 10.6974 136.464C13.0311 135.257 15.4223 134.15 17.8381 133.114C21.0223 131.749 24.4889 131.572 27.8554 131.192C29.6843 130.985 31.6283 131.696 33.5072 132.062C35.3624 132.422 37.2249 132.786 39.037 133.311C40.0141 133.594 40.8957 134.212 41.8148 134.69C45.4651 136.588 48.9827 136.504 52.4961 134.227C53.6068 133.507 55.0497 133.322 56.2527 132.718C61.5153 130.073 66.7504 127.373 71.9864 124.676C77.0871 122.048 82.1763 119.399 87.2718 116.761C87.9197 116.426 88.5896 116.129 89.2116 115.752C89.3142 115.689 89.3201 115.178 89.2039 115.087C86.7793 113.181 84.3576 111.269 81.881 109.432C76.9137 105.747 71.8406 102.2 66.9566 98.4086C64.2917 96.3399 61.7799 94.0253 59.4524 91.5804C54.3273 86.1964 49.4617 80.5642 44.3032 75.2135C39.7828 70.5245 35.052 66.0333 30.2806 61.5984C29.7589 61.1135 27.9632 61.1641 27.4268 61.6721C24.8428 64.1192 22.4863 66.8067 20.0545 69.4139C19.7994 69.6874 19.6002 70.0145 19.3359 70.2774C19.1824 70.43 18.9507 70.504 18.7542 70.6134C18.7422 70.3961 18.6839 70.1694 18.7255 69.9629C19.0456 68.3755 19.0769 66.6289 19.8055 65.2535C20.529 63.8876 25.8362 58.3539 28.52 58.3539C31.2037 58.3539 55.1108 83.3599 55.1108 83.3599C58.7391 87.3078 62.3987 91.227 66.2205 94.9787C72.1264 100.776 78.4415 106.149 85.3088 110.819C88.5281 113.008 92.1264 114.055 95.9841 113.701C97.8261 113.532 99.5862 112.594 101.43 112.294C103.202 112.006 105.034 112.105 106.839 112.012C109.124 111.895 111.271 112.523 113.462 113.055C116.105 113.699 118.617 114.611 121.08 115.747C127.309 118.619 132.636 122.876 138.251 126.705C142.727 129.758 147.283 132.724 151.995 135.39C154.614 136.873 157.567 137.856 160.473 138.709C162.95 139.437 165.577 139.647 168.134 140.107C168.919 140.248 169.687 140.489 170.473 140.63L173.128 141.105C174.456 141.34 175.786 141.566 177.121 141.757C179.811 142.141 182.513 142.446 185.213 142.766C188.131 143.112 191.052 143.441 193.973 143.768C196.03 143.998 198.089 144.212 200.146 144.437C202.149 144.656 204.146 144.948 206.154 145.086C208.773 145.266 211.403 145.271 214.021 145.457C215.568 145.567 217.094 145.945 218.64 146.087C220.571 146.266 222.514 146.311 224.449 146.449C224.854 146.478 225.243 146.733 225.647 146.758C227.804 146.895 229.974 146.905 232.121 147.13C234.074 147.335 235.993 147.889 237.946 148.051C239.969 148.218 242.016 148.081 244.052 148.119C244.452 148.127 244.845 148.404 245.249 148.425C247.796 148.561 250.346 148.648 252.893 148.784C253.296 148.805 253.684 149.049 254.09 149.095C256.238 149.337 258.384 149.64 260.54 149.747C262.796 149.858 265.061 149.752 267.322 149.787C267.833 149.795 268.336 150.045 268.852 150.096C271.278 150.338 273.703 150.647 276.136 150.746C278.892 150.858 281.658 150.749 284.418 150.787C285.152 150.797 285.879 151.037 286.615 151.098L290.127 151.388C291.883 151.53 293.64 151.661 295.399 151.754C297.247 151.851 299.105 151.734 300.957 151.781C304.099 151.861 307.238 152.02 310.38 152.096C312.398 152.145 314.422 152.159 316.436 152.057C316.804 152.039 317.425 151.395 317.435 151.027C317.467 149.854 318.249 112.465 318.171 111.342C318.157 111.137 318.351 110.918 318.449 110.705C318.573 110.891 318.791 111.069 318.808 111.264C318.945 112.866 319.712 148.846 319.716 151.754C319.716 151.871 320.336 152.101 320.658 152.086C322.059 152.02 364.559 152.285 366.55 152.151C367.341 152.097 367.947 151.865 367.856 150.818C367.686 148.869 367.833 105.179 367.833 105.179C367.833 105.179 349.055 91.5804 343.152 91.43ZM452.151 153.507C450.082 153.774 448.103 154.844 446.039 155.019C443.378 155.244 441.236 156.612 438.939 157.599C435.288 159.167 431.808 161.129 428.171 162.733C426.578 163.435 424.77 163.641 423.073 164.121C422.317 164.334 420.432 164.777 420.332 164.793L418.09 165.165C416.97 165.354 415.851 165.553 414.741 165.788C411.972 166.376 409.213 167.018 406.461 167.678C404.186 168.223 401.93 168.848 399.656 169.391L398.289 169.706C394.174 170.614 390.336 172.204 386.821 174.472C382.805 177.064 379.282 180.196 377.159 184.628C376.369 186.278 376.789 187.237 378.434 187.453C378.924 187.517 379.411 187.604 379.9 187.673C380.969 187.824 382.034 188.017 383.108 188.108C384.875 188.258 386.648 188.334 388.417 188.454C389.928 188.555 391.435 188.725 392.947 188.772C394.743 188.828 396.542 188.751 398.338 188.792C402.182 188.88 406.025 189.063 409.869 189.096C411.878 189.113 413.888 188.832 415.899 188.8C419.196 188.746 422.494 188.828 425.791 188.772C427.576 188.742 429.36 188.677 431.144 188.603L434.712 188.447C436.741 188.359 438.773 188.271 440.798 188.107C442.896 187.936 444.988 187.685 447.08 187.443C447.54 187.39 447.985 187.157 448.444 187.13C450.768 186.993 453.095 186.909 455.42 186.772C455.823 186.748 456.215 186.477 456.616 186.466C458.207 186.423 459.812 186.564 461.386 186.398C463.009 186.227 464.589 185.652 466.211 185.481C468.485 185.242 470.784 185.262 473.065 185.076C474.577 184.953 476.076 184.66 477.582 184.452C478.653 184.304 479.736 184.222 480.796 184.016C481.914 183.798 482.997 183.384 484.119 183.203C486.669 182.793 489.234 182.468 491.794 182.118C493.539 181.88 495.297 181.721 497.027 181.408C498.204 181.195 499.348 180.789 500.492 180.423C500.579 180.395 500.656 179.886 500.559 179.8C499.433 178.795 498.292 177.805 497.118 176.856C492.584 173.192 488.026 169.555 483.495 165.886C479.828 162.918 476.311 159.745 472.492 156.989C469.637 154.927 467.178 155.306 465.747 157.473L465.359 158.056C463.925 160.177 462.383 162.122 460.092 163.405C459.879 163.524 459.748 163.788 459.579 163.984C459.849 164.137 460.139 164.447 460.385 164.416C461.477 164.278 462.551 163.948 463.643 163.881C464.198 163.848 464.793 164.197 465.33 164.456C465.394 164.487 465.309 165.116 465.128 165.329C461.579 169.504 456.909 171.903 451.802 173.531C449.687 174.205 447.477 174.571 445.334 175.165C443.664 175.628 442.055 176.318 440.376 176.738C438.479 177.213 436.538 177.519 434.609 177.86C433.305 178.09 431.983 178.218 430.68 178.457C429 178.765 427.337 179.167 425.657 179.472C424.601 179.663 423.529 179.793 422.458 179.873C420.623 180.011 418.785 180.15 416.946 180.177C414.528 180.213 412.108 180.151 409.689 180.107C409.32 180.1 408.955 179.96 408.588 179.881C409.084 179.737 409.571 179.534 410.077 179.462C410.896 179.346 411.728 179.336 412.551 179.247C413.724 179.122 414.891 178.942 416.065 178.83C417.351 178.707 418.652 178.71 419.928 178.525C421.874 178.242 423.797 177.799 425.742 177.508C427.446 177.254 429.18 177.187 430.879 176.905C432.316 176.666 433.712 176.182 435.145 175.908C436.887 175.575 438.673 175.449 440.397 175.049C442.38 174.588 444.339 173.994 446.267 173.336C448.537 172.562 450.76 171.652 453.006 170.81C455.484 169.881 457.975 168.986 460.437 168.019C460.965 167.811 461.396 167.359 461.872 167.019C461.179 166.716 460.497 166.379 459.784 166.135C459.601 166.072 459.324 166.335 459.078 166.397C458.085 166.646 457.096 167 456.088 167.073C455.195 167.139 454.174 166.945 454.231 165.679C454.253 165.176 454.475 164.356 454.802 164.242C459.331 162.658 462.488 159.457 465.124 155.638C465.293 155.393 465.115 154.54 464.944 154.49C463.882 154.175 462.785 153.905 461.683 153.818C460.262 153.706 458.824 153.819 457.396 153.763C455.643 153.694 453.859 153.287 452.151 153.507ZM369.583 105.179L369.665 106.415C369.835 109.177 370.535 146.993 370.738 149.271C370.777 149.703 371.479 150.516 371.869 150.572C373.199 150.761 381.844 152.768 381.844 149.271C381.733 144.098 381.974 108.831 381.798 108.783C380.142 108.337 369.969 105.261 369.583 105.179ZM100.386 114.363C96.7263 115.411 93.0948 116.647 89.5964 118.143C85.5818 119.859 81.6954 121.887 77.807 123.884C73.2661 126.216 68.787 128.668 64.2729 131.053C62.9524 131.75 61.6192 132.428 60.2647 133.056C58.0595 134.079 55.8304 135.051 53.6166 136.056C53.413 136.148 53.2469 136.323 53.0634 136.46C53.2714 136.562 53.4712 136.729 53.6887 136.757L55.5947 137C56.8657 137.16 58.1378 137.31 59.4138 137.408C60.1295 137.464 60.8698 137.131 61.5949 137.148C63.6844 137.196 65.7724 137.324 67.8601 137.438C68.611 137.479 69.3586 137.578 70.1087 137.639C72.045 137.796 73.9794 137.998 75.9189 138.088C78.3016 138.198 80.6887 138.212 83.2406 138.434C85.3618 138.323 87.487 138.074 89.6031 138.136C92.2933 138.214 94.9728 138.625 97.6634 138.736C99.1659 138.799 100.686 138.408 102.19 138.46C106.435 138.608 110.673 138.996 114.917 139.066C118.591 139.126 122.269 138.807 125.946 138.783C133.502 138.733 141.059 138.748 148.615 138.783C150.348 138.791 152.079 139.001 153.812 139.086C154.013 139.096 154.225 138.894 154.432 138.791C154.296 138.672 154.174 138.53 154.022 138.438C149.277 135.544 144.524 132.661 139.781 129.763C135.749 127.3 131.794 124.7 127.701 122.348L126.332 121.573C121.972 119.151 118.157 115.659 113.084 114.597C111.101 114.182 109.113 113.531 107.119 113.501C104.873 113.467 102.543 113.745 100.386 114.363Z" fill="#00160A"/>
<path fill-rule="evenodd" clip-rule="evenodd" d="M136.509 93.8354C139.068 90.2761 141.403 86.6884 144.051 83.3498C148.293 78.0034 152.707 72.7918 157.12 67.5844C159.271 65.0466 161.546 62.6111 163.833 60.1935C167.019 56.8257 170.107 53.3409 173.528 50.225C179.041 45.2021 184.766 40.4082 190.45 35.575C196.882 30.1061 203.948 25.5215 211.187 21.2294C215.122 18.8963 219.291 16.9442 223.422 14.9623C226.39 13.5386 229.458 12.3187 232.505 11.0656C235.498 9.83471 238.487 8.57955 241.542 7.51776C243.949 6.68087 246.436 6.0495 248.919 5.45868C251.547 4.83315 254.208 4.33473 256.864 3.83483C258.989 3.43504 261.123 3.07612 263.264 2.77302C265.308 2.48351 267.362 2.24481 269.42 2.06641C271.388 1.89568 273.366 1.72899 275.339 1.74357C278.461 1.76664 281.583 2.03452 284.704 2.02276C286.97 2.01423 289.193 2.0105 291.472 2.26597C293.741 2.52033 296.026 2.78822 298.305 2.98039C300.6 3.17394 302.824 3.52058 305.068 4.00841C307.115 4.45323 309.291 4.31231 311.327 4.78729C314.237 5.46616 317.062 6.50288 319.94 7.3277C322.926 8.18356 325.969 8.85745 328.918 9.8236C330.959 10.4925 332.86 11.5779 334.865 12.3753C336.998 13.2237 339.247 13.8045 341.321 14.7707C343.835 15.9422 346.226 17.3818 348.657 18.7286C355.025 22.2557 361.184 26.1045 366.9 30.6307C368.706 32.061 370.48 33.5317 372.262 34.9923C372.518 35.2027 372.823 35.4207 372.953 35.7049C373.182 36.2035 373.294 36.756 373.455 37.2859C373.029 37.047 372.551 36.8703 372.186 36.5601C366.672 31.8719 360.586 27.9995 354.447 24.2206C351.601 22.4685 348.576 21.002 345.604 19.4588C344.027 18.6395 342.422 17.8547 340.774 17.1917C337.176 15.7443 333.548 14.3718 329.923 12.9934C327.282 11.9892 324.652 10.9446 321.969 10.0635C318.992 9.08569 315.982 8.18953 312.946 7.41398C310.297 6.73711 307.606 6.19162 304.907 5.75257C303.2 5.47495 301.431 5.5922 299.714 5.35892C298.313 5.16862 296.963 4.56668 295.562 4.42744C293.873 4.25957 292.155 4.41283 290.45 4.37238C289.938 4.36023 289.432 4.07467 288.921 4.06924C286.012 4.03831 283.103 4.08732 280.195 4.03909C278.906 4.01771 277.617 3.72344 276.332 3.74916C274.836 3.7791 273.348 4.06208 271.851 4.16515C270.178 4.28035 268.496 4.27427 266.825 4.40182C265.591 4.49597 264.359 4.67583 263.14 4.89631C261.379 5.21495 259.637 5.6397 257.875 5.95303C256.544 6.18981 255.18 6.25187 253.856 6.52066C252.229 6.8511 250.618 7.27614 249.021 7.73225C247.053 8.29399 245.112 8.94491 243.15 9.52922C241.449 10.036 239.683 10.3669 238.039 11.0139C232.751 13.095 227.433 15.1237 222.263 17.4738C214.751 20.889 207.632 25.0598 200.849 29.7562C196.586 32.7075 192.468 35.8723 188.342 39.0172C180.078 45.3175 172.782 52.6829 165.603 60.1452C161.936 63.9574 158.581 68.0802 155.212 72.167C151.784 76.3242 148.436 80.5521 145.194 84.8552C141.958 89.15 138.816 93.5212 135.783 97.9616C133.107 101.879 130.642 105.94 128.069 109.929C127.952 110.11 127.686 110.195 127.489 110.324C127.523 110.135 127.513 109.922 127.598 109.759C129.318 106.469 131.004 103.16 132.795 99.9093C133.921 97.8661 135.21 95.9126 136.509 93.8354Z" fill="#00160A"/>
<path fill-rule="evenodd" clip-rule="evenodd" d="M457.871 51.7375C455.775 52.6266 453.878 53.5982 451.909 54.3877C447.932 55.9823 443.992 57.6543 439.833 58.7983C437.177 59.5287 434.572 60.2263 431.809 60.4593C429.871 60.6226 427.982 61.5878 426.058 61.6315C423.391 61.692 421.199 62.7467 419.109 64.1046C417.163 65.3694 415.409 66.9261 413.505 68.2603C412.821 68.7399 411.97 69.1081 411.149 69.2377C409.93 69.4303 408.67 69.3544 407.429 69.4127C405.251 69.5151 403.075 69.7176 400.898 69.7198C398.719 69.7219 396.54 69.5287 394.362 69.425C394.031 69.4092 393.694 69.3788 393.367 69.4162C391.53 69.6262 389.669 69.7272 387.867 70.1094C385.609 70.5884 383.395 71.281 381.174 71.9232C379.175 72.5012 377.102 72.9361 375.223 73.7879C371.662 75.4015 368.216 77.2704 364.72 79.0265C364.466 79.1539 364.185 79.2272 363.917 79.3256C364.061 79.1291 364.178 78.9038 364.353 78.7406C366.027 77.1806 367.519 75.3085 369.441 74.1582C371.984 72.6365 374.81 71.5228 377.621 70.5348C379.835 69.7563 382.204 69.4025 384.516 68.9167C386.571 68.485 388.63 68.0379 390.709 67.7671C393.198 67.4428 395.707 67.1856 398.214 67.1113C400.275 67.0501 402.362 67.5208 404.406 67.357C407.408 67.1164 410.41 66.6543 413.351 66.0063C414.446 65.765 415.656 64.9394 416.306 64.0208C417.596 62.1968 419.393 61.053 421.275 60.2864C422.991 59.5876 425.027 59.6818 426.918 59.4031C428.678 59.1438 430.436 58.8701 432.19 58.5722C433.692 58.3171 435.232 58.1619 436.673 57.7043C438.584 57.0971 440.399 56.193 442.289 55.5071C443.285 55.1456 444.406 55.1067 445.374 54.6952C447.9 53.6206 450.356 52.3806 452.874 51.2838C454.955 50.3774 457.077 49.5634 459.194 48.7406C462.529 47.4435 465.833 46.0411 469.234 44.9418C471.266 44.2847 473.463 44.1417 475.577 43.7275C477.076 43.4339 478.55 42.885 480.056 42.7922C481.776 42.6861 483.524 42.9181 485.252 43.081C486.606 43.2086 487.949 43.4495 489.295 43.6508C489.984 43.7538 489.919 44.1009 489.421 44.3421C487.898 45.0792 486.369 45.595 484.574 45.4574C482.749 45.3175 480.888 45.5868 479.048 45.7453C476.968 45.9246 474.866 46.0386 472.825 46.4426C470.839 46.8356 468.898 47.4953 466.978 48.1564C465.021 48.8303 463.109 49.6387 461.185 50.4076C460.128 50.8303 459.086 51.2929 457.871 51.7375Z" fill="#00160A"/>
<path fill-rule="evenodd" clip-rule="evenodd" d="M458.954 244.054C459.783 245.55 460.938 246.904 461.151 248.393C461.337 249.693 461.884 251.295 460.596 252.643C459.279 254.021 458.223 255.647 457.029 257.145C454.789 259.955 451.736 260.966 448.273 261.158C445.565 261.308 442.867 261.622 440.16 261.8C437.747 261.959 435.328 262.037 432.911 262.143C430.273 262.259 427.634 262.433 424.995 262.454C423.265 262.467 421.527 262.109 419.803 262.175C416.338 262.306 413.23 261.369 411.034 258.723C409.018 256.293 408.205 253.548 408.949 250.073C410.317 243.677 414.072 239.041 418.674 234.883C420.091 233.602 421.807 232.602 423.507 231.7C425.688 230.543 427.904 229.11 430.26 228.71C433.49 228.162 436.658 227.35 440.194 227.972C445.846 228.966 449.963 231.813 453.312 236.118C455.28 238.646 457.025 241.347 458.954 244.054M459.038 247.139C456.07 242.005 453.097 236.817 448.289 233.174C446.303 231.668 443.849 230.558 441.435 229.9C439.221 229.297 436.849 229.474 434.428 229.907C431.467 230.436 428.611 231.08 425.884 232.29C422.004 234.013 418.727 236.61 416.035 239.84C412.112 244.547 408.908 249.508 411.317 256.153C412.222 258.649 415.407 260.626 418.086 260.193C419.703 259.932 421.401 260.132 423.06 260.189C424.465 260.237 425.872 260.513 427.267 260.447C429.679 260.333 432.078 259.926 434.489 259.837C437.503 259.725 440.524 259.81 443.541 259.81C444.615 259.81 445.716 259.962 446.757 259.776C448.576 259.452 450.465 259.164 452.134 258.428C456.251 256.613 460.736 252.961 459.038 247.139Z" fill="#00160A"/>
<path fill-rule="evenodd" clip-rule="evenodd" d="M203.199 254.224C204.813 252.277 206.525 250.53 207.829 248.519C209.481 245.971 209.624 243.077 209.265 240.051C208.952 237.403 209.949 235.019 211.757 232.962C213.782 230.66 216.454 229.438 219.161 228.292C221.596 227.26 224.046 228.059 226.293 228.929C227.323 229.328 228.171 230.602 228.752 231.669C230.337 234.581 231.146 237.803 232.238 240.915C233.098 243.364 232.39 245.315 231.258 247.013C230.159 248.661 228.399 249.972 226.705 251.093C224.608 252.48 222.368 253.742 220.031 254.648C217.527 255.617 214.843 256.123 212.23 256.801C211.204 257.068 210.165 257.316 209.117 257.455C208.335 257.559 207.526 257.445 206.732 257.481C204.23 257.594 201.731 257.773 199.229 257.847C197.258 257.906 195.283 257.848 193.309 257.839C191.204 257.831 189.098 257.772 186.994 257.822C184.873 257.873 182.755 258.035 180.636 258.139C180.193 258.161 179.746 258.117 179.304 258.152C179.029 258.174 178.762 258.287 178.491 258.36C178.714 258.065 178.878 257.61 179.17 257.502C180.945 256.845 182.753 256.291 184.689 256.475C184.744 256.48 184.801 256.479 184.856 256.475C187.184 256.288 189.512 256.084 191.842 255.919C192.877 255.846 193.919 255.839 194.958 255.823C196.088 255.805 197.22 255.793 198.35 255.815C199.167 255.831 200.064 256.141 200.779 255.896C201.639 255.602 202.344 254.857 203.199 254.224M211.618 237.469C211.599 238.672 211.611 239.877 211.553 241.078C211.47 242.787 211.718 244.636 211.143 246.17C209.954 249.349 208.012 252.15 205.556 254.554C205.187 254.915 204.948 255.409 204.648 255.841C205.237 255.941 205.827 256.13 206.414 256.119C207.111 256.105 207.818 255.972 208.497 255.799C210.573 255.27 212.705 254.873 214.69 254.104C218.669 252.562 222.607 250.898 226.478 249.102C228.544 248.144 230.02 246.448 230.089 244.022C230.131 242.584 229.887 241.137 229.663 239.691C229.276 237.196 228.134 235.135 227.128 232.954C226.398 231.372 224.97 230.38 223.472 230.234C221.71 230.062 219.789 230.401 218.087 230.969C215.006 231.997 212.783 234.094 211.618 237.469Z" fill="#00160A"/>
<path fill-rule="evenodd" clip-rule="evenodd" d="M360.754 78.4967C359.891 75.482 361.51 73.2342 363.027 71.1209C366.394 66.4306 371.148 63.4439 376.315 61.0885C378.557 60.0668 380.822 59.0521 383.163 58.3063C385.975 57.4102 388.88 56.8051 391.745 56.0711C392.145 55.9685 392.537 55.7838 392.941 55.7516C394.029 55.6652 393.554 55.2485 393.142 54.8721C390.648 52.5876 388.146 50.3107 385.643 48.035C384.515 47.0091 383.362 46.0086 382.256 44.96C381.918 44.6401 381.612 44.2309 381.446 43.8026C381.288 43.3953 381.331 42.9096 381.287 42.4584C381.705 42.6164 382.224 42.6669 382.527 42.9487C386.301 46.4523 390.041 49.9929 393.799 53.5137C394.267 53.9524 395.075 54.7683 395.239 54.6614C395.882 54.244 396.579 53.6045 396.799 52.904C397.318 51.2511 397.49 49.4922 397.957 47.8192C398.807 44.771 401.175 43.0461 403.82 41.7646C407.067 40.1912 410.4 38.7865 413.738 37.4137C417.94 35.6861 422.193 34.0837 426.41 32.3918C430.34 30.8149 434.177 28.9567 438.203 27.6889C440.172 27.0688 442.474 27.5061 444.626 27.48C444.705 27.479 444.786 27.6382 444.866 27.7227C444.725 27.836 444.6 28.0006 444.439 28.0551C440.13 29.5094 435.792 30.8814 431.514 32.4219C428.563 33.4846 425.708 34.8132 422.783 35.9508C421.56 36.4263 420.217 36.6034 419.011 37.1112C416.486 38.1745 414.03 39.4031 411.516 40.4949C409.667 41.298 407.721 41.8897 405.906 42.7593C403.448 43.9372 400.868 45.126 400.06 48.0756C399.76 49.174 400.184 50.5097 399.768 51.5286C399.187 52.9492 398.348 54.4193 397.226 55.4316C394.915 57.516 391.962 58.4064 388.954 59.0888C387.123 59.5043 385.351 60.2091 383.509 60.5422C379.795 61.2136 376.385 62.6706 373.113 64.4331C368.596 66.8663 365.035 70.3646 362.579 74.8855C361.913 76.1114 361.635 77.5469 361.162 78.8803C361.112 79.0233 360.949 79.1267 360.838 79.2485C360.838 79.0257 360.837 78.8029 360.754 78.4967Z" fill="#00160A"/>
<path fill-rule="evenodd" clip-rule="evenodd" d="M318.489 189.452C315.96 189.341 313.597 189.132 311.235 189.146C308.81 189.16 306.45 188.937 304.046 188.552C302.07 188.236 300.134 188.124 298.31 187.162C297.374 186.668 297.036 186.201 297.096 185.086C297.186 183.42 296.815 181.734 296.837 180.059C296.892 175.811 297.938 171.88 301.217 168.916C302.756 167.525 304.759 167.039 306.689 166.304C309.716 165.151 312.34 166.47 314.966 166.956C317.589 167.442 319.981 169.256 322.429 170.573C324.353 171.608 326.413 172.537 328.03 173.95C329.459 175.199 330.52 176.965 331.441 178.667C332.148 179.971 332.714 181.528 332.726 182.978C332.736 184.221 332.084 185.618 331.346 186.685C330.084 188.508 328.092 188.977 325.938 188.788C325.718 188.768 325.492 188.766 325.272 188.788C323.066 189.005 320.861 189.23 318.489 189.452M329.326 183.116C329.698 182.266 330.546 181.275 330.344 180.595C329.928 179.196 329.239 177.613 328.156 176.722C323.398 172.806 318.334 169.422 312.089 168.153C308.784 167.481 305.793 167.875 302.897 169.45C300.748 170.62 300.568 172.407 302.421 173.881C303.421 174.676 304.422 175.47 305.444 176.235C309.79 179.491 314.607 181.789 319.87 183.091C321.859 183.583 323.912 183.929 325.953 184.057C327.002 184.122 328.089 183.561 329.326 183.116M328.326 186.784C328.79 186.359 329.254 185.934 329.718 185.509C329.109 185.522 328.5 185.519 327.894 185.56C327.7 185.573 327.506 185.787 327.325 185.77C325.1 185.568 322.858 185.454 320.66 185.082C318.813 184.769 316.93 184.352 315.223 183.613C312.967 182.635 310.83 181.362 308.711 180.1C305.889 178.418 302.986 176.812 301.116 173.936C300.896 173.598 300.485 173.384 300.162 173.113C299.936 173.484 299.594 173.828 299.502 174.23C299.121 175.896 298.776 177.573 298.496 179.259C298.311 180.368 298.158 181.499 298.171 182.618C298.192 184.548 299.559 186.362 300.946 186.446C303.066 186.575 305.261 186.37 307.293 186.857C310.229 187.561 313.153 187.418 316.089 187.428C318.153 187.436 320.217 187.21 322.282 187.123C324.24 187.042 326.2 187.007 328.326 186.784Z" fill="#00160A"/>
<path fill-rule="evenodd" clip-rule="evenodd" d="M357.086 76.8296C356.897 75.9743 356.685 75.199 356.71 74.4312C356.76 72.8467 356.788 71.2376 357.088 69.6893C358.224 63.8208 362.42 60.1372 366.62 56.4125C370.151 53.2807 373.794 50.2141 375.946 45.8273C376.785 44.1181 376.672 42.4392 376.627 40.5982C376.518 36.2255 374.121 33.1658 371.126 30.6415C368.055 28.0521 364.567 25.9398 361.18 23.7455C356.946 21.0029 353.345 17.7309 351.046 13.1345C349.67 10.383 350.355 4.91815 352.627 2.81526C353.177 2.30635 354.049 1.90692 354.78 1.8946C355.618 1.88048 356.026 2.63302 355.828 3.52857C355.787 3.71399 355.695 3.99212 355.561 4.0373C353.759 4.64821 352.003 9.26622 353.236 11.0161C354.128 12.2815 354.45 14.013 355.485 15.1004C357.527 17.247 359.839 19.1492 362.127 21.0471C365.956 24.2231 369.964 27.1919 373.686 30.4857C376.471 32.95 378.468 36.171 379.261 39.79C379.661 41.6183 379.303 43.7758 378.431 45.6495C376.657 49.4585 373.89 52.3986 370.714 55.1156C366.956 58.3304 362.8 61.271 360.409 65.76C359.336 67.7748 358.61 70.0829 358.261 72.3405C357.99 74.0984 358.561 75.9828 358.72 77.8142C358.743 78.0726 358.556 78.3492 358.466 78.6173C358.256 78.4575 357.991 78.3356 357.848 78.1295C357.584 77.7501 357.391 77.3212 357.086 76.8296Z" fill="#00160A"/>
<path fill-rule="evenodd" clip-rule="evenodd" d="M538.648 185.2C538.407 186.776 538.403 188.305 538.054 189.751C537.532 191.919 536.884 194.074 536.076 196.151C535.136 198.568 534.036 200.93 532.872 203.249C532.105 204.776 531.152 206.22 530.179 207.63C529.837 208.126 529.185 208.406 528.68 208.793C527.603 209.617 527.334 208.304 527.34 208.011C527.395 205.346 527.257 202.686 528.06 200.042C528.646 198.111 528.598 195.994 528.935 193.978C529.163 192.62 529.598 191.297 529.891 189.948C530.331 187.925 530.704 185.887 531.148 183.865C531.906 180.42 532.705 177.009 536.116 175.019C536.799 174.62 537.116 174.623 537.803 175.07C539.353 176.079 540.007 177.243 539.598 179.13C539.173 181.096 539.01 183.119 538.648 185.2M537.898 182.283C537.976 180.76 538.108 179.238 538.095 177.716C538.091 177.291 537.749 176.717 537.388 176.498C537.115 176.331 536.396 176.474 536.169 176.734C535.449 177.563 534.707 178.438 534.26 179.426C532.888 182.453 532.102 185.617 531.798 188.972C531.549 191.716 530.669 194.402 530.07 197.114C529.898 197.894 529.7 198.671 529.568 199.458C529.217 201.556 528.89 203.658 528.566 205.76C528.5 206.189 528.494 206.626 528.46 207.06C528.938 206.759 529.658 206.57 529.857 206.14C531.372 202.87 532.876 199.587 534.2 196.236C535.136 193.865 535.865 191.402 536.53 188.938C536.847 187.764 536.711 186.473 536.948 185.269C537.127 184.357 537.572 183.498 537.898 182.283Z" fill="#00160A"/>
<path fill-rule="evenodd" clip-rule="evenodd" d="M133.758 261.477C132.553 261.255 131.522 260.989 130.475 260.82C128.85 260.558 127.194 260.457 125.589 260.114C123.643 259.698 121.721 259.15 119.816 258.57C118.093 258.045 116.406 257.404 114.709 256.795C114.649 256.773 114.602 256.467 114.647 256.435C115.024 256.173 115.404 255.783 115.82 255.732C119.248 255.316 122.144 257.295 125.349 257.929C128.017 258.457 130.627 259.291 133.302 259.769C135.109 260.092 136.986 260.003 138.827 260.156C139.681 260.227 140.524 260.431 141.369 260.587C143.572 260.991 145.763 261.489 147.98 261.783C149.807 262.027 151.679 261.934 153.506 262.176C154.903 262.361 156.27 262.806 157.636 263.189C160.289 263.932 162.932 264.712 165.577 265.482C165.742 265.53 165.893 265.624 166.051 265.697C165.9 265.735 165.746 265.817 165.599 265.805C164.009 265.67 162.414 265.569 160.833 265.363C158.968 265.12 157.118 264.766 155.257 264.492C154.268 264.346 153.27 264.26 152.275 264.156C150.089 263.927 147.891 263.779 145.72 263.455C143.827 263.173 141.977 262.605 140.084 262.33C138.167 262.051 136.22 261.981 134.288 261.798C134.158 261.785 134.046 261.588 133.758 261.477Z" fill="#00160A"/>
<path fill-rule="evenodd" clip-rule="evenodd" d="M343.509 99.5874C346.341 98.582 352.423 103.219 350.447 107.973C348.166 113.463 341.09 112.417 339.213 110.044C335.688 105.588 338.122 101.5 343.509 99.5874ZM340.22 103.849C336.671 107.245 342.62 111.212 345.26 110.324C352.259 107.972 347.831 96.5659 340.22 103.849Z" fill="#00160A"/>
<path fill-rule="evenodd" clip-rule="evenodd" d="M539.149 193.037C540.852 189.917 542.225 186.697 545.216 184.657C545.575 184.412 546.295 184.104 546.434 184.242C546.818 184.623 547.197 185.224 547.202 185.741C547.241 190.567 544.101 194.168 542.217 198.243C541.223 200.394 539.805 202.349 538.558 204.381C538.31 204.786 538.002 205.166 537.667 205.505C537.354 205.821 536.701 206.343 536.658 206.302C536.133 205.791 535.469 205.253 535.294 204.601C535.118 203.948 535.371 203.133 535.579 202.432C536.323 199.925 537.092 197.424 537.935 194.95C538.16 194.288 538.681 193.727 539.149 193.037M537.398 199.789C537.175 201.011 536.947 202.232 536.734 203.456C536.681 203.759 536.678 204.07 536.651 204.377C536.956 204.113 537.367 203.907 537.549 203.575C539.896 199.278 542.258 194.988 544.502 190.637C545.119 189.442 545.378 188.058 545.742 186.744C545.791 186.567 545.529 186.158 545.338 186.101C545.125 186.037 544.685 186.175 544.588 186.356C542.227 190.768 539.899 195.196 537.398 199.789Z" fill="#00160A"/>
<path fill-rule="evenodd" clip-rule="evenodd" d="M356.137 84.2677C356.137 79.2484 367.001 83.276 367.921 84.7305C368.152 85.0946 368.624 98.9211 367.817 96.9764C366.954 94.8007 367.55 86.03 366.606 85.4266C363.552 83.9174 359.857 83.1379 358.404 83.6516C355.895 84.2396 358.567 94.8672 356.984 93.0673C356.893 92.7531 356.809 92.4362 356.707 92.1254C356.591 91.7756 356.137 86.7009 356.137 84.2677Z" fill="#00160A"/>
<path fill-rule="evenodd" clip-rule="evenodd" d="M403.185 65.4088C402.444 65.2788 401.652 65.3433 401.331 64.9855C399.799 63.2763 398.391 61.4555 396.949 59.6663C396.72 59.3817 396.542 59.0559 396.34 58.7492C397.025 58.6505 397.968 58.2219 398.347 58.517C399.355 59.3025 400.216 60.3328 400.958 61.3902C401.852 62.6627 402.562 64.0635 403.185 65.4088Z" fill="#00160A"/>
<path fill-rule="evenodd" clip-rule="evenodd" d="M362.504 85.2227C362.542 84.7956 363.598 85.745 363.625 86.0867C363.776 87.9987 364.514 96.4307 363.828 95.5424C363.44 94.7213 363.084 92.4414 362.913 91.5406C362.743 90.6398 362.504 88.0408 362.504 85.2227Z" fill="#00160A"/>
<path fill-rule="evenodd" clip-rule="evenodd" d="M378.962 124.798C378.939 126.733 379.006 128.667 378.962 130.601C378.936 131.744 375.868 132.198 374.519 131.516C373.166 130.833 373.589 125.588 373.514 124.798C373.276 122.319 373.179 119.819 372.8 117.363C372.55 115.746 372.386 113.798 373.155 113.549C375.954 112.644 378.441 116.13 378.318 116.252C378.64 118.759 378.965 124.524 378.962 124.798ZM374.842 119.261C374.953 119.714 375.095 127.615 375.289 130.431C375.322 130.899 377.128 130.899 377.52 130.08C377.895 127.823 377.112 119.753 377.128 117.06C377.13 116.629 376.586 116.013 376.141 115.793C374.671 115.067 374.408 115.272 374.519 116.9C374.566 117.58 374.731 118.252 374.842 119.261Z" fill="#00160A"/>
<path fill-rule="evenodd" clip-rule="evenodd" d="M280.718 165.042C281.161 164.871 281.659 165.091 281.83 165.534C282.002 165.977 281.781 166.475 281.338 166.646C261.644 174.254 261.644 189.146 281.676 212.108C299.588 232.639 333.083 251.633 382.152 269.044C382.6 269.203 382.834 269.694 382.675 270.142C382.516 270.59 382.025 270.824 381.577 270.665C332.255 253.164 298.526 234.038 280.38 213.239C259.67 189.5 259.67 173.173 280.718 165.042Z" fill="#E7EAEE"/>
<path d="M313.968 265.525C314.123 265.076 314.613 264.838 315.062 264.994C315.511 265.149 315.749 265.638 315.594 266.087C311.771 277.14 304.791 286.35 294.673 293.703C284.588 301.031 267.927 307.663 244.668 313.629C244.208 313.747 243.739 313.47 243.621 313.01C243.503 312.55 243.78 312.081 244.24 311.963L245.858 311.545C268.08 305.737 284.021 299.317 293.662 292.312C303.5 285.162 310.263 276.239 313.968 265.525Z" fill="#09EEE3"/>
<path fill-rule="evenodd" clip-rule="evenodd" d="M314.924 274.939C315.032 274.477 315.494 274.189 315.957 274.297C316.419 274.405 316.707 274.867 316.599 275.33C313.15 290.113 305.809 300.692 294.589 307.005C283.504 313.241 271.558 317.483 258.754 319.729C258.286 319.811 257.84 319.498 257.758 319.03C257.676 318.563 257.989 318.117 258.457 318.035C271.07 315.822 282.832 311.646 293.745 305.506C304.524 299.441 311.579 289.273 314.924 274.939Z" fill="#E7EAEE"/>
<path fill-rule="evenodd" clip-rule="evenodd" d="M368.747 274.073C368.858 273.611 369.323 273.327 369.785 273.438C386.772 277.528 401.81 279.812 414.896 280.291L415.878 280.324C428.95 280.719 447.832 279.675 472.513 277.19C472.985 277.142 473.407 277.487 473.455 277.959C473.502 278.432 473.158 278.854 472.685 278.901L468.97 279.269C445.419 281.555 427.377 282.469 414.833 282.01C401.623 281.526 386.474 279.226 369.382 275.11C368.92 274.999 368.636 274.535 368.747 274.073Z" fill="#E7EAEE"/>
<path fill-rule="evenodd" clip-rule="evenodd" d="M243.063 172.934C243.452 172.661 243.988 172.754 244.261 173.143C244.534 173.531 244.441 174.068 244.052 174.341C239.272 177.7 236.765 181.096 236.447 184.505C236.126 187.956 238.055 192.714 242.289 198.719C242.563 199.107 242.47 199.644 242.082 199.917C241.694 200.191 241.158 200.098 240.884 199.71C236.435 193.401 234.367 188.3 234.735 184.346C235.106 180.352 237.91 176.555 243.063 172.934Z" fill="#00160A"/>
<path fill-rule="evenodd" clip-rule="evenodd" d="M244.915 176.88C245.19 176.687 245.569 176.753 245.762 177.028C245.955 177.303 245.889 177.683 245.614 177.876C242.233 180.252 240.459 182.655 240.234 185.067C240.007 187.508 241.372 190.875 244.367 195.123C244.561 195.398 244.495 195.777 244.221 195.971C243.946 196.164 243.566 196.099 243.373 195.824C240.225 191.361 238.762 187.752 239.022 184.954C239.285 182.128 241.269 179.443 244.915 176.88Z" fill="#00160A"/>
</svg>
