<svg width="451" height="423" viewBox="0 0 451 423" fill="none" xmlns="http://www.w3.org/2000/svg">
<path fill-rule="evenodd" clip-rule="evenodd" d="M32.0662 202.502C32.0662 202.502 12.949 186.171 39.7691 129.786C66.5892 73.4 120.905 85.7588 155.623 63.5802C206.921 30.8105 185.895 5.16564 249.859 1.03195C330.395 -4.1727 334.956 79.9347 375.249 79.9347C377.9 79.9347 440.644 54.7233 449.828 123.741C454.453 158.498 375.249 211.502 375.249 211.502C375.249 211.502 342.286 241.381 340.476 256.135C332.884 318.013 348.716 388.883 171.295 421.51C148.35 425.729 110.248 410.466 89.2282 382.272C72.7602 360.183 6.7008 375.855 0.534339 303.235C-2.57368 266.633 32.0662 202.502 32.0662 202.502Z" fill="#64FCD9"/>
<path d="M150.41 153.442C151.009 153.089 151.78 153.288 152.133 153.886L153.557 156.289C159.211 165.776 161.473 168.857 163.877 170.249C165.853 171.394 167.896 171.039 171.635 168.846L172.135 168.546C174.486 167.08 185.248 159.687 189.409 157.033C189.995 156.659 190.773 156.831 191.146 157.417C191.52 158.002 191.348 158.78 190.762 159.154L190.122 159.566C185.485 162.572 175.069 169.725 173.225 170.828C168.698 173.535 165.762 174.143 162.821 172.542L162.616 172.426C159.456 170.595 156.998 167.083 149.966 155.165C149.613 154.566 149.812 153.795 150.41 153.442Z" fill="white"/>
<path d="M170.782 167.982C171.47 167.89 172.103 168.374 172.195 169.062C172.624 172.262 173.65 175.471 175.279 178.692C175.593 179.312 175.344 180.068 174.724 180.382C174.104 180.696 173.348 180.447 173.034 179.827C171.281 176.361 170.169 172.883 169.702 169.396C169.61 168.708 170.093 168.075 170.782 167.982Z" fill="white"/>
<path fill-rule="evenodd" clip-rule="evenodd" d="M317.329 244.814C317.126 245.328 316.682 246.038 316.165 246.711L316.61 247.173L317.126 247.723L317.241 247.833C317.291 247.877 317.33 247.904 317.359 247.911C317.526 247.936 317.642 248.089 317.619 248.258C317.595 248.422 317.442 248.541 317.276 248.516C317.124 248.513 316.575 248.299 315.921 247.767C315.803 247.671 315.685 247.56 315.565 247.438C315.187 247.859 314.806 248.221 314.477 248.445C313.992 248.78 313.572 248.807 313.372 248.671C313.175 248.539 312.985 248.096 313.306 247.201C313.356 247.039 313.529 246.954 313.689 247.004C313.849 247.055 313.937 247.226 313.887 247.387C313.838 247.553 313.831 247.705 313.831 247.827L314.017 247.7C314.083 247.653 314.15 247.6 314.212 247.538C314.436 247.316 314.687 247.048 314.939 246.756C314.54 246.292 314.133 245.748 313.804 245.119C313.644 244.812 313.516 244.487 313.394 244.145C313.31 243.954 313.397 243.729 313.589 243.645C313.78 243.56 314.004 243.648 314.089 243.839C314.455 244.606 314.923 245.268 315.385 245.835L315.539 246.02C315.961 245.469 316.322 244.912 316.486 244.487C316.577 244.256 316.84 244.14 317.072 244.229C317.306 244.321 317.421 244.583 317.329 244.814Z" fill="white"/>
<path fill-rule="evenodd" clip-rule="evenodd" d="M130.158 86.1208L129.391 85.982C125.109 85.186 121.827 84.2087 115.694 82.0826C114.991 81.8387 114.618 81.0709 114.862 80.3677C115.106 79.6644 115.874 79.2919 116.577 79.5358L118.105 80.0618C123.485 81.8976 126.503 82.7393 130.626 83.4662C144.497 85.9121 154.883 78.7905 155.733 65.2086C155.779 64.4657 156.419 63.9011 157.162 63.9476C157.905 63.9941 158.47 64.634 158.423 65.3769C157.467 80.6518 145.537 88.8325 130.158 86.1208Z" fill="#00160A"/>
<path fill-rule="evenodd" clip-rule="evenodd" d="M164.818 100.666L165.592 102.386L167.356 102.892C167.452 102.92 167.507 103.019 167.479 103.115C167.471 103.144 167.455 103.171 167.433 103.192L166.093 104.527L166.168 106.447C166.172 106.546 166.095 106.63 165.995 106.634C165.962 106.635 165.929 106.627 165.899 106.61L164.382 105.746C164.335 105.719 164.277 105.715 164.227 105.735L162.604 106.38C162.511 106.417 162.407 106.371 162.37 106.279C162.358 106.248 162.354 106.214 162.36 106.181L162.702 104.29L161.56 102.782C161.5 102.703 161.516 102.59 161.595 102.53C161.62 102.511 161.648 102.5 161.679 102.495L163.496 102.239L164.502 100.644C164.555 100.56 164.666 100.535 164.75 100.588C164.78 100.607 164.803 100.634 164.818 100.666Z" fill="#00160A"/>
<path d="M342.107 57.4381C342.8 57.3887 343.402 57.9103 343.451 58.6033C343.5 59.2963 342.979 59.8981 342.286 59.9475C337.322 60.3017 333.423 62.2252 331.692 66.9835C331.587 67.27 331.501 67.5464 331.431 67.8091L331.384 67.9896L331.46 67.8312C333.641 63.3789 337.846 60.2853 342.72 59.5002L343.039 59.4522C343.727 59.3562 344.362 59.8361 344.458 60.5242C344.554 61.2122 344.074 61.8479 343.386 61.9439C338.859 62.5759 334.986 65.5849 333.296 69.9008L333.187 70.1904C332.384 72.3963 330.457 73.4541 329.216 71.5663C328.46 70.4149 328.51 68.3699 329.327 66.1231C331.402 60.4238 336.162 57.8622 342.107 57.4381Z" fill="white"/>
<path d="M336.377 48.0667C337.07 48.0172 337.672 48.5389 337.721 49.2319C337.771 49.9248 337.249 50.5267 336.556 50.5761C328.66 51.1394 321.736 56.2673 318.981 63.8364C318.164 66.0802 318.013 67.9985 318.305 68.97L318.341 69.0785L318.396 68.9982C318.537 68.7852 318.695 68.4792 318.85 68.0824L318.916 67.9068C321.826 59.9118 328.882 54.3127 337.157 53.1576C337.845 53.0616 338.48 53.5415 338.577 54.2295C338.673 54.9176 338.193 55.5532 337.505 55.6493C330.265 56.6597 324.078 61.491 321.413 68.4135L321.28 68.7673C320.201 71.7321 317.868 73.0129 316.376 70.7427C315.354 69.187 315.425 66.2502 316.617 62.976C319.714 54.4659 327.5 48.7 336.377 48.0667Z" fill="white"/>
<path d="M328.656 35.5713C329.349 35.5219 329.95 36.0435 330 36.7365C330.049 37.4295 329.528 38.0313 328.835 38.0807C317.573 38.8842 307.697 46.1981 303.768 56.9938C302.431 60.6678 302.319 63.7818 303.049 65.0762L303.116 65.1857C303.224 65.3502 303.188 65.355 303.216 65.3324L303.232 65.3213C303.602 65.1182 304.091 64.4263 304.537 63.2787L304.626 63.0431C308.639 52.0167 318.369 44.2949 329.782 42.7018C330.47 42.6058 331.106 43.0857 331.202 43.7738C331.298 44.4618 330.818 45.0975 330.13 45.1935C319.767 46.6401 310.914 53.5773 307.136 63.51L306.99 63.9036C305.594 67.7396 302.794 69.2764 301.013 66.5672C299.686 64.5474 299.783 60.5869 301.404 56.1334C305.676 44.3967 316.413 36.4448 328.656 35.5713Z" fill="white"/>
<path d="M314.871 23.828C315.553 23.6945 316.214 24.1389 316.347 24.8207C316.481 25.5025 316.036 26.1634 315.354 26.2969C305.159 28.2936 296.96 36.0808 294.582 46.3811C293.777 49.8671 294.021 52.7016 294.81 53.783L294.915 53.9186L294.924 53.9374L294.938 53.926C295.221 53.6708 295.552 53.0189 295.808 52.0081L295.862 51.786C298.307 41.1925 306.384 32.9924 316.7 30.2385C317.371 30.0594 318.061 30.4582 318.24 31.1295C318.419 31.8007 318.02 32.4901 317.349 32.6692C308.055 35.1503 300.753 42.4676 298.409 51.95L298.313 52.352C297.451 56.0882 294.974 57.8717 292.968 55.5067C291.5 53.7768 291.14 50.1063 292.131 45.8151C294.734 34.5392 303.71 26.0138 314.871 23.828Z" fill="white"/>
<path d="M175.429 178.969L176.155 178.705C183.018 176.242 188.809 175.155 190.28 176.652C191.57 177.964 192.719 180.341 193.809 183.827C194.017 184.491 193.647 185.196 192.984 185.403C192.321 185.611 191.615 185.241 191.408 184.578C190.466 181.563 189.504 179.534 188.594 178.531L188.557 178.491L188.525 178.493C188.352 178.458 188.094 178.44 187.765 178.447C187.04 178.461 186.05 178.588 184.866 178.823C182.432 179.305 179.355 180.202 176.299 181.329C171.191 183.214 166.934 185.428 164.583 187.429C163.72 188.163 162.144 186.117 163.661 184.946C166.389 182.837 170.528 180.777 175.429 178.969Z" fill="white"/>
<path d="M171.975 155.205C171.975 159.401 176.412 163.944 177.356 164.203C178.026 164.386 166.482 171.908 166.482 171.908C162.31 172.457 159.861 168.931 159.861 163.678C159.861 162.984 171.975 154.511 171.975 155.205Z" fill="white"/>
<path fill-rule="evenodd" clip-rule="evenodd" d="M158.362 157.41C159.823 157.126 160.816 155.909 160.579 154.691C160.343 153.473 158.966 152.716 157.505 153C156.044 153.284 155.051 154.502 155.287 155.72C155.524 156.937 156.901 157.694 158.362 157.41Z" fill="#FFB61D"/>
<path d="M307.262 16.8525C307.946 16.7332 308.598 17.1914 308.717 17.8759C308.836 18.5603 308.378 19.2117 307.694 19.331C304.438 19.898 301.156 21.8682 297.772 25.0022C293.377 29.0716 290.474 34.6946 288.874 42.1918C287.584 48.2321 288.774 55.7797 292.145 62.4147C295.979 69.9634 302.763 71.8291 310.673 73.2738C318.792 74.7569 321.036 73.841 328.709 71.1133L329.415 70.8568C330.464 70.4595 335.367 68.5412 336.545 68.1848C339.026 67.4346 340.718 67.4973 341.945 68.8049C342.42 69.3115 342.395 70.1075 341.889 70.5829C341.414 71.0286 340.684 71.0342 340.203 70.6158L340.111 70.5265C339.749 70.1407 339 70.0961 337.494 70.5279L337.274 70.5929C336.14 70.9357 330.823 73.0225 330.135 73.2738C321.847 76.2988 319.037 77.3589 310.221 75.7487C301.484 74.153 294.072 71.7641 289.902 63.5541C286.277 56.419 285 48.2867 286.413 41.6666C288.122 33.6649 291.285 27.5798 296.062 23.1562C299.802 19.6934 303.528 17.5029 307.262 16.8525Z" fill="white"/>
<path d="M366.439 116.945C359.267 116.578 353.62 122.117 353.561 129.551C353.511 135.815 357.039 140.974 361.886 141.973C363.847 142.377 367.61 141.891 370.401 140.326C374.639 138.053 377.879 133.38 378.287 129.398C378.953 122.912 373.702 117.316 366.439 116.945Z" fill="white"/>
<path d="M236.493 115.635C238.784 120.261 242.341 130.947 240.802 130.896C236.529 130.753 230.812 124.185 226.813 115.305L226.497 114.591C223.005 106.529 220.914 101.463 223.342 100.493C225.854 99.4896 231.766 106.087 236.493 115.635Z" fill="white"/>
<path fill-rule="evenodd" clip-rule="evenodd" d="M223.342 100.392C225.854 99.3888 231.853 105.685 236.58 115.233C238.871 119.859 240.424 124.297 240.83 127.48C240.83 127.48 233.094 111.18 228.376 105.21C226.564 102.917 223.342 100.392 223.342 100.392Z" fill="#E7EAEE"/>
<path d="M222.025 141.442C222.209 140.772 222.901 140.378 223.571 140.563C224.241 140.747 224.635 141.439 224.451 142.109C224.214 142.971 220.882 145.231 213.611 149.712L209.023 152.521C199.963 158.036 193.918 161.565 193.163 161.565C188.161 161.565 183.654 156.846 180.363 149.401C177.49 142.9 175.998 135.162 176.672 130.091C176.882 128.508 182.155 124.411 190.297 118.922L191.463 118.14C198.666 113.342 204.823 109.783 207.051 109.334C207.732 109.196 208.395 109.637 208.533 110.318C208.618 110.744 188.764 127.48 186.824 138.587C185.511 146.108 190.476 158.928 192.94 159.044L193.163 159.049C192.962 159.049 193.027 159.002 193.05 158.989L193.277 158.872C193.444 158.784 193.642 158.677 193.871 158.552L194.917 157.966C195.318 157.739 195.764 157.484 196.252 157.202L197.501 156.477C199.884 155.085 202.858 153.313 205.891 151.478L208.777 149.724C212.285 147.581 215.454 145.604 217.837 144.069L219.064 143.272C219.824 142.774 220.466 142.342 220.979 141.984L221.166 141.854C221.449 141.654 221.684 141.482 221.868 141.342C221.868 141.342 222.075 141.259 222.025 141.442Z" fill="white"/>
<path fill-rule="evenodd" clip-rule="evenodd" d="M224.519 116.338C221.479 109.589 220.136 103.404 221.154 99.6589C219.315 100.243 217.015 101.294 214.733 102.603C211.699 104.344 209.291 106.289 209.235 106.712C208.649 111.126 210.899 119.715 214.64 127.371C218.64 135.562 223.4 140.822 227.085 140.822C227.437 140.822 228.447 140.614 229.459 140.26C230.898 139.758 232.247 139.025 233.351 138.065C233.901 137.588 234.469 137.049 235.063 136.447L235.778 135.707C236.2 135.261 236.636 134.781 237.316 134.019L238.262 132.962L238.303 132.917C233.563 131.185 228.606 125.08 224.898 117.163L224.519 116.338ZM206.741 106.38C207.133 103.435 218.158 97.0692 223.19 96.658C223.401 96.526 223.626 96.4116 223.866 96.3156C228.224 94.5744 234.864 102.033 240.19 112.528L240.555 113.257C242.959 118.112 244.599 122.797 245.046 126.301C245.58 130.489 244.367 133.266 241.188 133.408C241.103 133.738 240.888 134.014 240.602 134.18L240.553 134.205L240.429 134.329C240.304 134.457 240.157 134.616 239.931 134.868L238.368 136.613C237.8 137.238 237.399 137.662 236.854 138.214C236.217 138.859 235.603 139.442 235.001 139.965C232.566 142.08 228.966 143.338 227.085 143.338C226.087 143.338 225.078 143.106 224.068 142.663C222.988 143.789 219.665 145.981 213.611 149.712L209.023 152.521C199.963 158.036 193.919 161.565 193.163 161.565C191.45 161.565 189.795 161.011 188.227 159.984C188.212 159.994 188.198 160.004 188.182 160.014L187.542 160.426C185.314 161.871 181.75 164.273 178.445 166.502L178.444 166.502L178.237 166.642C178.665 169.697 179.638 172.76 181.16 175.833C186.563 174.163 190.842 173.598 192.077 174.855C193.367 176.167 194.517 178.544 195.606 182.03C195.814 182.694 195.444 183.399 194.781 183.606C194.118 183.814 193.412 183.444 193.205 182.781C192.263 179.766 191.301 177.737 190.391 176.734L190.354 176.694L190.322 176.696C190.149 176.661 189.891 176.643 189.562 176.65C188.837 176.664 187.847 176.791 186.663 177.026C184.229 177.508 181.152 178.405 178.097 179.532C171.112 182.109 165.721 185.302 164.613 187.721C164.289 188.429 164.33 189.466 164.718 191.052L164.79 191.338C164.848 191.563 164.909 191.786 164.989 192.068L165.443 193.675L165.471 193.783L165.504 193.908C165.679 194.581 165.275 195.267 164.603 195.442C163.93 195.617 163.243 195.213 163.069 194.54L162.846 193.727L162.473 192.414C162.431 192.259 162.393 192.115 162.355 191.97C161.766 189.697 161.671 188.104 162.326 186.674C163.437 184.248 166.911 181.736 171.749 179.451L170.697 176.733L170.437 176.045C170.038 174.974 169.575 173.521 169.29 172.46C165.511 174.497 162.878 174.838 160.241 173.402L160.036 173.286C159.514 172.984 159.012 172.636 158.505 172.212L143.762 181.167C143.899 181.462 144.037 181.76 144.177 182.06C144.839 183.478 143.672 184.483 141.882 185.264L141.689 185.347C140.151 185.984 138.763 186.13 137.937 185.223C134.509 181.46 130.879 172.459 132.832 170.4C133.207 170.005 134.196 169.416 136.068 168.434L136.217 168.357C136.256 168.33 136.296 168.305 136.337 168.283L150.119 160.816C150.15 160.799 150.182 160.784 150.215 160.769C149.363 159.362 148.43 157.794 147.398 156.045C147.345 155.959 147.303 155.868 147.273 155.775C147.211 155.586 147.197 155.389 147.225 155.2C147.252 155.023 147.316 154.85 147.417 154.696C147.474 154.609 147.542 154.528 147.621 154.456C150.455 151.769 154.316 148.967 159.159 145.95L159.746 145.586C161.842 144.294 166.091 141.87 169.702 139.811L169.703 139.81L169.704 139.81L169.704 139.81L169.705 139.81L169.705 139.809C172.506 138.212 174.923 136.834 175.65 136.373L175.827 136.256C176.09 136.064 176.403 135.988 176.703 136.021C176.464 133.839 176.443 131.811 176.672 130.091C176.882 128.508 182.155 124.411 190.297 118.922L191.463 118.14C198.287 113.594 204.173 110.161 206.667 109.43C206.6 108.304 206.622 107.277 206.741 106.38ZM206.943 111.981C204.499 112.874 198.38 116.507 191.703 121.008L190.634 121.733C187.629 123.783 184.854 125.782 182.757 127.412L182.174 127.868C181.239 128.61 180.482 129.249 179.933 129.761C179.657 130.018 179.44 130.238 179.287 130.413L179.18 130.539C179.157 130.564 179.151 130.554 179.159 130.475L179.166 130.422C179.163 130.443 179.161 130.46 179.159 130.475L179.126 130.745C177.916 141.361 185.593 158.698 192.94 159.043L193.113 159.048C193.127 159.048 193.144 159.049 193.163 159.049L193.113 159.048C192.974 159.04 193.029 159.001 193.05 158.989L193.277 158.872C193.444 158.784 193.642 158.677 193.871 158.552L194.918 157.966C195.318 157.739 195.764 157.484 196.252 157.202L197.501 156.477C199.884 155.085 202.858 153.313 205.892 151.478L208.777 149.724C212.285 147.581 215.455 145.604 217.837 144.069L219.064 143.272C219.824 142.774 220.466 142.342 220.98 141.984L221.166 141.854C221.438 141.662 221.666 141.496 221.846 141.358C218.606 138.981 215.415 134.589 212.583 128.889L212.379 128.476C209.649 122.888 207.675 116.836 206.943 111.981ZM177.05 138.46C176.143 139.031 173.465 140.56 170.486 142.261L170.486 142.261C166.956 144.277 163.002 146.535 161.066 147.728C156.494 150.546 152.807 153.159 150.07 155.619L150.977 157.149C154.944 163.805 157.241 167.307 159.089 169.286C158.475 167.83 158.157 165.982 158.157 163.665C158.157 163.558 158.17 163.454 158.195 163.355C158.073 162.873 158.245 162.344 158.67 162.032L159.527 161.395C160.041 161.007 160.885 160.362 161.845 159.628L161.848 159.626C163.952 158.018 166.61 155.987 167.559 155.307C170.542 153.17 172.741 151.971 174.743 151.555C175.699 151.356 176.442 151.922 176.658 152.798L176.693 152.958C176.743 153.218 176.752 153.475 176.751 154.035L176.75 154.213C176.74 156.306 176.947 157.514 177.834 158.909C178.441 159.864 179.332 160.735 180.574 161.515C180.704 161.597 180.814 161.699 180.902 161.814C182.906 160.468 184.783 159.217 186.167 158.319C183.985 156.207 182.02 153.15 180.363 149.401C178.82 145.909 177.675 142.06 177.05 138.46ZM242.55 126.62C242.144 123.437 240.591 118.999 238.3 114.373C233.573 104.825 227.311 97.6482 224.8 98.6517C222.371 99.622 223.005 106.529 226.497 114.591L226.813 115.305C230.812 124.185 236.529 130.753 240.802 130.896C242.341 130.947 242.942 129.691 242.55 126.62ZM151.514 162.896C153.697 166.424 155.291 168.755 156.68 170.377L142.704 178.866C141.272 175.727 139.991 172.806 138.749 169.838L151.317 163.028C151.388 162.99 151.454 162.946 151.514 162.896ZM178.747 176.627C177.391 173.822 176.454 171.009 175.939 168.19C174.133 169.406 172.562 170.458 171.551 171.114C171.724 171.982 172.368 174.042 172.922 175.507L173.954 178.164L174.052 178.424C175.067 177.995 176.127 177.577 177.226 177.172L177.952 176.908C178.219 176.812 178.484 176.718 178.747 176.627ZM178.702 163.294C177.414 162.401 176.426 161.385 175.71 160.258C174.552 158.435 174.248 156.878 174.235 154.526L174.234 154.315L174.056 154.382C172.781 154.877 171.259 155.773 169.346 157.123L169.024 157.352C168.113 158.005 165.522 159.985 163.432 161.582C162.27 162.47 161.262 163.24 160.785 163.597L160.673 163.68C160.675 167.865 161.72 169.785 163.663 170.717L163.818 170.789C164.281 170.993 164.612 171.097 165.556 171.355C165.575 171.36 165.593 171.366 165.612 171.372C166.591 171.042 167.714 170.492 169.055 169.706L169.555 169.406C170.662 168.715 173.635 166.711 176.905 164.505L176.906 164.505L176.912 164.501L176.922 164.494L176.925 164.492C177.511 164.097 178.106 163.695 178.702 163.294ZM136.525 171.041L136.718 171.5C138.054 174.668 139.442 177.805 141.018 181.226L141.631 182.554C141.43 182.689 141.166 182.832 140.875 182.959C140.458 183.141 140.035 183.269 139.717 183.312L139.615 183.322L139.462 183.138C138.271 181.672 136.889 179.181 135.891 176.704C135.359 175.385 134.98 174.175 134.809 173.245C134.739 172.866 134.707 172.548 134.71 172.307L134.717 172.148C134.72 172.109 134.72 172.089 134.71 172.086L134.748 172.061C134.961 171.914 135.504 171.596 136.311 171.157L136.525 171.041ZM153.878 168.27C153.391 167.774 152.595 167.766 152.099 168.253C151.226 169.108 150.004 169.905 147.869 171.091L145.696 172.297C145.122 172.624 144.652 172.906 144.226 173.182C143.87 173.412 143.552 173.635 143.267 173.856C142.717 174.281 142.616 175.071 143.04 175.62C143.465 176.17 144.255 176.271 144.805 175.847C145.032 175.671 145.294 175.488 145.595 175.292C145.873 175.112 146.178 174.925 146.532 174.719L147.224 174.322L149.432 173.099C151.552 171.909 152.83 171.059 153.86 170.049C154.356 169.562 154.364 168.766 153.878 168.27Z" fill="#00160A"/>
<path d="M125.74 296.012C132.03 331.084 155.607 357.45 185.692 363.666C191.215 364.807 200.777 364.957 210.68 363.675C223.438 362.024 235.854 358.236 246.774 352.098C276.771 335.975 299.533 303.072 302.484 274.269C305.075 248.968 295.409 225.594 277.911 208.92C277.911 208.92 222.944 235.918 195.962 251.264C172.482 264.617 125.74 296.012 125.74 296.012Z" fill="white"/>
<path d="M253.751 191.426C242.476 185.863 228.35 181.469 214.499 180.761C163.696 178.163 123.741 218.747 123.325 271.094C123.325 271.094 180.025 234.978 209.483 217.553C224.138 208.884 253.751 191.426 253.751 191.426Z" fill="white"/>
<path fill-rule="evenodd" clip-rule="evenodd" d="M358.245 164.748C358.074 173.494 348.82 188.05 333.943 204.523C323.166 216.455 310.626 227.99 300.112 235.762L299.457 236.241L299.892 238.173C302.449 249.379 305.787 261.561 304.526 273.846C301.465 303.662 278.142 337.302 247.323 353.83C236.082 360.135 223.305 364.024 210.199 365.717L208.95 365.871C199.177 367.023 189.826 366.831 184.111 365.653C161.929 361.08 143.149 345.574 131.795 323.133C131.757 323.057 131.727 322.98 131.706 322.902C130.211 323.754 128.2 324.707 127.281 325.019L124.765 325.869C97.6471 334.99 70.7629 342.621 59.7803 337.858C55.5994 336.045 54.1704 332.558 55.9188 327.874C57.6181 323.321 62.3296 317.454 70.2343 310.154L70.6686 309.754C78.1589 302.888 94.7928 290.341 120.57 272.114L120.577 271.779C121.835 217.77 163.787 176.597 216.521 179.958C232.65 180.986 245.495 186.718 251.911 190.237L254.732 188.723C281.195 174.574 302.427 164.628 318.627 158.675C345.269 148.884 358.444 153.462 358.245 164.748ZM319.495 164.476C289.705 175.423 242.624 200.044 177.074 239.648L175.082 240.853C124.04 271.751 90.2405 295.226 72.3686 311.609L71.4878 312.422L70.6526 313.205C57.2367 325.881 54.8587 332.982 60.7812 335.55C70.9198 339.947 98.1464 332.535 124.81 323.789L127.281 322.974C129.659 322.186 131.236 321.734 132.212 321.525C132.254 321.495 132.301 321.467 132.35 321.442C132.684 321.274 133.057 321.268 133.379 321.395C133.449 321.408 133.495 321.43 133.518 321.46C133.736 321.577 133.92 321.76 134.04 321.997C145.062 343.782 163.225 357.058 184.619 361.469C190.173 362.614 199.542 362.782 209.292 361.576L209.877 361.502C222.681 359.848 235.152 357.772 246.113 351.624C276.23 335.472 299.049 302.559 302.023 273.589C303.294 261.207 301.672 249.054 297.36 237.742C297.004 237.991 296.651 238.235 296.301 238.474C295.639 238.925 295.886 238.194 297.042 236.28C297.103 236.031 297.241 235.803 297.439 235.632L297.795 235.068C297.92 234.872 298.051 234.667 298.188 234.455L299.679 233.197C313.731 221.312 324.53 211.192 332.076 202.837L332.937 201.878C346.899 186.254 355.577 172.453 355.721 164.701C355.878 156.197 344.658 155.229 319.495 164.476ZM193.179 323.559C196.554 333.875 191.448 340.509 182.46 340.852C174.155 341.169 166.593 335.936 166.978 328.5C167.311 322.073 171.712 315.202 177.13 312.679C183.682 309.627 189.832 313.329 193.179 323.559ZM178.457 315.53C174.122 317.549 170.393 323.37 170.119 328.663C169.846 333.933 175.672 337.964 182.34 337.71C189.313 337.444 192.892 332.793 190.19 324.537C187.378 315.941 183.101 313.367 178.457 315.53ZM261.802 302.538C266.108 310.676 264.981 318.67 258.359 322.254L258.173 322.351L258.077 322.448C249.197 331.241 238.104 332.308 230.869 325.934L230.622 325.711C222.288 318.078 224.274 304.963 237.534 294.682C246.067 288.066 256.491 292.502 261.802 302.538ZM239.185 296.812C227.147 306.146 225.455 317.323 232.442 323.724C237.453 328.314 244.858 328.568 251.773 324.112L251.908 324.023L251.858 324.012C251.379 323.886 250.995 323.499 250.886 322.996L250.864 322.868C250.777 322.129 251.305 321.458 252.044 321.371C253.735 321.17 255.202 320.762 256.446 320.178L256.616 320.095L256.822 319.882C257.634 319.028 258.426 318.099 259.194 317.094L259.449 316.756C259.737 316.37 260.192 316.182 260.639 316.218L260.674 316.222L260.692 316.188C262.307 312.997 261.924 308.673 259.561 304.07L259.419 303.799C254.801 295.072 246.168 291.398 239.185 296.812ZM319.345 200.083C318.653 202.544 316.544 205.922 313.313 209.921C307.679 216.893 299.216 225.008 291.818 230.558L293.459 228.753C293.443 228.738 293.429 228.719 293.417 228.697L292.851 227.657C289.149 220.9 285.025 214.235 278.36 208.801C261.107 215.915 241.325 225.638 223.302 235.805L217.395 239.144C173.892 263.787 151.003 278.541 126.528 296.678C127.452 300.838 128.616 304.898 130.01 308.831C130.229 309.449 127.37 311.759 126.847 311.474C121.965 314.745 114.319 317.121 109.966 317.245C105.724 317.365 103.273 315.648 104.536 312.224C105.592 309.359 109.571 305.274 116.731 299.799L117.547 299.179L119.198 297.939C146.146 277.764 172.824 261.392 222.066 233.614L224.127 232.457C257.901 213.605 297.012 196.62 314.926 195.053C318.608 194.731 320.278 196.769 319.345 200.083ZM123.251 299.118L117.605 303.379C112.568 307.198 108.937 310.023 106.975 311.835L106.831 311.969C104.437 314.215 107.147 314.808 109.895 314.73C114.057 314.612 120.432 311.456 125.829 308.584C124.832 305.494 123.971 302.335 123.251 299.118ZM211.568 285.46C212.241 285.631 212.648 286.315 212.477 286.989C212.306 287.662 211.622 288.069 210.948 287.898C207.566 287.039 205.568 287.369 204.919 288.28C204.489 288.885 204.727 289.915 205.532 290.573C206.16 291.087 206.997 291.333 207.573 291.207C208.073 291.098 208.354 290.712 208.354 289.746C208.354 289.052 208.917 288.488 209.612 288.488C210.307 288.488 210.87 289.052 210.87 289.746C210.87 291.847 209.819 293.293 208.108 293.665C206.732 293.965 205.13 293.494 203.939 292.52C202.18 291.081 201.606 288.597 202.87 286.821C204.255 284.875 207.291 284.374 211.568 285.46ZM156.311 280.842C158.251 281.423 159.086 282.913 159.35 285.148L159.376 285.39L159.408 285.757C159.413 285.819 159.417 285.882 159.421 285.949L159.487 287.226L159.507 287.513C159.517 287.64 159.528 287.744 159.541 287.835L159.575 288.028L159.595 288.112L159.631 288.143C160.019 288.523 160.122 289.12 159.871 289.612L159.807 289.723C159.43 290.307 158.651 290.475 158.068 290.099C157.264 289.58 157.082 289.047 156.984 287.517L156.904 286.02C156.895 285.884 156.885 285.767 156.872 285.634C156.729 284.169 156.372 283.486 155.589 283.252C153.392 282.594 152.131 283.266 151.731 284.734C151.376 286.043 151.89 287.418 152.792 287.801L153.02 287.885C153.61 288.137 153.922 288.801 153.723 289.424C153.512 290.085 152.804 290.451 152.142 290.24C149.747 289.476 148.609 286.63 149.304 284.074C150.079 281.221 152.777 279.783 156.311 280.842ZM247.066 261.58C250.549 266.478 249.901 272.709 244.312 275.528C243.692 275.841 242.936 275.592 242.623 274.972C242.31 274.352 242.559 273.595 243.179 273.282C247.226 271.241 247.688 266.795 245.015 263.038C242.419 259.389 238.806 258.987 236.323 262.931C233.69 267.112 233.881 269.566 235.777 270.671C237.281 271.549 239.704 271.364 240.37 270.647L240.435 270.568C240.838 270.002 241.623 269.87 242.189 270.273C242.755 270.676 242.887 271.461 242.484 272.027C241.086 273.992 237.096 274.352 234.509 272.845C231.199 270.914 230.882 266.85 234.194 261.59C237.74 255.959 243.524 256.601 247.066 261.58ZM194.912 254.367C195.566 254.367 196.103 254.866 196.164 255.504L196.17 255.625C196.17 255.847 196.376 256.094 197.114 256.636L197.812 257.137C198.574 257.692 198.941 258.037 199.288 258.585C200.081 259.839 200.531 261.116 200.531 262.617C200.531 266.462 194.755 271.691 188.451 274.018C180.894 276.807 174.702 274.738 173.018 266.984C172.87 266.305 173.301 265.635 173.98 265.487C174.659 265.34 175.329 265.771 175.476 266.449C176.784 272.468 181.298 273.976 187.58 271.657C193.004 269.655 198.015 265.119 198.015 262.617C198.015 261.65 197.72 260.813 197.161 259.93L197.086 259.823C196.958 259.662 196.757 259.487 196.397 259.219L195.567 258.621C194.188 257.604 193.654 256.918 193.654 255.625C193.654 254.93 194.217 254.367 194.912 254.367ZM200.817 184.645L200.022 184.735C157.098 189.897 124.896 224.229 123.14 270.3L127.746 267.059C140.965 257.78 156.31 247.18 173.779 235.261L177.183 233.203C187.345 227.072 197.062 221.302 206.338 215.889C206.168 215.593 206.121 215.228 206.236 214.878C206.884 212.898 207.484 211.568 208.582 210.236C212.019 206.066 216.727 204.03 220.063 206.648C220.392 206.906 220.557 207.294 220.544 207.682L223.508 205.991C232.839 200.679 241.669 195.773 250.003 191.266L246.748 190.34C241.921 188.981 235.915 187.369 229.933 186.129C229.988 190.11 227.008 193.288 222.058 195.475C217.85 197.333 212.366 198.333 208.467 198.101C201.172 197.666 197.066 191.268 200.817 184.645ZM276.114 239.274C279.192 247.684 276.653 255.332 268.966 255.282C258.015 255.21 247.321 245.648 249.05 237.082C249.821 233.26 252.694 229.88 257.689 228.193C265.668 225.499 272.98 230.713 276.114 239.274ZM258.494 230.577C254.366 231.971 252.113 234.622 251.516 237.58C250.144 244.379 259.454 252.704 268.983 252.766C274.441 252.801 276.318 247.15 273.752 240.139C271.036 232.72 264.965 228.391 258.494 230.577ZM165.997 200.798L166.087 200.927L166.692 201.89C166.989 202.379 167.254 202.858 167.507 203.375C170.293 209.072 170.221 216.539 165.507 226.905C163.371 231.6 157.929 237.911 153.178 241.677C147.111 246.486 142.581 247.578 137.174 246.984L135.569 246.796L135.374 246.778C135.266 246.77 135.198 246.769 135.122 246.772L135.012 246.776C134.929 246.78 134.9 246.776 134.895 246.765L134.895 246.757L134.854 246.822C134.49 247.345 133.781 247.517 133.212 247.2C132.604 246.863 132.386 246.097 132.724 245.49C133.176 244.677 133.932 244.309 134.893 244.263C135.148 244.251 135.417 244.26 135.738 244.287L136.113 244.323L137.151 244.449C142.076 245.046 145.995 244.16 151.615 239.705C156.078 236.168 161.266 230.152 163.216 225.863C167.629 216.163 167.693 209.481 165.247 204.481C165.084 204.148 164.915 203.831 164.73 203.514L164.467 203.074L163.94 202.24C163.571 201.651 163.748 200.875 164.337 200.506C164.889 200.16 165.606 200.294 165.997 200.798ZM315.145 197.559C307.103 198.263 294.497 202.235 279.964 208.144L280.388 208.52C284.433 212.149 292.593 220.753 295.148 226.891L297.692 224.07C303.97 217.087 308.524 211.844 311.356 208.34L311.929 207.621C314.636 204.187 316.385 201.317 316.924 199.402L317 199.111C317.336 197.729 316.947 197.402 315.145 197.559ZM194.696 201.646C197.827 203.159 199.098 206.529 197.038 209.584C196.65 210.16 195.868 210.312 195.292 209.924C194.716 209.536 194.564 208.754 194.952 208.178C196.085 206.497 195.446 204.802 193.601 203.911C191.659 202.971 189.531 203.512 188.432 205.562C187.42 207.451 187.351 210.008 188.159 211.683C188.868 213.154 189.901 213.436 191.476 212.25C192.031 211.832 192.82 211.943 193.238 212.498C193.655 213.053 193.544 213.842 192.989 214.26C190.118 216.421 187.277 215.645 185.893 212.777C184.733 210.372 184.825 206.967 186.215 204.374C187.987 201.066 191.6 200.149 194.696 201.646ZM210.523 211.836C209.937 212.548 209.517 213.298 209.129 214.262C212.371 212.379 215.557 210.539 218.689 208.743L218.598 208.69L218.51 208.627C216.59 207.12 213.204 208.584 210.523 211.836ZM205.159 184.26L204.058 184.338L203.985 184.431C199.636 189.926 201.311 194.386 207.25 195.02C211.515 195.475 222.837 192.31 224.165 191.2C225.458 190.118 227.094 187.631 227.346 185.615C223.504 184.893 219.745 184.362 216.392 184.19C212.966 184.015 209.587 184.019 206.264 184.195L205.159 184.26Z" fill="#00160A"/>
<path d="M318.732 164.788C345.373 154.998 344.763 157.902 319.599 167.149C289.809 178.096 177.358 246.691 177.358 246.691C126.316 277.589 122.497 272.82 171.971 242.752L175.021 240.903C175.595 240.555 231.921 205.005 272.17 185.986C276.699 183.846 315.699 165.902 318.732 164.788Z" fill="white"/>
<path fill-rule="evenodd" clip-rule="evenodd" d="M364.733 116.049C356.478 115.627 350.034 122.042 349.967 130.436C349.911 137.468 353.946 143.44 359.727 144.631C361.25 144.945 365.642 144.945 369.453 142.808L369.768 142.634C374.573 139.913 377.841 134.738 378.278 130.48C379.053 122.932 372.989 116.471 364.733 116.049ZM351.764 130.45C351.765 130.396 351.765 130.342 351.766 130.288C351.818 130.271 351.868 130.25 351.917 130.223C358.39 126.737 362.386 124.08 363.981 122.161C365.034 120.894 365.548 119.466 365.506 117.913C366.593 118.033 367.629 118.272 368.6 118.613C368.595 118.66 368.592 118.707 368.594 118.756C368.673 120.99 368.077 122.776 366.811 124.166C365.356 125.764 363.593 127.285 361.589 128.719C359.447 130.252 357.146 131.606 354.845 132.765C354.308 133.036 353.797 133.282 353.318 133.505L352.624 133.82C352.524 133.864 352.432 133.904 352.347 133.941L352.14 134.028C351.886 132.895 351.754 131.694 351.764 130.45ZM352.645 135.765C353.214 137.343 354.039 138.742 355.059 139.88L355.596 139.572C364.042 134.681 369.286 130.84 371.27 128.13C373.277 125.39 373.992 123.286 373.543 121.856C373.533 121.822 373.524 121.788 373.518 121.754C372.634 120.826 371.581 120.028 370.395 119.399C370.345 121.774 369.594 123.779 368.14 125.376C366.593 127.075 364.736 128.677 362.635 130.181C360.411 131.772 358.032 133.172 355.654 134.37C354.96 134.72 354.307 135.031 353.706 135.304L353.006 135.614L352.645 135.765ZM359.372 142.691C358.311 142.373 357.322 141.853 356.433 141.164C365.127 136.134 370.538 132.172 372.72 129.192C374.074 127.343 374.939 125.681 375.291 124.197C375.728 125.014 376.06 125.885 376.272 126.795C376.227 126.887 376.196 126.989 376.185 127.098C375.966 129.199 374.883 131.284 372.904 133.36C371.004 135.353 366.903 138.228 360.637 141.946L359.372 142.691ZM362.409 142.981C364.338 142.859 366.698 142.293 368.603 141.224C372.149 139.323 374.995 135.742 376.071 132.292C375.551 133.071 374.928 133.841 374.204 134.6C372.253 136.647 368.332 139.429 362.409 142.981ZM352.287 127.977L351.967 128.15C352.987 122.213 357.731 117.952 363.705 117.829C363.768 118.996 363.405 120.042 362.599 121.012C361.296 122.58 357.838 124.926 352.287 127.977Z" fill="#00160A"/>
<path fill-rule="evenodd" clip-rule="evenodd" d="M429.6 98.8311C429.768 98.8503 429.884 99.0019 429.866 99.1684C429.865 99.4136 429.707 99.5462 429.495 99.6323C429.303 99.709 428.998 99.6796 428.82 99.7037C426.874 99.8539 425.345 98.4221 424.672 96.5767C424.026 94.8039 424.198 92.6841 425.371 91.3767C425.506 91.2226 425.74 91.2072 425.894 91.3422C426.048 91.4772 426.924 91.712 426.789 91.8661C425.821 92.9954 425.167 93.6806 426.079 96.3612C426.992 99.0418 429.475 98.8167 429.6 98.8311Z" fill="#E7EAEE"/>
<path fill-rule="evenodd" clip-rule="evenodd" d="M119.78 118.023C119.269 117.672 118.57 117.802 118.218 118.314C117.867 118.825 117.997 119.524 118.509 119.875C119.07 120.261 119.567 120.617 120.005 120.948C119.533 121.323 119.062 121.754 118.572 122.243L117.579 123.252C117.142 123.693 117.145 124.404 117.586 124.84C118.026 125.277 118.737 125.274 119.174 124.833L120.366 123.629C120.851 123.157 121.305 122.762 121.762 122.433C122.778 123.44 123.087 124.178 123.104 124.912L123.104 125.1L123.11 125.215C123.167 125.781 123.645 126.223 124.227 126.223C124.847 126.223 125.35 125.721 125.35 125.1L125.35 124.879C125.329 123.735 124.925 122.647 123.838 121.403C124.556 121.19 125.365 121.07 126.346 121.019C126.966 120.986 127.442 120.458 127.41 119.838C127.377 119.219 126.849 118.743 126.229 118.775C124.526 118.864 123.202 119.148 122.023 119.688C121.53 119.285 120.973 118.863 120.342 118.416L119.78 118.023Z" fill="#00160A"/>
<path fill-rule="evenodd" clip-rule="evenodd" d="M288.071 364.129L288.85 364.132C293.205 364.173 296.608 364.565 303.016 365.594C303.751 365.712 304.251 366.404 304.133 367.139C304.015 367.873 303.324 368.374 302.589 368.256L300.489 367.925C295.186 367.111 292.13 366.824 288.071 366.824C273.986 366.824 264.994 375.641 266.516 389.164C266.599 389.904 266.067 390.571 265.327 390.654C264.588 390.738 263.92 390.206 263.837 389.466C262.126 374.257 272.455 364.129 288.071 364.129ZM298.98 369.571L298.848 369.455C298.721 369.346 298.526 369.361 298.419 369.489C298.308 369.617 298.325 369.809 298.452 369.918L298.587 370.033C298.714 370.142 298.905 370.128 299.016 370C299.123 369.872 299.111 369.68 298.98 369.571ZM274.556 372.39C274.073 372.001 273.366 372.078 272.977 372.561C271.409 374.514 270.265 376.416 269.552 378.273C268.858 380.079 268.621 383.114 268.801 387.453L268.845 388.369C268.877 388.989 269.406 389.464 270.025 389.432C270.645 389.399 271.12 388.871 271.088 388.251C270.849 383.718 271.052 380.63 271.648 379.079C272.273 377.454 273.297 375.749 274.728 373.969C275.117 373.485 275.04 372.778 274.556 372.39ZM286.814 368.674C287.365 368.388 288.042 368.604 288.328 369.154C288.613 369.705 288.398 370.383 287.847 370.668C285.566 371.85 283.824 373.831 282.609 376.655C281.306 379.687 280.24 382.391 279.41 384.768C279.206 385.354 278.566 385.663 277.98 385.459C277.394 385.255 277.085 384.614 277.29 384.028C278.138 381.598 279.223 378.845 280.546 375.768C281.957 372.485 284.05 370.105 286.814 368.674ZM293.343 368.615C292.935 368.148 292.225 368.101 291.758 368.51C289.884 370.152 288.443 371.646 287.435 373.001C286.434 374.346 285.262 376.358 283.906 379.049C283.627 379.603 283.849 380.278 284.403 380.558C284.957 380.837 285.632 380.614 285.912 380.06C287.215 377.475 288.328 375.564 289.237 374.342C290.139 373.13 291.474 371.745 293.239 370.199C293.705 369.791 293.752 369.081 293.343 368.615ZM289.243 381.298C288.776 381.707 288.067 381.66 287.658 381.194C287.249 380.727 287.296 380.017 287.762 379.609C289.527 378.063 290.862 376.679 291.764 375.466C292.673 374.244 293.786 372.334 295.089 369.748C295.369 369.194 296.044 368.971 296.598 369.251C297.152 369.53 297.375 370.205 297.095 370.759C295.739 373.45 294.567 375.462 293.566 376.807C292.558 378.162 291.117 379.656 289.243 381.298ZM280.739 369.589C280.229 369.237 279.529 369.365 279.177 369.875C276.666 373.512 275.062 376.229 274.354 378.074C273.642 379.926 273.15 382.423 272.865 385.579C272.809 386.196 273.265 386.742 273.883 386.798C274.5 386.854 275.046 386.399 275.102 385.781C275.37 382.814 275.824 380.509 276.45 378.88C277.034 377.36 278.394 375.017 280.521 371.888L281.025 371.152C281.378 370.641 281.25 369.942 280.739 369.589Z" fill="#00160A"/>
<path fill-rule="evenodd" clip-rule="evenodd" d="M259.418 362.966L260.192 364.686L261.956 365.192C262.052 365.22 262.107 365.319 262.079 365.415C262.071 365.444 262.055 365.471 262.033 365.492L260.693 366.827L260.768 368.747C260.772 368.846 260.695 368.93 260.595 368.934C260.562 368.935 260.529 368.927 260.5 368.91L258.982 368.046C258.935 368.019 258.877 368.015 258.827 368.035L257.204 368.68C257.111 368.717 257.007 368.672 256.97 368.579C256.958 368.548 256.954 368.514 256.96 368.481L257.302 366.59L256.16 365.082C256.1 365.003 256.116 364.89 256.195 364.83C256.22 364.812 256.248 364.8 256.279 364.795L258.096 364.539L259.102 362.944C259.155 362.86 259.266 362.835 259.35 362.888C259.38 362.907 259.403 362.934 259.418 362.966Z" fill="#00160A"/>
<path fill-rule="evenodd" clip-rule="evenodd" d="M321.915 122.178C322.328 122.545 322.844 123.206 323.299 123.921L323.885 123.661L324.578 123.364C324.718 123.3 324.808 123.25 324.835 123.21C324.915 123.061 325.1 123.005 325.25 123.084C325.396 123.162 325.455 123.347 325.375 123.495C325.321 123.636 324.931 124.079 324.208 124.512C324.077 124.59 323.932 124.663 323.777 124.734C324.044 125.233 324.253 125.715 324.351 126.101C324.5 126.671 324.381 127.074 324.186 127.216C323.994 127.357 323.514 127.383 322.782 126.775C322.647 126.673 322.626 126.481 322.728 126.348C322.83 126.215 323.021 126.191 323.156 126.293C323.295 126.396 323.435 126.454 323.549 126.496L323.493 126.278C323.472 126.2 323.445 126.119 323.408 126.039C323.277 125.753 323.11 125.425 322.923 125.089C322.35 125.305 321.699 125.501 320.995 125.595C320.653 125.641 320.303 125.65 319.94 125.647C319.731 125.661 319.55 125.503 319.536 125.293C319.523 125.085 319.681 124.904 319.89 124.89C320.736 124.808 321.519 124.595 322.209 124.354L322.436 124.273C322.062 123.689 321.662 123.158 321.319 122.859C321.133 122.694 321.114 122.408 321.277 122.22C321.444 122.032 321.729 122.013 321.915 122.178Z" fill="#00160A"/>
<path fill-rule="evenodd" clip-rule="evenodd" d="M74.6169 274.23C73.4422 274.307 71.5794 274.606 70.0566 275.21C68.7541 275.727 68.7541 289.789 73.2072 290.91C77.6346 292.386 82.4757 290.432 81.8976 282.907C81.8872 282.749 81.7598 282.321 81.6138 281.831C81.3999 281.112 81.146 280.26 81.1613 279.926C81.2214 278.745 80.911 277.749 80.0916 277.123C79.2088 275.252 77.4788 274.045 74.6169 274.23ZM73.9793 287.487C71.8 285.858 71.8765 278.258 74.3638 277.751C75.9117 278.941 77.3246 280.659 77.8013 283.969C77.2679 285.792 76.1419 286.847 75.1575 287.769C75.0521 287.868 74.9484 287.965 74.8473 288.061C74.5662 287.902 74.2767 287.707 73.9793 287.487Z" fill="white"/>
<path fill-rule="evenodd" clip-rule="evenodd" d="M71.3329 283.056C71.1353 281.874 71.27 280.551 71.8644 279.138C72.134 278.498 72.8427 277.977 73.7292 277.627C74.7656 277.218 76.0334 277.015 76.8329 276.962C78.7806 276.837 79.9575 277.652 80.5578 278.918C81.1152 279.34 81.3262 280.014 81.285 280.813C81.2674 281.193 81.768 282.567 81.7853 282.829C82.1766 287.918 78.8815 289.242 75.8689 288.244C74.7244 288.826 73.6203 288.923 72.7895 288.305C72.0442 287.753 71.4721 286.59 71.341 284.539C71.3061 284.01 71.3034 283.516 71.3329 283.056ZM76.6764 279.705C74.9479 280.045 74.8756 285.034 76.385 286.098C76.5909 286.241 76.7915 286.369 76.9863 286.473C77.7159 285.815 78.26 285.283 78.5687 284.195C78.8774 283.107 77.7484 280.483 76.6764 279.705Z" fill="#FFB61D"/>
<path fill-rule="evenodd" clip-rule="evenodd" d="M189.292 407.679C188.781 407.327 188.081 407.457 187.73 407.969C187.379 408.48 187.509 409.179 188.02 409.53C188.582 409.916 189.079 410.272 189.517 410.603C189.045 410.979 188.573 411.409 188.084 411.898L187.09 412.907C186.654 413.348 186.657 414.059 187.097 414.496C187.538 414.932 188.249 414.929 188.686 414.489L189.877 413.284C190.362 412.812 190.817 412.417 191.274 412.088C192.29 413.095 192.599 413.833 192.616 414.567L192.616 414.755L192.621 414.87C192.679 415.437 193.157 415.879 193.739 415.879C194.359 415.879 194.862 415.376 194.862 414.755L194.862 414.535C194.841 413.39 194.437 412.302 193.35 411.059C194.068 410.845 194.877 410.725 195.858 410.674C196.478 410.641 196.954 410.113 196.921 409.494C196.889 408.874 196.36 408.398 195.741 408.431C194.038 408.519 192.714 408.803 191.535 409.343C191.042 408.94 190.484 408.518 189.854 408.071L189.292 407.679Z" fill="#00160A"/>
<path fill-rule="evenodd" clip-rule="evenodd" d="M189.292 407.679C188.781 407.327 188.081 407.457 187.73 407.969C187.379 408.48 187.509 409.179 188.02 409.53C188.582 409.916 189.079 410.272 189.517 410.603C189.045 410.979 188.573 411.409 188.084 411.898L187.09 412.907C186.654 413.348 186.657 414.059 187.097 414.496C187.538 414.932 188.249 414.929 188.686 414.489L189.877 413.284C190.362 412.812 190.817 412.417 191.274 412.088C192.29 413.095 192.599 413.833 192.616 414.567L192.616 414.755L192.621 414.87C192.679 415.437 193.157 415.879 193.739 415.879C194.359 415.879 194.862 415.376 194.862 414.755L194.862 414.535C194.841 413.39 194.437 412.302 193.35 411.059C194.068 410.845 194.877 410.725 195.858 410.674C196.478 410.641 196.954 410.113 196.921 409.494C196.889 408.874 196.36 408.398 195.741 408.431C194.038 408.519 192.714 408.803 191.535 409.343C191.042 408.94 190.484 408.518 189.854 408.071L189.292 407.679Z" fill="#00160A"/>
<path fill-rule="evenodd" clip-rule="evenodd" d="M227.677 376.909L228.451 378.629L230.215 379.135C230.311 379.163 230.366 379.262 230.338 379.358C230.33 379.387 230.314 379.414 230.292 379.436L228.952 380.77L229.027 382.69C229.031 382.79 228.954 382.873 228.855 382.877C228.821 382.878 228.788 382.87 228.759 382.854L227.241 381.989C227.194 381.962 227.137 381.958 227.086 381.979L225.463 382.623C225.371 382.66 225.266 382.615 225.229 382.523C225.217 382.491 225.214 382.457 225.22 382.424L225.561 380.533L224.42 379.025C224.36 378.946 224.375 378.833 224.454 378.773C224.479 378.755 224.508 378.743 224.538 378.738L226.355 378.483L227.361 376.887C227.414 376.803 227.525 376.778 227.609 376.831C227.639 376.85 227.663 376.877 227.677 376.909Z" fill="#00160A"/>
<path fill-rule="evenodd" clip-rule="evenodd" d="M130.308 365.091L131.623 366.443L133.455 366.315C133.554 366.308 133.639 366.383 133.646 366.482C133.648 366.513 133.643 366.543 133.63 366.571L132.826 368.283L133.554 370.062C133.591 370.154 133.547 370.259 133.456 370.297C133.424 370.309 133.39 370.313 133.357 370.307L131.636 370.014C131.582 370.005 131.527 370.021 131.486 370.057L130.181 371.218C130.107 371.284 129.994 371.277 129.928 371.203C129.905 371.178 129.891 371.147 129.885 371.114L129.559 369.22L127.97 368.194C127.887 368.14 127.863 368.029 127.917 367.945C127.934 367.919 127.957 367.898 127.984 367.884L129.604 367.022L130.004 365.179C130.025 365.082 130.12 365.02 130.217 365.041C130.252 365.049 130.283 365.066 130.308 365.091Z" fill="#00160A"/>
<path fill-rule="evenodd" clip-rule="evenodd" d="M109.765 241.926L110.539 243.646L112.303 244.152C112.399 244.18 112.454 244.279 112.426 244.375C112.418 244.404 112.402 244.431 112.38 244.453L111.04 245.787L111.115 247.707C111.119 247.807 111.042 247.89 110.943 247.894C110.909 247.895 110.876 247.887 110.847 247.871L109.329 247.006C109.282 246.979 109.225 246.975 109.174 246.996L107.551 247.64C107.459 247.677 107.354 247.632 107.317 247.539C107.305 247.508 107.302 247.474 107.308 247.441L107.649 245.55L106.508 244.042C106.448 243.963 106.463 243.85 106.542 243.79C106.567 243.772 106.595 243.76 106.626 243.755L108.443 243.5L109.449 241.904C109.502 241.82 109.613 241.795 109.697 241.848C109.727 241.867 109.751 241.894 109.765 241.926Z" fill="#00160A"/>
<path fill-rule="evenodd" clip-rule="evenodd" d="M109.585 243.639L109.914 244.37L110.663 244.585C110.704 244.596 110.727 244.639 110.716 244.679C110.712 244.692 110.705 244.703 110.696 244.712L110.127 245.279L110.159 246.095C110.16 246.137 110.127 246.172 110.085 246.174C110.071 246.175 110.057 246.171 110.045 246.164L109.4 245.797C109.38 245.786 109.356 245.784 109.334 245.792L108.645 246.066C108.605 246.082 108.561 246.063 108.545 246.024C108.54 246.01 108.539 245.996 108.541 245.982L108.686 245.178L108.201 244.538C108.176 244.504 108.183 244.456 108.216 244.431C108.227 244.423 108.239 244.418 108.252 244.416L109.024 244.307L109.451 243.63C109.473 243.594 109.521 243.583 109.556 243.606C109.569 243.614 109.579 243.626 109.585 243.639Z" fill="#E7EAEE"/>
<path fill-rule="evenodd" clip-rule="evenodd" d="M17.7579 317.386L18.5319 319.106L20.2962 319.612C20.3916 319.64 20.4467 319.739 20.4193 319.835C20.4109 319.864 20.3951 319.891 20.3734 319.912L19.0329 321.247L19.108 323.167C19.1119 323.266 19.0347 323.35 18.9355 323.354C18.9019 323.355 18.8687 323.347 18.8395 323.33L17.322 322.466C17.2746 322.439 17.2174 322.435 17.1667 322.455L15.5437 323.1C15.4514 323.137 15.347 323.091 15.3103 322.999C15.2979 322.968 15.2945 322.934 15.3005 322.901L15.6421 321.01L14.5004 319.502C14.4405 319.423 14.4561 319.31 14.5352 319.25C14.5596 319.232 14.5883 319.22 14.6186 319.215L16.4363 318.959L17.442 317.364C17.495 317.28 17.6059 317.255 17.6899 317.308C17.7198 317.327 17.7434 317.354 17.7579 317.386Z" fill="#00160A"/>
<path fill-rule="evenodd" clip-rule="evenodd" d="M95.5204 162.949L96.0827 163.341C96.7135 163.789 99.0688 166.008 99.5615 166.411C100.739 165.871 102.063 165.587 103.767 165.498C104.386 165.465 104.914 165.941 104.947 166.561C104.979 167.18 104.503 167.709 103.884 167.741C102.902 167.792 102.093 167.912 101.375 168.126C102.463 169.37 102.866 170.458 102.887 171.602L102.887 171.823C102.887 172.443 102.385 172.946 101.764 172.946C101.183 172.946 100.705 172.504 100.647 171.937L100.641 171.823L100.641 171.634C100.625 170.901 100.315 170.162 99.3 169.156C98.8426 169.484 98.3881 169.879 97.9031 170.351L96.7114 171.556C96.2747 171.996 95.5636 171.999 95.123 171.563C94.6825 171.126 94.6793 170.415 95.116 169.974L96.1093 168.966C96.599 168.476 97.0703 168.046 97.5422 167.67C96.7135 165.779 93.6077 163.75 93.9588 163.239C94.3099 162.728 95.0091 162.598 95.5204 162.949Z" fill="#00160A"/>
<path fill-rule="evenodd" clip-rule="evenodd" d="M312.219 292.479L313.749 293.581L315.53 293.138C315.626 293.114 315.724 293.172 315.748 293.269C315.755 293.298 315.755 293.329 315.747 293.359L315.253 295.185L316.279 296.81C316.332 296.894 316.306 297.005 316.223 297.058C316.194 297.076 316.161 297.086 316.128 297.086L314.381 297.096C314.327 297.097 314.275 297.122 314.241 297.165L313.158 298.534C313.097 298.612 312.984 298.625 312.906 298.564C312.879 298.543 312.859 298.515 312.848 298.484L312.198 296.675L310.456 295.94C310.364 295.901 310.321 295.796 310.36 295.704C310.372 295.676 310.391 295.652 310.415 295.633L311.861 294.502L311.934 292.618C311.938 292.518 312.022 292.441 312.121 292.445C312.156 292.446 312.19 292.458 312.219 292.479Z" fill="#00160A"/>
<path fill-rule="evenodd" clip-rule="evenodd" d="M329.796 222.088L330.26 223.916L331.909 224.721C331.999 224.764 332.036 224.872 331.992 224.961C331.979 224.989 331.958 225.012 331.933 225.03L330.382 226.111L330.122 228.015C330.109 228.114 330.018 228.183 329.92 228.169C329.886 228.165 329.855 228.151 329.829 228.129L328.485 227.015C328.443 226.98 328.387 226.966 328.334 226.977L326.623 227.33C326.526 227.35 326.431 227.288 326.411 227.191C326.404 227.158 326.407 227.124 326.419 227.092L327.083 225.289L326.221 223.605C326.176 223.517 326.211 223.409 326.299 223.364C326.326 223.35 326.356 223.343 326.387 223.344L328.222 223.407L329.489 222.011C329.556 221.937 329.669 221.932 329.743 221.999C329.769 222.022 329.788 222.053 329.796 222.088Z" fill="#00160A"/>
<path fill-rule="evenodd" clip-rule="evenodd" d="M289.768 148.511L290.231 150.339L291.881 151.144C291.97 151.188 292.007 151.295 291.964 151.384C291.95 151.412 291.93 151.435 291.905 151.453L290.353 152.534L290.093 154.439C290.08 154.537 289.989 154.606 289.891 154.592C289.858 154.588 289.827 154.574 289.801 154.553L288.456 153.438C288.414 153.403 288.359 153.389 288.305 153.4L286.595 153.753C286.498 153.774 286.403 153.711 286.383 153.614C286.376 153.581 286.378 153.547 286.39 153.515L287.055 151.712L286.192 150.029C286.147 149.94 286.182 149.832 286.27 149.787C286.298 149.773 286.328 149.766 286.359 149.767L288.193 149.831L289.461 148.434C289.527 148.361 289.641 148.355 289.714 148.422C289.741 148.446 289.759 148.477 289.768 148.511Z" fill="#00160A"/>
<path fill-rule="evenodd" clip-rule="evenodd" d="M408.023 166.424L408.706 166.363C409.477 166.3 410.176 166.265 410.813 166.257C411.367 165.086 412.199 164.018 413.447 162.854C413.901 162.431 414.611 162.456 415.034 162.91C415.457 163.364 415.432 164.075 414.978 164.497C414.26 165.168 413.717 165.78 413.304 166.405C414.937 166.659 415.946 167.233 416.697 168.096L416.839 168.265C417.238 168.74 417.176 169.448 416.7 169.847C416.255 170.221 415.604 170.19 415.196 169.793L415.118 169.709L414.997 169.564C414.513 169.013 413.801 168.646 412.376 168.528C412.237 169.073 412.143 169.668 412.075 170.341L411.936 172.03C411.885 172.648 411.342 173.108 410.724 173.057C410.106 173.005 409.646 172.462 409.698 171.844L409.81 170.433C409.87 169.743 409.955 169.111 410.075 168.52C409.528 168.548 408.918 168.594 408.239 168.66C407.622 168.719 407.073 168.267 407.013 167.65C406.954 167.033 407.406 166.484 408.023 166.424Z" fill="#00160A"/>
<path fill-rule="evenodd" clip-rule="evenodd" d="M317.329 243.954C317.126 244.468 316.682 245.178 316.165 245.851L316.61 246.313L317.126 246.863L317.241 246.973C317.291 247.017 317.33 247.044 317.359 247.051C317.526 247.076 317.642 247.229 317.619 247.398C317.595 247.562 317.442 247.681 317.276 247.656C317.124 247.653 316.575 247.439 315.921 246.907C315.803 246.811 315.685 246.7 315.565 246.578C315.187 246.999 314.806 247.361 314.477 247.585C313.992 247.92 313.572 247.947 313.372 247.811C313.175 247.679 312.985 247.237 313.306 246.341C313.356 246.179 313.529 246.094 313.689 246.144C313.849 246.195 313.937 246.366 313.887 246.527C313.838 246.693 313.831 246.845 313.831 246.967L314.017 246.84C314.083 246.793 314.15 246.74 314.212 246.678C314.436 246.456 314.687 246.188 314.939 245.896C314.54 245.432 314.133 244.888 313.804 244.259C313.644 243.952 313.516 243.627 313.394 243.285C313.31 243.094 313.397 242.869 313.589 242.784C313.78 242.7 314.004 242.788 314.089 242.979C314.455 243.746 314.923 244.408 315.385 244.975L315.539 245.16C315.961 244.609 316.322 244.052 316.486 243.627C316.577 243.396 316.84 243.28 317.072 243.369C317.306 243.461 317.421 243.723 317.329 243.954Z" fill="#E7EAEE"/>
<path fill-rule="evenodd" clip-rule="evenodd" d="M306.364 15.0555C307.048 14.9362 307.699 15.3944 307.819 16.0789C307.938 16.7633 307.48 17.4147 306.795 17.534C303.54 18.101 299.622 20.0467 296.238 23.1806C291.843 27.25 288.601 32.9936 287.001 40.4908C285.711 46.5311 286.896 54.4839 290.267 61.1189C294.101 68.6677 300.265 73.8 308.175 75.2447C316.294 76.7278 323.164 75.8067 330.837 73.0791L331.543 72.8226C331.767 72.7376 332.168 72.5832 332.67 72.3893C334.518 71.6764 337.746 70.4308 338.673 70.1506C341.154 69.4004 342.846 69.4631 344.073 70.7707C344.548 71.2773 344.523 72.0733 344.016 72.5487C343.541 72.9944 342.812 73 342.331 72.5816L342.238 72.4923C341.876 72.1065 341.128 72.0618 339.622 72.4937L339.401 72.5587C338.584 72.8058 335.594 73.9587 333.73 74.6775C333.008 74.9561 332.454 75.1694 332.262 75.2396C323.975 78.2646 316.539 79.3299 307.723 77.7196C298.986 76.1239 292.194 70.4684 288.024 62.2583C284.399 55.1232 283.127 46.5857 284.54 39.9655C286.249 31.9639 289.751 25.7583 294.529 21.3347C298.268 17.8719 302.629 15.7059 306.364 15.0555ZM314.871 21.1325C315.553 20.9989 316.214 21.4434 316.347 22.1252C316.481 22.8069 316.036 23.4679 315.354 23.6014C305.159 25.5981 296.96 33.3852 294.582 43.6855C293.777 47.1715 294.021 50.006 294.81 51.0874L294.915 51.223L294.924 51.2419L294.938 51.2305C295.221 50.9753 295.552 50.3233 295.808 49.3126L295.862 49.0905C298.307 38.4969 306.384 30.2968 316.7 27.543C317.371 27.3638 318.061 27.7627 318.24 28.4339C318.419 29.1051 318.02 29.7945 317.349 29.9737C308.055 32.4547 300.753 39.772 298.409 49.2545L298.313 49.6564C297.451 53.3926 294.974 55.1762 292.968 52.8111C291.5 51.0813 291.14 47.4108 292.131 43.1196C294.734 31.8436 303.71 23.3182 314.871 21.1325ZM330 34.9395C329.95 34.2465 329.349 33.7249 328.656 33.7743C316.413 34.6478 305.676 42.5997 301.404 54.3363C299.783 58.7899 299.686 62.7504 301.014 64.7702C302.794 67.4794 305.594 65.9426 306.99 62.1066L307.136 61.713C310.914 51.7803 319.767 44.8431 330.13 43.3965C330.818 43.3004 331.298 42.6648 331.202 41.9768C331.106 41.2887 330.47 40.8088 329.782 40.9048C318.369 42.4979 308.639 50.2197 304.626 61.2461L304.537 61.4817C304.091 62.6293 303.602 63.3212 303.232 63.5243L303.216 63.5353C303.208 63.5414 303.205 63.5454 303.203 63.5451C303.201 63.5448 303.2 63.5413 303.196 63.5329C303.189 63.5143 303.171 63.472 303.116 63.3886L303.049 63.2792C302.319 61.9848 302.431 58.8708 303.768 55.1968C307.697 44.4011 317.573 37.0872 328.835 36.2837C329.528 36.2343 330.049 35.6325 330 34.9395ZM335.478 47.1682C336.171 47.1187 336.773 47.6404 336.823 48.3334C336.872 49.0263 336.35 49.6282 335.657 49.6776C327.761 50.2409 320.838 55.3688 318.083 62.9379C317.266 65.1817 317.114 67.1 317.406 68.0715L317.442 68.18L317.498 68.0997C317.638 67.8867 317.796 67.5807 317.952 67.1839L318.018 67.0083C320.928 59.0133 327.983 53.4142 336.258 52.2591C336.946 52.163 337.582 52.643 337.678 53.331C337.774 54.0191 337.294 54.6547 336.606 54.7507C329.367 55.7612 323.18 60.5925 320.514 67.515L320.382 67.8688C319.303 70.8335 316.969 72.1144 315.477 69.8442C314.455 68.2885 314.527 65.3517 315.719 62.0775C318.816 53.5674 326.601 47.8015 335.478 47.1682ZM342.108 57.3033C342.059 56.6104 341.457 56.0887 340.764 56.1381C334.819 56.5622 329.605 60.4238 327.53 66.1231C326.713 68.3699 326.663 70.4149 327.419 71.5663C328.66 73.4541 330.587 72.3963 331.39 70.1904L331.499 69.9008C333.189 65.5849 337.062 62.5759 341.589 61.9439C342.278 61.8479 342.757 61.2122 342.661 60.5242C342.565 59.8361 341.93 59.3562 341.242 59.4522L340.923 59.5002C336.049 60.2853 331.844 63.3789 329.663 67.8312L329.587 67.9897L329.634 67.8091C329.704 67.5464 329.79 67.27 329.895 66.9835C331.626 62.2252 335.979 59.0017 340.943 58.6476C341.636 58.5981 342.158 57.9963 342.108 57.3033Z" fill="#00160A"/>
<path fill-rule="evenodd" clip-rule="evenodd" d="M335.478 47.1682C336.171 47.1187 336.773 47.6404 336.823 48.3334C336.872 49.0263 336.35 49.6282 335.657 49.6776C327.761 50.2409 320.838 55.3688 318.083 62.9379C317.266 65.1817 317.114 67.1 317.406 68.0716L317.442 68.18L317.498 68.0997C317.638 67.8867 317.796 67.5807 317.952 67.1839L318.018 67.0083C320.928 59.0133 327.983 53.4142 336.258 52.2591C336.946 52.1631 337.582 52.643 337.678 53.331C337.774 54.0191 337.294 54.6547 336.606 54.7508C329.367 55.7612 323.18 60.5925 320.514 67.515L320.382 67.8688C319.303 70.8336 316.969 72.1144 315.477 69.8442C314.455 68.2885 314.527 65.3517 315.719 62.0775C318.816 53.5674 326.601 47.8015 335.478 47.1682Z" fill="#00160A"/>
<path d="M257.137 210.945C283.509 198.61 305.558 192.094 319.285 190.898C323.489 190.532 325.396 192.849 324.331 196.619C323.541 199.418 321.134 203.26 317.444 207.808C311.011 215.739 302.53 222.524 294.084 228.836C307.596 216.365 311.042 211.148 315.21 206.01L315.864 205.193C318.954 201.286 320.951 198.022 321.566 195.844L321.654 195.513C322.037 193.941 321.593 193.569 319.536 193.748C306.119 194.918 284.154 201.446 257.879 213.765C231.561 226.104 230.808 223.261 257.137 210.945Z" fill="white"/>
<path d="M136.525 171.041L136.718 171.5C138.054 174.668 139.442 177.805 141.018 181.226L141.631 182.554C141.43 182.689 141.166 182.832 140.875 182.959C140.458 183.141 140.035 183.269 139.717 183.312L139.615 183.322L139.462 183.138C138.271 181.672 136.889 179.181 135.891 176.704C135.359 175.385 134.98 174.175 134.809 173.245C134.739 172.866 134.707 172.548 134.71 172.307L134.717 172.148C134.72 172.109 134.72 172.089 134.71 172.086L134.748 172.061C134.961 171.914 135.504 171.596 136.311 171.157L136.525 171.041Z" fill="white"/>
<path fill-rule="evenodd" clip-rule="evenodd" d="M169.863 159.566C170.688 158.555 171.759 158.706 173.115 159.528L173.463 159.748L174.437 160.394C174.71 160.568 174.828 160.629 174.987 160.692C175.356 160.839 175.536 161.257 175.389 161.626C175.242 161.995 174.824 162.175 174.455 162.028L174.324 161.974C174.075 161.867 173.886 161.756 173.381 161.421L172.682 160.955C172.567 160.88 172.467 160.817 172.369 160.757C171.558 160.265 171.19 160.214 170.976 160.475C170.842 160.64 170.875 160.991 171.142 161.711L171.435 162.467C172.018 164.014 172.022 164.706 170.983 165.297C170.089 165.805 169.631 165.568 168.347 164.31L168.035 164.001C167.213 163.18 166.782 162.894 166.504 162.953C166.412 162.972 166.304 163.038 166.173 163.178C166.019 163.342 165.976 163.867 166.07 164.799L166.215 166.015C166.384 167.503 166.316 167.888 165.702 168.299C164.856 168.865 163.731 168.225 161.646 166.353C161.351 166.087 161.326 165.633 161.591 165.338C161.857 165.042 162.311 165.018 162.607 165.283C163.498 166.084 164.171 166.605 164.641 166.872L164.747 166.93L164.835 166.974L164.837 166.883L164.831 166.668C164.822 166.492 164.8 166.278 164.756 165.916L164.664 165.17C164.489 163.655 164.544 162.813 165.125 162.194C165.447 161.85 165.809 161.63 166.207 161.546C167.13 161.351 167.786 161.746 168.875 162.81L169.425 163.351C170.018 163.921 170.238 164.067 170.273 164.047C170.407 163.971 170.387 163.733 170.023 162.798L169.863 162.393C169.355 161.087 169.258 160.306 169.863 159.566Z" fill="#00160A"/>
<path fill-rule="evenodd" clip-rule="evenodd" d="M248.337 42.5676L247.654 42.6285C247.036 42.6882 246.584 43.2372 246.644 43.8546C246.68 44.2277 246.895 44.5405 247.196 44.7164L247.077 44.8009C246.57 45.1589 246.45 45.8598 246.808 46.3663C247.166 46.8728 247.867 46.9932 248.373 46.6352L249.528 45.8175C249.494 46.082 249.465 46.355 249.441 46.6377L249.328 48.049C249.277 48.6671 249.736 49.2099 250.355 49.2612C250.973 49.3125 251.516 48.853 251.567 48.2349L251.706 46.5461C251.742 46.1849 251.786 45.8464 251.84 45.526C252.235 46.2739 252.313 46.85 252.23 47.395L252.197 47.5804L252.183 47.6945C252.141 48.2622 252.536 48.7805 253.108 48.8815C253.719 48.9892 254.302 48.5813 254.409 47.9705L254.448 47.7529C254.567 46.9949 254.512 46.2317 254.205 45.3845C254.366 45.5 254.504 45.6285 254.628 45.769L254.749 45.9132L254.827 45.9974C255.235 46.3943 255.886 46.4254 256.331 46.0516C256.806 45.6529 256.868 44.9445 256.47 44.4693L256.327 44.3003C256.277 44.2423 256.225 44.1857 256.173 44.1304C256.759 44.1643 257.278 43.7373 257.351 43.1461C257.427 42.5305 256.989 41.97 256.373 41.8943C255.315 41.7642 254.389 41.7348 253.537 41.8113C253.842 41.4517 254.197 41.0865 254.609 40.7021C255.063 40.2792 255.088 39.5685 254.665 39.1147C254.242 38.661 253.531 38.6361 253.077 39.059C252.316 39.7687 251.71 40.443 251.227 41.1269C251.04 40.929 250.844 40.7261 250.638 40.5178L250.153 40.034C249.71 39.5994 248.999 39.6059 248.565 40.0485C248.13 40.4912 248.136 41.2023 248.579 41.6368C248.886 41.9386 249.17 42.2241 249.431 42.4947C249.083 42.5123 248.719 42.5365 248.337 42.5676Z" fill="#00160A"/>
<path fill-rule="evenodd" clip-rule="evenodd" d="M205.052 50.3495C204.782 50.0731 204.346 50.0808 204.077 50.3668C203.808 50.6527 203.808 51.1086 204.078 51.385C204.334 51.6472 204.562 51.8901 204.766 52.1163C204.334 52.2994 203.901 52.5365 203.437 52.8293L202.732 53.2811C202.423 53.4781 202.356 53.8722 202.582 54.1613C202.808 54.4505 203.242 54.5252 203.551 54.3282L204.395 53.7894C204.836 53.5192 205.234 53.3148 205.633 53.1714C206.241 54.0157 206.368 54.5569 206.29 55.0586L206.269 55.1776L206.26 55.2508C206.232 55.615 206.471 55.9454 206.822 56.0073C207.197 56.0733 207.556 55.8089 207.625 55.4167L207.65 55.2771C207.765 54.5493 207.642 53.8161 207.12 52.9104C207.474 52.9049 207.86 52.9312 208.297 52.9871C208.678 53.0357 209.019 52.7943 209.06 52.4479C209.101 52.1014 208.825 51.781 208.444 51.7323C207.609 51.6256 206.909 51.6134 206.269 51.7C206.005 51.3759 205.7 51.0299 205.348 50.6574L205.052 50.3495Z" fill="#E7EAEE"/>
<path fill-rule="evenodd" clip-rule="evenodd" d="M60.3132 237.589L61.0871 239.309L62.8514 239.815C62.9468 239.843 63.0019 239.942 62.9746 240.038C62.9661 240.067 62.9503 240.094 62.9286 240.116L61.5882 241.45L61.6633 243.37C61.6671 243.47 61.5899 243.553 61.4907 243.557C61.4572 243.558 61.4239 243.55 61.3948 243.534L59.8772 242.669C59.8298 242.642 59.7727 242.638 59.722 242.658L58.0989 243.303C58.0067 243.34 57.9022 243.295 57.8656 243.202C57.8532 243.171 57.8498 243.137 57.8557 243.104L58.1974 241.213L57.0557 239.705C56.9958 239.626 57.0113 239.513 57.0905 239.453C57.1149 239.435 57.1436 239.423 57.1739 239.418L58.9915 239.163L59.9973 237.567C60.0502 237.483 60.1612 237.458 60.2451 237.511C60.275 237.53 60.2987 237.557 60.3132 237.589Z" fill="#00160A"/>
<path fill-rule="evenodd" clip-rule="evenodd" d="M70.6332 142.129L71.4071 143.849L73.1714 144.355C73.2668 144.383 73.322 144.482 73.2946 144.578C73.2861 144.607 73.2703 144.634 73.2486 144.655L71.9082 145.99L71.9833 147.91C71.9871 148.01 71.9099 148.093 71.8107 148.097C71.7772 148.098 71.7439 148.09 71.7148 148.074L70.1972 147.209C70.1498 147.182 70.0927 147.178 70.0419 147.198L68.4189 147.843C68.3266 147.88 68.2222 147.835 68.1855 147.742C68.1731 147.711 68.1697 147.677 68.1757 147.644L68.5173 145.753L67.3756 144.245C67.3157 144.166 67.3313 144.053 67.4104 143.993C67.4348 143.975 67.4636 143.963 67.4939 143.958L69.3115 143.702L70.3173 142.107C70.3702 142.023 70.4812 141.998 70.5651 142.051C70.595 142.07 70.6187 142.097 70.6332 142.129Z" fill="#00160A"/>
<path d="M94.0096 294.112C94.5861 293.694 95.3928 293.822 95.8114 294.398C96.23 294.975 77.9796 309.84 70.8998 316.652L70.077 317.451C66.0332 321.407 63.0516 324.833 61.371 327.542C59.5902 330.412 59.476 331.971 60.6257 332.608C64.9878 335.025 71.2595 336.203 80.2418 334.715L81.1648 334.558C84.5839 333.959 110.303 328.35 109.896 328.499L109.738 328.546C108.927 328.761 98.4546 332.383 94.8401 333.303L94.4031 333.413C88.8774 334.803 84.5533 335.756 80.6634 336.401C71.1581 337.975 64.3669 337.631 59.3751 334.865C56.4946 333.268 56.7239 330.138 59.1788 326.182C61.1095 323.07 64.5057 319.224 69.111 314.793C76.2854 307.89 86.3766 299.655 94.0096 294.112Z" fill="white"/>
<path fill-rule="evenodd" clip-rule="evenodd" d="M228.388 115.293C228.703 115.084 229.125 115.173 229.332 115.493L233.988 122.709C234.195 123.028 234.107 123.457 233.792 123.667C233.477 123.876 233.055 123.787 232.848 123.467L228.192 116.251C227.985 115.932 228.073 115.503 228.388 115.293Z" fill="#00160A"/>
<path fill-rule="evenodd" clip-rule="evenodd" d="M228.616 109.962C228.976 109.75 229.453 109.856 229.68 110.201L232.885 115.054C233.112 115.399 233.004 115.85 232.643 116.062C232.283 116.275 231.806 116.168 231.579 115.824L228.374 110.97C228.147 110.626 228.255 110.174 228.616 109.962Z" fill="#00160A"/>
</svg>
