<svg width="24" height="25" viewBox="0 0 24 25" fill="none" xmlns="http://www.w3.org/2000/svg">
<path d="M3 7.5C1.89 7.5 1 8.39 1 9.5V17.5H3C3 18.2956 3.31607 19.0587 3.87868 19.6213C4.44129 20.1839 5.20435 20.5 6 20.5C6.79565 20.5 7.55871 20.1839 8.12132 19.6213C8.68393 19.0587 9 18.2956 9 17.5H15C15 18.2956 15.3161 19.0587 15.8787 19.6213C16.4413 20.1839 17.2044 20.5 18 20.5C18.7956 20.5 19.5587 20.1839 20.1213 19.6213C20.6839 19.0587 21 18.2956 21 17.5H23V13.5C23 12.39 22.11 11.5 21 11.5L18 7.5H3ZM3 9H7V11.5H3V9ZM9 9H13V11.5H9V9ZM15 9H17.5L19.46 11.5H15V9ZM6 16C6.39782 16 6.77936 16.158 7.06066 16.4393C7.34196 16.7206 7.5 17.1022 7.5 17.5C7.5 17.8978 7.34196 18.2794 7.06066 18.5607C6.77936 18.842 6.39782 19 6 19C5.60218 19 5.22064 18.842 4.93934 18.5607C4.65804 18.2794 4.5 17.8978 4.5 17.5C4.5 17.1022 4.65804 16.7206 4.93934 16.4393C5.22064 16.158 5.60218 16 6 16ZM18 16C18.3978 16 18.7794 16.158 19.0607 16.4393C19.342 16.7206 19.5 17.1022 19.5 17.5C19.5 17.8978 19.342 18.2794 19.0607 18.5607C18.7794 18.842 18.3978 19 18 19C17.6022 19 17.2206 18.842 16.9393 18.5607C16.658 18.2794 16.5 17.8978 16.5 17.5C16.5 17.1022 16.658 16.7206 16.9393 16.4393C17.2206 16.158 17.6022 16 18 16Z" fill="black"/>
</svg>
